<?xml version="1.0" encoding="utf-8"?>
<!-- Generator: Adobe Illustrator 16.0.0, SVG Export Plug-In . SVG Version: 6.00 Build 0)  -->
<!DOCTYPE svg PUBLIC "-//W3C//DTD SVG 1.1//EN" "http://www.w3.org/Graphics/SVG/1.1/DTD/svg11.dtd">
<svg version="1.1" id="Layer_1" xmlns="http://www.w3.org/2000/svg" xmlns:xlink="http://www.w3.org/1999/xlink" x="0px" y="0px"
	 width="1944px" height="1656px" viewBox="0 0 1944 1656" enable-background="new 0 0 1944 1656" xml:space="preserve">
<g>
	<g>
		<path fill="#4D4D4D" d="M872.647,825.715c0.957-2.546,2.318-4.714,4.083-6.504c1.764-1.789,3.881-3.176,6.352-4.16
			c2.47-0.982,5.243-1.475,8.318-1.475c3.075,0,5.861,0.492,8.356,1.475c2.496,0.984,4.625,2.371,6.39,4.16
			c1.764,1.79,3.125,3.958,4.083,6.504c0.957,2.545,1.437,5.381,1.437,8.506c0,3.127-0.479,5.949-1.437,8.471
			c-0.958,2.521-2.32,4.676-4.083,6.465c-1.766,1.791-3.895,3.164-6.39,4.121s-5.282,1.438-8.356,1.438
			c-3.076,0-5.849-0.48-8.318-1.438c-2.471-0.957-4.588-2.33-6.352-4.121c-1.765-1.789-3.126-3.943-4.083-6.465
			c-0.958-2.521-1.437-5.344-1.437-8.471C871.21,831.096,871.688,828.26,872.647,825.715z M882.402,838.797
			c0.303,1.488,0.819,2.824,1.55,4.008c0.73,1.186,1.702,2.131,2.912,2.836c1.21,0.707,2.722,1.059,4.537,1.059
			s3.339-0.352,4.575-1.059c1.235-0.705,2.218-1.65,2.949-2.836c0.73-1.184,1.248-2.52,1.55-4.008
			c0.303-1.486,0.454-3.012,0.454-4.576c0-1.561-0.151-3.1-0.454-4.612c-0.302-1.513-0.82-2.847-1.55-4.008
			c-0.731-1.159-1.714-2.104-2.949-2.836c-1.236-0.729-2.76-1.097-4.575-1.097s-3.327,0.367-4.537,1.097
			c-1.21,0.731-2.181,1.677-2.912,2.836c-0.731,1.161-1.248,2.495-1.55,4.008c-0.302,1.513-0.454,3.052-0.454,4.612
			C881.948,835.785,882.1,837.311,882.402,838.797z"/>
		<path fill="#4D4D4D" d="M929.362,799.738V819.4h0.151c1.311-2.017,3.087-3.491,5.331-4.424c2.243-0.934,4.575-1.4,6.995-1.4
			c1.966,0,3.906,0.404,5.823,1.211c1.916,0.807,3.642,2.041,5.18,3.705c1.538,1.664,2.785,3.794,3.743,6.391
			c0.958,2.597,1.437,5.684,1.437,9.264s-0.479,6.668-1.437,9.264c-0.958,2.596-2.206,4.727-3.743,6.389
			c-1.538,1.664-3.265,2.9-5.18,3.707c-1.917,0.805-3.856,1.209-5.823,1.209c-2.874,0-5.445-0.453-7.713-1.361
			c-2.269-0.906-3.983-2.445-5.142-4.613h-0.151v4.992h-10.209v-53.994H929.362z M946.755,829.457
			c-0.354-1.512-0.908-2.848-1.664-4.008c-0.756-1.158-1.702-2.08-2.836-2.76c-1.134-0.681-2.508-1.021-4.122-1.021
			c-1.563,0-2.924,0.341-4.083,1.021c-1.16,0.68-2.117,1.602-2.874,2.76c-0.756,1.16-1.312,2.496-1.664,4.008
			c-0.354,1.513-0.529,3.102-0.529,4.764c0,1.615,0.176,3.178,0.529,4.689c0.352,1.512,0.907,2.85,1.664,4.008
			c0.756,1.16,1.713,2.08,2.874,2.76c1.159,0.682,2.521,1.021,4.083,1.021c1.613,0,2.987-0.34,4.122-1.021
			c1.134-0.68,2.08-1.6,2.836-2.76c0.756-1.158,1.31-2.496,1.664-4.008c0.352-1.512,0.529-3.074,0.529-4.689
			C947.285,832.559,947.107,830.97,946.755,829.457z"/>
		<path fill="#4D4D4D" d="M961.652,858.572c1.108,0,2.08-0.215,2.912-0.643c0.832-0.43,1.248-1.375,1.248-2.836v-40.458h10.738
			v40.987c0,2.016-0.215,3.754-0.643,5.217c-0.429,1.463-1.16,2.686-2.193,3.668s-2.433,1.713-4.196,2.193
			c-1.766,0.479-4.008,0.719-6.73,0.719c-1.261,0-2.394-0.102-3.403-0.303v-8.848C959.939,858.471,960.695,858.572,961.652,858.572z
			 M965.812,808.586v-8.848h10.738v8.848H965.812z"/>
		<path fill="#4D4D4D" d="M997.346,844.355c1.613,1.562,3.933,2.344,6.957,2.344c2.167,0,4.033-0.541,5.596-1.625
			s2.521-2.232,2.874-3.441h9.453c-1.513,4.688-3.832,8.041-6.958,10.057c-3.126,2.018-6.907,3.025-11.343,3.025
			c-3.076,0-5.849-0.492-8.318-1.475c-2.471-0.982-4.563-2.383-6.276-4.197c-1.715-1.814-3.038-3.982-3.971-6.504
			c-0.934-2.52-1.398-5.293-1.398-8.318c0-2.922,0.479-5.645,1.437-8.166c0.957-2.521,2.318-4.701,4.084-6.541
			c1.764-1.84,3.868-3.29,6.313-4.349c2.445-1.06,5.154-1.589,8.13-1.589c3.327,0,6.226,0.644,8.696,1.93
			c2.47,1.285,4.5,3.012,6.088,5.18s2.734,4.639,3.44,7.41c0.705,2.773,0.957,5.672,0.756,8.697h-28.206
			C994.851,840.271,995.731,842.793,997.346,844.355z M1009.483,823.785c-1.286-1.41-3.24-2.117-5.861-2.117
			c-1.714,0-3.138,0.291-4.272,0.87c-1.135,0.58-2.042,1.298-2.723,2.155s-1.16,1.766-1.437,2.723
			c-0.277,0.958-0.442,1.814-0.491,2.57h17.469C1011.663,827.264,1010.769,825.197,1009.483,823.785z"/>
		<path fill="#4D4D4D" d="M1047.936,821.668c-1.714,0-3.151,0.392-4.31,1.172c-1.161,0.783-2.106,1.791-2.836,3.025
			c-0.731,1.236-1.248,2.598-1.551,4.084c-0.303,1.487-0.453,2.962-0.453,4.424c0,1.412,0.15,2.848,0.453,4.311
			s0.794,2.785,1.475,3.971c0.681,1.184,1.6,2.154,2.761,2.91c1.159,0.756,2.57,1.135,4.234,1.135c2.571,0,4.549-0.719,5.937-2.156
			c1.386-1.436,2.256-3.363,2.608-5.783h10.36c-0.706,5.191-2.722,9.148-6.05,11.871c-3.327,2.723-7.588,4.084-12.779,4.084
			c-2.925,0-5.609-0.492-8.054-1.475c-2.446-0.982-4.526-2.355-6.239-4.121c-1.715-1.764-3.051-3.869-4.008-6.314
			c-0.958-2.445-1.437-5.129-1.437-8.055c0-3.023,0.44-5.834,1.323-8.432c0.881-2.596,2.18-4.839,3.895-6.729
			c1.713-1.891,3.806-3.365,6.276-4.424c2.47-1.06,5.294-1.589,8.47-1.589c2.318,0,4.549,0.303,6.692,0.908
			c2.143,0.605,4.058,1.525,5.747,2.76c1.688,1.236,3.062,2.773,4.121,4.613c1.06,1.841,1.664,4.021,1.815,6.541h-10.512
			C1055.17,823.912,1052.522,821.668,1047.936,821.668z"/>
		<path fill="#4D4D4D" d="M1094.141,814.636v7.185h-7.865v19.359c0,1.814,0.303,3.023,0.907,3.629
			c0.605,0.605,1.815,0.908,3.63,0.908c0.605,0,1.185-0.025,1.739-0.076s1.084-0.125,1.589-0.227v8.318
			c-0.908,0.15-1.917,0.252-3.025,0.303c-1.109,0.049-2.193,0.074-3.252,0.074c-1.663,0-3.239-0.113-4.726-0.34
			c-1.488-0.227-2.799-0.668-3.933-1.322c-1.135-0.656-2.03-1.59-2.685-2.799c-0.656-1.211-0.983-2.799-0.983-4.764V821.82h-6.503
			v-7.185h6.503v-11.722h10.738v11.722H1094.141z"/>
		<path fill="#4D4D4D" d="M1110.322,799.738v53.994h-10.738v-53.994H1110.322z"/>
		<path fill="#4D4D4D" d="M1120.229,820.383c1.108-1.664,2.521-2.999,4.234-4.008c1.714-1.008,3.642-1.727,5.785-2.155
			c2.143-0.428,4.298-0.644,6.466-0.644c1.966,0,3.957,0.141,5.975,0.416c2.016,0.278,3.856,0.82,5.52,1.627
			c1.664,0.807,3.025,1.928,4.084,3.365c1.059,1.436,1.588,3.34,1.588,5.709v20.342c0,1.766,0.101,3.453,0.303,5.066
			c0.201,1.615,0.554,2.824,1.059,3.631h-10.89c-0.202-0.605-0.366-1.223-0.491-1.854c-0.127-0.629-0.215-1.271-0.265-1.928
			c-1.715,1.766-3.731,3-6.05,3.705c-2.319,0.705-4.688,1.059-7.108,1.059c-1.866,0-3.605-0.227-5.218-0.68
			c-1.614-0.455-3.025-1.16-4.235-2.117c-1.21-0.959-2.155-2.168-2.836-3.631c-0.681-1.461-1.021-3.201-1.021-5.219
			c0-2.217,0.39-4.045,1.172-5.482c0.781-1.436,1.789-2.582,3.025-3.439c1.234-0.857,2.646-1.5,4.234-1.929
			c1.588-0.428,3.188-0.769,4.802-1.021s3.201-0.454,4.765-0.605c1.562-0.151,2.949-0.379,4.159-0.681
			c1.21-0.303,2.167-0.743,2.873-1.323c0.706-0.579,1.033-1.424,0.983-2.533c0-1.159-0.188-2.08-0.567-2.76
			c-0.378-0.682-0.882-1.211-1.512-1.589c-0.631-0.378-1.361-0.63-2.193-0.757c-0.832-0.125-1.728-0.188-2.685-0.188
			c-2.117,0-3.781,0.454-4.991,1.361s-1.916,2.42-2.117,4.537h-10.738C1118.489,824.139,1119.119,822.047,1120.229,820.383z
			 M1141.44,835.545c-0.681,0.227-1.412,0.416-2.193,0.566c-0.782,0.152-1.601,0.279-2.458,0.379
			c-0.857,0.102-1.714,0.227-2.57,0.379c-0.808,0.15-1.602,0.352-2.383,0.604c-0.782,0.254-1.463,0.594-2.041,1.021
			c-0.58,0.43-1.047,0.971-1.399,1.625c-0.354,0.656-0.529,1.488-0.529,2.496c0,0.959,0.176,1.766,0.529,2.42
			c0.353,0.656,0.832,1.172,1.437,1.551c0.605,0.377,1.311,0.643,2.118,0.793c0.806,0.152,1.638,0.229,2.495,0.229
			c2.117,0,3.755-0.354,4.915-1.059c1.159-0.707,2.016-1.551,2.571-2.535c0.555-0.982,0.895-1.977,1.021-2.986
			c0.125-1.008,0.188-1.814,0.188-2.42V834.6C1142.688,835.004,1142.121,835.318,1141.44,835.545z"/>
		<path fill="#4D4D4D" d="M1172.937,799.738V819.4h0.15c1.311-2.017,3.088-3.491,5.332-4.424c2.242-0.934,4.575-1.4,6.995-1.4
			c1.966,0,3.906,0.404,5.822,1.211s3.642,2.041,5.181,3.705c1.537,1.664,2.784,3.794,3.743,6.391
			c0.957,2.597,1.437,5.684,1.437,9.264s-0.479,6.668-1.437,9.264c-0.959,2.596-2.206,4.727-3.743,6.389
			c-1.539,1.664-3.265,2.9-5.181,3.707c-1.916,0.805-3.856,1.209-5.822,1.209c-2.874,0-5.445-0.453-7.714-1.361
			c-2.269-0.906-3.983-2.445-5.143-4.613h-0.15v4.992h-10.209v-53.994H1172.937z M1190.329,829.457
			c-0.354-1.512-0.907-2.848-1.664-4.008c-0.756-1.158-1.701-2.08-2.835-2.76c-1.135-0.681-2.509-1.021-4.122-1.021
			c-1.563,0-2.924,0.341-4.083,1.021c-1.161,0.68-2.118,1.602-2.874,2.76c-0.756,1.16-1.312,2.496-1.664,4.008
			c-0.353,1.513-0.529,3.102-0.529,4.764c0,1.615,0.177,3.178,0.529,4.689s0.908,2.85,1.664,4.008c0.756,1.16,1.713,2.08,2.874,2.76
			c1.159,0.682,2.52,1.021,4.083,1.021c1.613,0,2.987-0.34,4.122-1.021c1.134-0.68,2.079-1.6,2.835-2.76
			c0.757-1.158,1.311-2.496,1.664-4.008c0.353-1.512,0.529-3.074,0.529-4.689C1190.858,832.559,1190.682,830.97,1190.329,829.457z"
			/>
	</g>
	<path fill="#4D4D4D" d="M742,787.244v65l56,14.859v-64.998L742,787.244z M783,845.557l-26-6.842v-29.922l26,6.84V845.557z"/>
	<polygon fill="#4D4D4D" points="848,838.804 823,845.382 823,797.945 808,801.93 808,866.93 848,856.315 	"/>
</g>
</svg>
