<?xml version="1.0" encoding="utf-8"?>
<!-- Generator: Adobe Illustrator 16.0.0, SVG Export Plug-In . SVG Version: 6.00 Build 0)  -->
<!DOCTYPE svg PUBLIC "-//W3C//DTD SVG 1.1//EN" "http://www.w3.org/Graphics/SVG/1.1/DTD/svg11.dtd">
<svg version="1.1" id="Layer_1" xmlns="http://www.w3.org/2000/svg" xmlns:xlink="http://www.w3.org/1999/xlink" x="0px" y="0px"
	 width="209.074px" height="40px" viewBox="0 0 209.074 40" enable-background="new 0 0 209.074 40" xml:space="preserve">
<g>
	<path fill="#4A4A4A" d="M74.601,21.997c0-6.9,5.542-12.58,12.411-12.58s12.41,5.679,12.41,12.58c0,0.854-0.05,1.203-0.17,1.936
		l-18.693,0.047c0.646,3.124,2.959,5.284,6.453,5.284c2.169,0,4.372-1.329,5.429-3.09h6.085c-1.938,5.46-6.634,8.402-11.514,8.402
		C80.143,34.576,74.601,28.959,74.601,21.997z M80.808,19.268l12.585-0.004c-1.024-3.175-3.617-5.083-6.666-5.083
		C84.257,14.181,81.771,16.093,80.808,19.268z"/>
	<path fill="#4A4A4A" d="M101.72,22.035c0-6.88,5.64-12.542,12.491-12.542c5.275,0,10.154,3.734,11.039,8.408l-6.145,0.054
		c-0.887-1.714-2.348-3.132-4.895-3.132c-4.307,0-6.57,2.889-6.57,7.212c0,4.322,2.264,7.267,6.57,7.267
		c2.547,0,3.773-0.887,4.955-3.191h6.205c-1.367,5.201-5.885,8.466-11.16,8.466C107.359,34.576,101.72,28.975,101.72,22.035z"/>
	<path fill="#4A4A4A" d="M50.2,9.476c-2.182,0-6.2,1.148-7.2,2.775V3h-5.684L37.26,21.59c0,7.761,5.731,12.947,12.501,12.947
		c6.777,0,12.083-5.75,12.083-12.715S56.638,9.476,50.2,9.476z M49.843,28.555c-3.403,0-6.162-2.91-6.162-6.838
		c0-3.926,2.568-6.854,5.971-6.854c3.403,0,6.353,2.929,6.353,6.854C56.005,25.645,53.246,28.555,49.843,28.555z"/>
	<path fill="#4A4A4A" d="M167.32,34.293c2.188,0,4.68-1.151,6.68-2.783V35h6.775l0.055-11.908c0-7.78-5.744-13.451-12.531-13.451
		c-6.794,0-12.381,5.528-12.381,12.511C155.918,29.133,160.867,34.293,167.32,34.293z M168.217,15.166
		c3.412,0,6.177,2.918,6.177,6.854c0,3.937-2.574,6.872-5.985,6.872c-3.412,0-6.368-2.936-6.368-6.872
		C162.04,18.085,164.807,15.166,168.217,15.166z"/>
	<polygon fill="#4A4A4A" points="139,10 135,10 135,3 129,3 129,10 126,10 126,15 129,15 129,35 135,35 135,15 139,15 	"/>
	<circle fill="#4A4A4A" cx="68.171" cy="3.286" r="2.842"/>
	<path fill="#4A4A4A" d="M65.234,10H71c0,0,0,19.957,0,21.564C71,37.186,69.604,40,64.147,40h-2.403l-0.005-5.518
		c0,0,0.465,0.047,1.713,0.045c1.681-0.003,1.815-0.494,1.815-3.338C65.267,30.081,65.234,10,65.234,10z"/>
	<path fill="#4A4A4A" d="M17.219,0C7.757,0,0.087,7.728,0.087,17.261c0,9.534,7.67,17.263,17.131,17.263S34.35,26.795,34.35,17.261
		C34.35,7.728,26.68,0,17.219,0z M17.3,28.479c-5.761,0-10.431-5.022-10.431-11.218c0-6.195,4.669-11.218,10.431-11.218
		c5.761,0,10.431,5.023,10.431,11.218C27.73,23.457,23.061,28.479,17.3,28.479z"/>
	<path fill="#4A4A4A" d="M149.506,3H143c0,0,0,21.373,0,22.98c0,5.621,2.25,9.02,7.593,9.02h3.8l0.005-5.874
		c0,0-1.821-0.11-3.068-0.112c-1.681-0.004-1.855-0.85-1.855-3.694C149.474,24.211,149.506,3,149.506,3z"/>
	<path fill="#4A4A4A" d="M197.354,9.463c-2.182,0-5.354,1.148-7.354,2.776V3h-5.377l-0.057,18.584
		c0,7.761,5.731,12.944,12.502,12.944c6.777,0,12.006-5.752,12.006-12.717S203.792,9.463,197.354,9.463z M197.15,28.543
		c-3.404,0-6.162-2.911-6.162-6.838c0-3.926,2.568-6.855,5.971-6.855c3.403,0,6.353,2.929,6.353,6.855
		C203.312,25.632,200.553,28.543,197.15,28.543z"/>
</g>
</svg>
