<?xml version="1.0" encoding="utf-8"?>
<!-- Generator: Adobe Illustrator 16.0.0, SVG Export Plug-In . SVG Version: 6.00 Build 0)  -->
<!DOCTYPE svg PUBLIC "-//W3C//DTD SVG 1.1//EN" "http://www.w3.org/Graphics/SVG/1.1/DTD/svg11.dtd">
<svg version="1.1" id="Layer_1" xmlns="http://www.w3.org/2000/svg" xmlns:xlink="http://www.w3.org/1999/xlink" x="0px" y="0px"
	 width="1944px" height="1656px" viewBox="0 0 1944 1656" enable-background="new 0 0 1944 1656" xml:space="preserve">
<path d="M886.091,833.032c0-19.772,15.882-36.046,35.563-36.046c19.68,0,35.562,16.274,35.562,36.046
	c0,2.45-0.143,3.448-0.488,5.548l-53.565,0.133c1.851,8.952,8.479,15.144,18.492,15.144c6.214,0,12.528-3.81,15.557-8.856h17.437
	c-5.552,15.647-19.011,24.079-32.993,24.079C901.973,869.079,886.091,852.98,886.091,833.032z M903.878,825.212l36.062-0.012
	c-2.935-9.098-10.363-14.565-19.101-14.565C913.761,810.635,906.639,816.114,903.878,825.212z"/>
<path d="M963.801,833.141c0-19.713,16.158-35.938,35.793-35.938c15.116,0,29.101,10.7,31.635,24.093l-17.606,0.155
	c-2.54-4.912-6.731-8.976-14.028-8.976c-12.337,0-18.825,8.279-18.825,20.666s6.488,20.824,18.825,20.824
	c7.297,0,10.812-2.54,14.198-9.145h17.781c-3.917,14.902-16.863,24.259-31.979,24.259
	C979.959,869.079,963.801,853.029,963.801,833.141z"/>
<path d="M815.776,797.152c-6.253,0-15.776,3.29-20.776,7.954V779h-16l-0.16,53.067c0,22.239,16.421,37.001,35.823,37.001
	c19.42,0,34.55-16.527,34.55-36.486C849.213,812.625,834.225,797.152,815.776,797.152z M814.896,851.826
	c-9.752,0-17.656-8.344-17.656-19.595s7.359-19.644,17.11-19.644c9.752,0,18.202,8.393,18.202,19.644
	S824.648,851.826,814.896,851.826z"/>
<path d="M1151.196,868.266c6.268,0,13.804-3.297,18.804-7.975V869h20.085l0.16-33.477c0-22.294-16.462-38.222-35.911-38.222
	c-19.467,0-35.646,16.005-35.646,36.013C1118.688,853.321,1132.702,868.266,1151.196,868.266z M1154.1,813.458
	c9.776,0,17.7,8.363,17.7,19.643c0,11.278-7.377,19.69-17.153,19.69c-9.774,0-18.246-8.412-18.246-19.69
	S1144.326,813.458,1154.1,813.458z"/>
<polygon points="1072,797 1060,797 1060,779 1042,779 1042,797 1034,797 1034,812 1042,812 1042,869 1060,869 1060,812 1072,812 "/>
<circle cx="867.416" cy="779.416" r="8.144"/>
<path d="M859,797h17c0,0,0,58.842,0,63.449c0,16.105-4.479,24.551-20.113,24.551H849l-0.016-16c0,0,1.333,0.041,4.908,0.033
	c4.816-0.008,5.202-2.29,5.202-10.44C859.094,855.416,859,797,859,797z"/>
<path d="M721.411,770c-27.112,0-49.089,22.145-49.089,49.462c0,27.319,21.978,49.464,49.089,49.464s49.089-22.145,49.089-49.464
	C770.5,792.145,748.522,770,721.411,770z M721.644,851.609c-16.509,0-29.889-14.393-29.889-32.146s13.38-32.146,29.889-32.146
	c16.508,0,29.89,14.392,29.89,32.146S738.151,851.609,721.644,851.609z"/>
<path d="M1100.484,779H1082c0,0,0,60.842,0,65.449c0,16.105,6.287,24.551,21.598,24.551h10.887l0.016-16.186
	c0,0-5.219,0.006-8.793-0.001c-4.816-0.009-5.316-2.07-5.316-10.221C1100.391,839.416,1100.484,779,1100.484,779z"/>
<path d="M1237.832,797.118c-6.253,0-15.832,3.29-20.832,7.954V779h-15.889l-0.16,53.051c0,22.238,16.421,36.992,35.822,36.992
	c19.421,0,34.523-16.532,34.523-36.491C1271.297,812.595,1256.28,797.118,1237.832,797.118z M1237.008,851.792
	c-9.752,0-17.656-8.343-17.656-19.595c0-11.251,7.359-19.644,17.11-19.644c9.752,0,18.202,8.393,18.202,19.644
	C1254.664,843.449,1246.76,851.792,1237.008,851.792z"/>
</svg>
