<?xml version="1.0" encoding="utf-8"?>
<!-- Generator: Adobe Illustrator 16.0.0, SVG Export Plug-In . SVG Version: 6.00 Build 0)  -->
<!DOCTYPE svg PUBLIC "-//W3C//DTD SVG 1.1//EN" "http://www.w3.org/Graphics/SVG/1.1/DTD/svg11.dtd">
<svg version="1.1" id="Layer_1" xmlns="http://www.w3.org/2000/svg" xmlns:xlink="http://www.w3.org/1999/xlink" x="0px" y="0px"
	 width="732.203px" height="708.475px" viewBox="0 0 732.203 708.475" enable-background="new 0 0 732.203 708.475"
	 xml:space="preserve">
<g>
	<path fill-rule="evenodd" clip-rule="evenodd" d="M466.73,568.516c3.549,10.407,9.04,19.427,16.706,27.18
		c-5.177-2.523-8.646-6.759-11.442-11.5c-2.756-4.671-5.107-9.58-7.817-14.731c-0.954,0.382-1.995,0.792-3.031,1.213
		c-10.51,4.254-20.882,8.903-31.572,12.642c-8.586,3.003-17.511,4.927-26.808,4.7c-10.625-0.261-21.266,0.047-31.896-0.101
		c-6.622-0.091-13.239-0.555-19.857-0.884c-0.722-0.036-1.447-0.251-2.147-0.465c-7.023-2.156-14.17-3.99-21.017-6.609
		c-4.91-1.88-9.536-4.617-14.072-7.332c-5.047-3.019-9.844-6.454-14.769-9.682c-0.448-0.294-1.028-0.393-1.8-0.675
		c-1.607,3.64-2.333,6.883-0.426,10.616c3.616,7.079,7.299,14.065,12.881,19.863c-6.919-4.976-11.326-11.89-14.928-20.598
		c-1.262,3.758-2.057,6.505-3.108,9.151c-0.94,2.363-1.231,5.365-5.332,6.435c3.541-4.248,4.024-8.806,5.563-12.943
		c1.394-3.742,0.704-7.228-0.286-11.11c-1.728-6.761-5.872-11.054-10.937-15.359c-5.234-4.451-10.002-9.628-14.2-15.084
		c-5.733-7.45-11.151-15.216-15.939-23.301c-5.461-9.227-10.041-18.96-13.46-29.198c-1.725-5.163-3.794-10.217-5.902-15.239
		c-4.034-9.612-6.028-19.637-6.599-30.01c-0.288-5.249-0.945-10.478-1.262-15.727c-0.122-2,0.038-4.07,0.425-6.037
		c1.674-8.507,3.082-17.097,5.354-25.447c2.075-7.626,4.574-15.165,8.64-22.124c3.027-5.182,4.925-11.036,8.035-16.159
		c4.268-7.029,8.518-14.153,14.333-20.101c2.677-2.736,5.474-5.355,8.274-7.967c10.51-9.803,21.699-18.734,35.219-24
		c8.457-3.292,17.253-5.721,25.917-8.478c3.784-1.205,7.585-2.376,11.43-3.363c13.828-3.547,27.81-6.566,41.469-10.668
		c8.382-2.517,16.713-2.959,25.272-2.965c5.541-0.003,10.825,0.877,16.015,2.722c6.518,2.318,13.074,4.523,19.604,6.804
		c7.225,2.525,13.061,7.35,19.219,11.646c2.657,1.854,5.439,3.524,8.127,5.333c1.582,1.065,3.348,2.011,4.592,3.404
		c5.136,5.753,11.054,10.57,17.296,15.025c5.108,3.643,8.91,8.566,12.809,13.334c4.831,5.909,10.107,11.499,13.597,18.441
		c3.506,6.972,7.356,13.77,10.937,20.708c1,1.94,1.611,4.088,2.347,6.16c0.693,1.94,1.044,4.057,2.02,5.833
		c4.064,7.387,4.734,15.718,6.897,23.636c3.22,11.781,3.388,23.818,3.658,35.879c0.106,4.675,0.983,9.358,0.776,14.004
		c-0.293,6.588-1.33,13.138-1.932,19.715c-1.247,13.651-7.362,25.164-15.482,35.844c-1.422,1.868-2.651,3.907-3.774,5.976
		c-3.346,6.158-8.111,11.227-12.874,16.2c-6.712,7.012-13.633,13.875-20.951,20.243c-6.644,5.781-13.883,10.897-22.196,14.204
		C467.808,567.777,467.356,568.139,466.73,568.516z M413.536,375.576c0.423,0.582,0.722,1.458,1.289,1.694
		c3.965,1.661,5.218,5.305,6.721,8.809c5.463,12.728,10.125,25.721,13.282,39.233c1.01,4.313,4.147,7.254,7.774,9.11
		c2.34,1.197,4.225,2.547,5.769,4.518c3.278,4.184,6.066,8.664,8.138,13.58c0.333,0.79,0.959,1.458,1.962,2.936
		c0-3.089,0.063-5.151-0.012-7.207c-0.22-6.032-1.197-12.132-0.602-18.078c1.185-11.837-3.355-21.189-10.962-29.572
		c-4.854-5.35-11.405-8.21-17.455-11.803c-0.803-0.479-1.599-0.972-3.222-1.96c1.708-0.328,2.583-0.787,3.211-0.562
		c1.647,0.59,3.256,1.363,4.752,2.27c4.523,2.749,8.987,5.598,13.972,8.719c-2.194-7.249-3.75-13.929-7.416-20.58
		c0,3.247,0,5.751,0,8.255c-0.904-1.917-1.244-3.904-1.708-5.861c-1.15-4.864-2.043-9.819-5.951-13.515
		c-5.913-5.596-11.914-11.115-19.667-14.029c-5.342-2.01-10.798-3.888-16.362-5.078c-3.532-0.756-7.357-0.186-11.046-0.103
		c-0.651,0.014-1.373,0.443-1.92,0.866c-2.468,1.897-4.718,3.962-4.37,7.484c-1.997,0.142-2.795-0.72-2.423-2.365
		c0.97-4.271,5.276-7.895,9.488-8.012c16.639-0.462,31.329,4.417,43.594,15.944c1.089,1.022,2.178,2.146,4.288,2.761
		c-5.913-14.058-15.104-24.105-28.413-30.258c-5.512-2.549-11.166-4.487-17.381-4.558c-4.858-0.054-8.885,4.05-5.375,8.77
		c0.112,0.151-0.064,0.515-0.107,0.779c-3.995-2.2-4.501-4.403-2.13-8.01c1.713-2.608,4.033-3.935,7.045-3.709
		c3.213,0.239,6.521,0.414,9.58,1.323c16.013,4.759,28.37,14.229,35.873,29.34c3.654,7.358,6.195,15.253,10.544,22.298
		c0.455,0.736,0.659,1.635,0.945,2.47c2.381,6.954,4.707,13.927,7.169,20.852c0.572,1.611,1.348,3.285,2.468,4.541
		c3.843,4.311,5.308,9.718,5.476,15.016c0.463,14.738,0.178,29.502,0.148,44.255c-0.005,2.061-0.009,4.169-0.418,6.172
		c-1.504,7.4-1.723,14.857-1.683,22.377c0.038,7.364,0.02,14.762-0.63,22.088c-1.22,13.747,0.927,27.017,4.718,40.122
		c0.888,3.069,2.112,6.043,3.206,9.13c8.685-3.481,16.182-7.982,22.73-14.004c4.117-3.787,8.291-7.519,12.248-11.468
		c5.83-5.817,11.858-11.502,17.111-17.816c4.593-5.522,8.503-11.673,12.236-17.835c5.656-9.334,10.613-18.956,11.59-30.208
		c0.7-8.051,2.292-16.029,2.028-24.16c-0.119-3.676-0.329-7.348-0.59-11.016c-0.472-6.601-1.011-13.198-1.524-19.795
		c-0.182-2.345-0.135-4.741-0.608-7.027c-1.228-5.904-2.443-11.831-4.122-17.615c-1.721-5.924-3.965-11.696-6.032-17.516
		c-0.787-2.216-1.548-4.467-2.612-6.554c-3.479-6.82-7.328-13.462-10.579-20.385c-2.56-5.45-6.513-9.808-10.17-14.38
		c-5.414-6.772-10.825-13.547-17.944-18.807c-5.065-3.742-9.509-8.32-14.288-12.46c-1.887-1.636-3.863-3.184-5.908-4.617
		c-2.893-2.027-5.897-3.896-8.834-5.859c-4.162-2.781-8.097-5.992-12.516-8.266c-4.275-2.199-9.023-3.488-13.592-5.099
		c-9.527-3.361-18.772-7.681-29.324-7.121c-5.549,0.293-11.066,0.022-16.517,1.696c-6.169,1.892-12.489,3.301-18.746,4.909
		c-5.549,1.425-11.104,2.83-16.657,4.248c-3.417,0.871-6.849,1.681-10.24,2.644c-4.248,1.206-8.455,2.556-12.69,3.814
		c-3.804,1.128-7.65,2.12-11.407,3.384c-1.087,0.365-1.957,2.129-2.88,2.092c-3.118-0.125-5.296,1.654-7.551,3.188
		c-2.86,1.946-5.506,4.205-8.244,6.329c-0.135-0.147-0.268-0.295-0.405-0.443c1.78-2.02,3.559-4.039,5.839-6.629
		c-1.339,0.381-2.049,0.461-2.639,0.769c-7.681,4.027-15.674,7.531-22.284,13.353c-1.991,1.753-4.034,3.443-6.044,5.173
		c-8.172,7.033-15.827,14.472-21.845,23.583c-5.312,8.041-9.382,16.661-13.527,25.281c-1.276,2.655-3.026,5.166-3.82,7.953
		c-2.252,7.9-5.65,15.462-6.766,23.706c-1.042,7.689-3.751,15.156-2.945,23.094c0.623,6.124,1.333,12.247,1.668,18.389
		c0.474,8.666,3.028,16.751,6.194,24.716c1.843,4.63,3.74,9.241,5.405,13.936c5.236,14.76,12.059,28.716,21.235,41.424
		c4.986,6.901,10.181,13.678,15.692,20.161c2.978,3.503,6.82,6.27,10.496,9.569c0.207-0.905,0.36-1.202,0.318-1.471
		c-0.108-0.722-0.293-1.435-0.46-2.147c-3.128-13.329-6.516-26.592-6.812-40.424c-0.137-6.579,0.896-12.851,3.121-18.974
		c0.637-1.751,1.75-3.004,3.463-2.783c-1.06,2.565-2.192,5.024-3.103,7.562c-2.255,6.271-1.958,12.818-1.512,19.275
		c0.882,12.836,4.156,25.241,7.236,37.682c1.051,4.242,3.929,6.112,7.95,7.743c0.459-2.954,0.852-5.549,1.264-8.144
		c2.273-14.282,4.056-28.631,3.224-43.113c-0.515-8.95-1.699-17.863-2.711-26.779c-0.464-4.077-1.663-8.105-1.782-12.177
		c-0.255-8.554-0.219-17.129,0.09-25.681c0.202-5.578,1.215-11.103,3.276-16.373c0.769-1.964,1.631-3.616,3.823-3.364
		c-1.112,2.689-2.586,5.118-3.096,7.731c-1.121,5.737-2.127,11.545-2.498,17.367c-0.591,9.263-0.056,18.544,1.148,27.749
		c0.709,5.421,1.84,10.788,2.87,16.691c3.04-5.616,5.832-10.757,8.611-15.907c3.112-5.774,4.23-11.803,2.833-18.336
		c-2.266-10.607-1.634-21.337-0.958-32.057c0.864-13.651,7.686-23.029,19.973-28.897c12.874-6.147,23.264-14.943,28.46-29.083
		c0.952,0.288,1.813,0.549,3.246,0.983c-2.756,4.363-5.114,8.386-7.754,12.215c-4.698,6.816-11.135,11.7-18.288,15.683
		c-3.076,1.716-6.353,3.089-9.353,4.919c-10.191,6.221-13.55,16.31-14.513,27.332c-0.592,6.743-0.135,13.581-0.08,20.375
		c0.009,0.995,0.348,2.003,0.626,2.979c1.726,6.041,2.616,12.094,0.531,18.249c-0.23,0.677-0.511,1.516-0.31,2.129
		c1.321,4.008,2.491,8.104,4.248,11.923c1.9,4.129,4.323,8.024,6.642,11.95c1.041,1.764,2.272,3.438,3.595,5.004
		c4.459,5.281,9.022,10.475,13.489,15.748c1.607,1.897,2.911,4.066,4.604,5.876c4.18,4.46,9.387,7.538,14.654,10.527
		c3.993,2.267,8.046,2.313,12.321,0.909c1.784-0.587,3.785-1.172,5.582-0.939c5.616,0.726,10.774-0.979,15.98-2.477
		c2.515-0.724,5.08-1.514,7.358-2.76c4.79-2.615,7.876-6.982,10.792-11.444c3.863-5.915,7.722-11.832,11.587-17.746
		c4.55-6.968,10.345-12.989,12.892-21.41c2.612-8.633,2.436-17.138,1.766-25.803c-0.189-2.468-1.004-4.905-1.698-7.307
		c-0.261-0.903-0.803-2.075-1.544-2.423c-2.136-0.999-2.435-2.86-2.659-4.748c-1-8.424-5.171-15.464-9.639-22.385
		c-0.63-0.974-1.343-1.902-1.89-2.921c-4.52-8.411-10.026-16.308-13.074-25.494c-0.403-1.211-1.636-2.477-2.81-3.042
		c-3.957-1.906-8.165-3.297-12.076-5.281c-3.894-1.975-7.522-1.807-11.448-0.208c-3.866,1.573-10.642,0.042-14.305-2.864
		c0.983-1.833,2.401-1.148,3.818-0.709c4.288,1.33,8.466,2.042,12.893-0.025c1.65-0.771,4.204-0.6,5.984,0.084
		c6.171,2.374,12.255,5.007,18.214,7.873c2.27,1.091,4.111,3.075,6.781,5.141c-3.875,1.472-2.493,3.517-1.605,5.243
		c2.419,4.693,4.954,9.33,7.563,13.919c1.696,2.983,3.602,5.845,5.413,8.759c0.605-0.767,0.684-1.226,0.539-1.598
		c-3.473-8.858-5.542-18.277-10.683-26.473c-1.312-2.092-2.05-4.471-4.29-6.003c-4.279-2.928-8.311-6.219-13.974-5.918
		c-0.68,0.036-1.454-0.873-2.115-1.424c-3.03-2.533-6.034-5.094-9.161-7.74c-0.923,1.064-1.698,2.147-2.659,3.027
		c-2.607,2.394-6.119,2.616-8.882,0.519c-0.472-0.36-0.508-1.296-0.781-2.074c0.736-0.063,1.053-0.187,1.285-0.095
		c4.819,1.886,6.082,1.433,8.506-2.878c0.535-0.95,1.373-1.729,2.195-2.741c3.087,2.86,5.882,5.384,8.599,7.992
		c1.64,1.573,3.181,2.945,5.789,2.147c0.779-0.24,1.913,0.497,2.826,0.918c2.648,1.224,5.265,2.516,7.895,3.78L413.536,375.576z
		 M298.206,559.238c0.155,0.097,0.574,0.284,0.904,0.574c6.343,5.604,13.86,9.399,20.974,13.846
		c9.439,5.898,20.353,7.286,30.542,10.862c0.409,0.145,0.875,0.132,1.316,0.17c10.073,0.882,20.131,2.115,30.222,2.523
		c7.619,0.31,15.345,0.072,22.909-0.855c7.398-0.907,14.711-2.765,21.946-4.654c4.014-1.05,8.271-1.901,11.884-4.871
		c-4.761-4.941-7.514-10.748-9.254-17.031c-3.519-12.703-3.494-25.646-1.732-38.55c1.152-8.435,3.186-16.749,4.822-25.117
		c0.268-1.377,0.517-2.757,0.833-4.458c-0.697,0.45-1.174,0.601-1.397,0.927c-5.583,8.124-11.631,15.93-16.131,24.786
		c-2.688,5.29-6.406,9.931-11.74,12.817c-2.146,1.159-4.682,1.66-7.09,2.26c-3.831,0.954-7.701,2.41-11.562,2.435
		c-5.336,0.035-10.47,0.687-15.592,1.984c-2.986,0.756-5.805,0.218-8.415-1.435c-1.365-0.864-2.776-1.658-4.129-2.54
		c-5.803-3.776-11.628-7.479-15.588-13.459c-2.264-3.418-4.926-6.582-7.508-9.781c-6.381-7.904-12.945-15.664-17.197-25.038
		c-1.251-2.756-2.759-5.396-4.16-8.109c-4.961,3.82-6.207,9.439-6.521,14.604c-0.551,9.066-0.477,18.319,0.704,27.313
		c1.719,13.09,7.287,24.758,16.276,34.644c1.588,1.744,2.909,3.731,4.353,5.606c-0.212,0.232-0.427,0.465-0.641,0.695
		c-0.781-0.434-1.734-0.708-2.319-1.327c-9.198-9.714-15.498-21.006-18.727-34.047c-1.865-7.544-1.912-15.176-1.861-22.846
		c0.011-1.485-0.133-2.972-0.205-4.457c-0.34,0.02-0.681,0.042-1.019,0.063c-0.329,10.334-0.286,20.699-1.091,30.997
		C301.195,538.156,299.543,548.478,298.206,559.238z M444.138,476.058c-1.821,2.655-3.193,4.529-4.424,6.493
		c-0.769,1.226-1.542,2.525-1.933,3.899c-1.442,5.098-2.808,10.219-4.041,15.37c-0.853,3.566-1.211,7.262-2.194,10.786
		c-2.365,8.473-2.547,17.236-2.693,25.839c-0.142,8.443,1.181,16.984,4.101,25.119c1.764,4.914,4.477,9.162,8.093,13.156
		c7.479-3.106,14.792-6.146,22.059-9.164c0-0.976,0.131-1.589-0.021-2.118c-1.148-3.96-2.381-7.896-3.534-11.856
		c-2.518-8.66-4.386-17.444-4.217-26.519c0.2-10.604,0.582-21.204,0.85-31.808c0.036-1.429-0.121-2.862-0.189-4.295
		c-1.282,2.913-1.748,5.792-2.245,8.669c-2.329,13.477-4.806,26.93-6.955,40.438c-1.455,9.137-0.828,18.178,2.678,26.885
		c0.209,0.521,0.027,1.197,0.027,2.826c-1.041-1.766-1.678-2.578-2.034-3.498c-1.823-4.699-2.853-9.545-3.125-14.616
		c-0.549-10.277,1.453-20.268,3.219-30.269c2.583-14.631,5.557-29.192,8.116-43.825c0.783-4.473,1.335-9.13,0.997-13.626
		c-1.028-13.632-7.837-23.766-19.989-30.321c0.23,1.073,0.699,2.626,1.359,2.714c2.268,0.302,2.301,1.953,2.641,3.474
		c0.418,1.866,0.573,3.811,1.15,5.623c2.147,6.723,2.373,13.586,1.5,20.491c-0.493,3.883-1.438,7.708-2.245,11.902
		C441.989,477.303,442.64,476.927,444.138,476.058z M291.328,557.65c0.726,2.777,1.112,5.022,2.777,6.94
		C295.946,559.619,295.946,559.619,291.328,557.65z"/>
	<path fill-rule="evenodd" clip-rule="evenodd" fill="#FFFFFF" d="M413.671,375.723c-2.63-1.264-5.247-2.556-7.895-3.78
		c-0.913-0.421-2.046-1.158-2.826-0.918c-2.608,0.797-4.149-0.574-5.789-2.147c-2.716-2.608-5.512-5.132-8.599-7.992
		c-0.823,1.012-1.661,1.791-2.195,2.741c-2.424,4.311-3.687,4.765-8.506,2.878c-0.232-0.092-0.549,0.032-1.285,0.095
		c0.273,0.778,0.31,1.714,0.781,2.074c2.763,2.097,6.275,1.875,8.882-0.519c0.961-0.88,1.736-1.963,2.659-3.027
		c3.127,2.646,6.131,5.208,9.161,7.74c0.661,0.551,1.435,1.459,2.115,1.424c5.663-0.301,9.695,2.99,13.974,5.918
		c2.239,1.532,2.977,3.912,4.29,6.003c5.141,8.195,7.21,17.615,10.683,26.473c0.146,0.373,0.066,0.832-0.539,1.598
		c-1.811-2.914-3.717-5.776-5.413-8.759c-2.61-4.59-5.145-9.227-7.563-13.919c-0.888-1.726-2.27-3.771,1.605-5.243
		c-2.669-2.066-4.511-4.05-6.781-5.141c-5.959-2.866-12.043-5.499-18.214-7.873c-1.78-0.684-4.334-0.855-5.984-0.084
		c-4.426,2.066-8.605,1.355-12.893,0.025c-1.417-0.439-2.835-1.123-3.818,0.709c3.663,2.905,10.438,4.437,14.305,2.864
		c3.926-1.599,7.555-1.766,11.448,0.208c3.911,1.984,8.12,3.375,12.076,5.281c1.173,0.565,2.407,1.831,2.81,3.042
		c3.048,9.186,8.554,17.083,13.074,25.494c0.547,1.019,1.26,1.948,1.89,2.921c4.467,6.921,8.638,13.961,9.639,22.385
		c0.224,1.888,0.522,3.749,2.659,4.748c0.742,0.348,1.284,1.52,1.544,2.423c0.693,2.401,1.508,4.838,1.698,7.307
		c0.669,8.665,0.846,17.17-1.766,25.803c-2.547,8.42-8.341,14.442-12.892,21.41c-3.865,5.915-7.724,11.831-11.587,17.746
		c-2.916,4.462-6.003,8.829-10.792,11.444c-2.279,1.246-4.844,2.036-7.358,2.76c-5.206,1.497-10.365,3.202-15.98,2.477
		c-1.797-0.232-3.798,0.353-5.582,0.939c-4.275,1.404-8.329,1.357-12.321-0.909c-5.267-2.989-10.474-6.067-14.654-10.527
		c-1.694-1.81-2.997-3.979-4.604-5.876c-4.467-5.273-9.03-10.467-13.489-15.748c-1.323-1.566-2.554-3.24-3.595-5.004
		c-2.318-3.926-4.741-7.821-6.642-11.95c-1.757-3.82-2.927-7.915-4.248-11.923c-0.202-0.614,0.079-1.453,0.31-2.129
		c2.084-6.154,1.195-12.208-0.531-18.249c-0.279-0.976-0.617-1.984-0.626-2.979c-0.056-6.793-0.513-13.632,0.08-20.375
		c0.963-11.021,4.322-21.11,14.513-27.332c3-1.831,6.277-3.204,9.353-4.919c7.153-3.983,13.59-8.867,18.288-15.683
		c2.641-3.829,4.999-7.852,7.754-12.215c-1.433-0.434-2.293-0.695-3.246-0.983c-5.196,14.139-15.586,22.936-28.46,29.083
		c-12.287,5.868-19.109,15.246-19.973,28.897c-0.677,10.719-1.309,21.449,0.958,32.057c1.397,6.534,0.279,12.562-2.833,18.336
		c-2.779,5.15-5.571,10.291-8.611,15.907c-1.03-5.904-2.16-11.27-2.87-16.691c-1.204-9.205-1.739-18.486-1.148-27.749
		c0.371-5.821,1.377-11.63,2.498-17.367c0.51-2.613,1.984-5.042,3.096-7.731c-2.192-0.252-3.055,1.4-3.823,3.364
		c-2.061,5.271-3.074,10.795-3.276,16.373c-0.31,8.552-0.346,17.127-0.09,25.681c0.119,4.072,1.318,8.1,1.782,12.177
		c1.012,8.916,2.196,17.829,2.711,26.779c0.832,14.482-0.951,28.831-3.224,43.113c-0.412,2.595-0.805,5.189-1.264,8.144
		c-4.021-1.631-6.899-3.501-7.95-7.743c-3.08-12.44-6.354-24.846-7.236-37.682c-0.446-6.457-0.743-13.003,1.512-19.275
		c0.911-2.538,2.043-4.997,3.103-7.562c-1.713-0.222-2.826,1.031-3.463,2.783c-2.225,6.124-3.258,12.395-3.121,18.974
		c0.295,13.833,3.683,27.095,6.812,40.424c0.167,0.713,0.353,1.426,0.46,2.147c0.042,0.269-0.111,0.565-0.318,1.471
		c-3.676-3.3-7.519-6.066-10.496-9.569c-5.512-6.483-10.707-13.26-15.692-20.161c-9.176-12.708-15.999-26.664-21.235-41.424
		c-1.665-4.695-3.562-9.306-5.405-13.936c-3.166-7.965-5.72-16.05-6.194-24.716c-0.335-6.142-1.046-12.265-1.668-18.389
		c-0.807-7.938,1.902-15.405,2.945-23.094c1.116-8.244,4.514-15.806,6.766-23.706c0.794-2.787,2.543-5.298,3.82-7.953
		c4.145-8.62,8.215-17.241,13.527-25.281c6.018-9.111,13.673-16.551,21.845-23.583c2.011-1.73,4.054-3.42,6.044-5.173
		c6.61-5.821,14.604-9.326,22.284-13.353c0.59-0.308,1.3-0.387,2.639-0.769c-2.281,2.59-4.059,4.61-5.839,6.629
		c0.137,0.147,0.27,0.295,0.405,0.443c2.738-2.124,5.384-4.383,8.244-6.329c2.255-1.533,4.434-3.312,7.551-3.188
		c0.923,0.038,1.792-1.727,2.88-2.092c3.757-1.264,7.603-2.255,11.407-3.384c4.235-1.258,8.442-2.608,12.69-3.814
		c3.391-0.963,6.824-1.773,10.24-2.644c5.553-1.418,11.108-2.823,16.657-4.248c6.257-1.607,12.577-3.017,18.746-4.909
		c5.45-1.674,10.967-1.402,16.517-1.696c10.552-0.56,19.797,3.76,29.324,7.121c4.568,1.611,9.317,2.9,13.592,5.099
		c4.419,2.273,8.354,5.485,12.516,8.266c2.938,1.964,5.942,3.833,8.834,5.859c2.045,1.433,4.021,2.981,5.908,4.617
		c4.779,4.14,9.223,8.718,14.288,12.46c7.119,5.26,12.53,12.035,17.944,18.807c3.658,4.572,7.611,8.93,10.17,14.38
		c3.25,6.923,7.099,13.565,10.579,20.385c1.063,2.086,1.825,4.338,2.612,6.554c2.066,5.82,4.311,11.592,6.032,17.516
		c1.679,5.784,2.895,11.711,4.122,17.615c0.473,2.286,0.427,4.682,0.608,7.027c0.513,6.597,1.053,13.194,1.524,19.795
		c0.261,3.668,0.472,7.34,0.59,11.016c0.263,8.13-1.328,16.108-2.028,24.16c-0.978,11.252-5.935,20.873-11.59,30.208
		c-3.733,6.162-7.643,12.312-12.236,17.835c-5.252,6.314-11.281,11.999-17.111,17.816c-3.957,3.949-8.131,7.681-12.248,11.468
		c-6.548,6.021-14.045,10.522-22.73,14.004c-1.094-3.087-2.318-6.061-3.206-9.13c-3.791-13.105-5.938-26.375-4.718-40.122
		c0.65-7.326,0.668-14.724,0.63-22.088c-0.04-7.521,0.178-14.978,1.683-22.377c0.409-2.003,0.413-4.111,0.418-6.172
		c0.03-14.753,0.315-29.517-0.148-44.255c-0.167-5.298-1.632-10.705-5.476-15.016c-1.12-1.256-1.896-2.93-2.468-4.541
		c-2.462-6.925-4.788-13.898-7.169-20.852c-0.286-0.835-0.49-1.733-0.945-2.47c-4.349-7.045-6.891-14.94-10.544-22.298
		c-7.502-15.111-19.86-24.581-35.873-29.34c-3.058-0.909-6.367-1.083-9.58-1.323c-3.012-0.225-5.333,1.102-7.045,3.709
		c-2.371,3.607-1.865,5.811,2.131,8.01c0.042-0.265,0.218-0.628,0.106-0.779c-3.51-4.72,0.517-8.824,5.375-8.77
		c6.215,0.07,11.869,2.009,17.381,4.558c13.31,6.153,22.5,16.2,28.413,30.258c-2.109-0.616-3.198-1.739-4.288-2.761
		c-12.265-11.527-26.955-16.407-43.594-15.944c-4.211,0.117-8.518,3.74-9.488,8.012c-0.373,1.646,0.426,2.507,2.423,2.365
		c-0.348-3.522,1.902-5.587,4.37-7.484c0.547-0.423,1.269-0.852,1.92-0.866c3.689-0.083,7.514-0.653,11.046,0.103
		c5.563,1.19,11.02,3.067,16.362,5.078c7.753,2.915,13.754,8.433,19.667,14.029c3.908,3.696,4.801,8.651,5.951,13.515
		c0.464,1.957,0.805,3.944,1.708,5.861c0-2.504,0-5.008,0-8.255c3.667,6.651,5.222,13.331,7.416,20.58
		c-4.984-3.121-9.448-5.971-13.972-8.719c-1.496-0.907-3.105-1.68-4.752-2.27c-0.628-0.225-1.503,0.234-3.211,0.562
		c1.624,0.988,2.419,1.481,3.222,1.96c6.05,3.593,12.6,6.453,17.455,11.803c7.607,8.383,12.146,17.735,10.962,29.572
		c-0.596,5.945,0.382,12.046,0.602,18.078c0.075,2.056,0.012,4.118,0.012,7.207c-1.002-1.478-1.629-2.146-1.962-2.936
		c-2.072-4.916-4.86-9.396-8.138-13.58c-1.544-1.971-3.429-3.321-5.769-4.518c-3.627-1.855-6.765-4.797-7.774-9.11
		c-3.157-13.512-7.819-26.505-13.282-39.233c-1.503-3.504-2.756-7.148-6.721-8.809c-0.567-0.236-0.866-1.112-1.294-1.699
		c6.331,0.803,9.589-3.165,12.372-7.929c0.738-1.264,0.859-2.52,0.432-3.985c-1.644,1.914-2.878,4.003-4.232,6.014
		c-2.769,4.113-8.316,4.828-10.296-0.515c-0.065-0.174-0.48-0.219-0.752-0.333c-1.741,0.878-1.269,2.094-0.4,3.251
		C411.601,373.334,412.659,374.51,413.671,375.723z M329.722,453.831c0.479,3.145,2.377,5.177,5.092,6.626
		c2.331,1.246,4.578,2.657,6.936,3.847c1.022,0.517,2.279,1.047,3.346,0.914c6.367-0.801,11.078-4.608,16.132-8.8
		c-2.914-1.302-4.491,1.315-6.739,1.136c0.322-1.595,0.601-2.972,0.882-4.362c3.966,1.134,3.966,1.134,5.478-0.788
		c-2.437-1.777-4.954-3.459-7.297-5.357c-2.962-2.399-5.987-3.465-9.729-1.78c-4.797,2.158-9.693,4.101-14.546,6.14
		c-0.675,0.284-1.343,0.586-2.012,0.88c0.223,0.342,0.446,0.682,0.669,1.024c0.623,0.207,1.246,0.416,1.869,0.625L329.722,453.831z
		 M288.566,515.431c0.218,0.038,0.436,0.078,0.653,0.115c0.571-2.392,1.345-4.759,1.672-7.184
		c1.238-9.176,2.545-18.351,3.413-27.565c0.659-6.997,0.684-14.171-1.677-20.846c-4.31-12.179-4.298-25.161-7.596-37.498
		c0.396-8.611-0.499-17.148,2.04-25.801c3.839-13.079,8.778-25.292,18.346-35.242c5.515-5.737,11.144-11.317,18.403-14.955
		c4.603-2.308,9.409-4.444,13.487-7.506c7.24-5.438,15.934-3.544,22.058,0.979c1.418,1.047,2.893,1.98,1.339,4.876
		c2.21-1.085,3.453-1.696,5.17-2.54c-2.423-2.961-5.303-4.63-8.059-5.944c-5.953-2.844-12.206-4.302-18.578-0.741
		c-5.4,3.017-10.814,6.019-16.337,8.793c-10.588,5.315-18.196,13.938-25.269,22.995c-5,6.404-8.154,13.921-10.707,21.665
		c-3.155,9.583-5.368,19.242-3.928,29.432c0.699,4.945,1.292,9.907,1.811,14.875c0.903,8.653,2.437,17.181,5.04,25.484
		c1.861,5.947,3.146,12.087,2.799,18.213c-0.538,9.518-1.998,18.984-3.051,28.476C289.229,508.816,288.909,512.124,288.566,515.431z
		 M400.702,500.792c-3.598-1.928-6.824-3.789-10.177-5.382c-1.094-0.519-2.534-0.54-3.789-0.445
		c-4.387,0.337-8.755,0.915-13.144,1.233c-6.46,0.47-10.562,4.311-13.777,8.687c0.796,6.19,7.423,6.001,9.684,10.778
		c3.435-0.854,6.962-1.764,10.507-2.608c2.216-0.527,4.481-1.405,6.24,0.503c2.764-2.229,5.372-4.124,7.733-6.289
		C396.346,505.097,400.083,504.165,400.702,500.792z M409.846,442.279c-2.016,1.713-2.056,1.896-3.994,1.472
		c-6.854-1.49-11.536,1.768-15.501,6.606c0.997,5.975,5.971,8.228,9.938,11.263c1.723,1.319,3.953,1.154,5.735-0.436
		c2.632-2.351,5.247-4.72,7.825-7.128c2.205-2.058,4.347-4.18,7.137-6.871c-2.328-0.626-3.996-1.663-5.279-1.307
		C412.514,446.764,410.976,445.432,409.846,442.279z M420.334,412.418c-1.051-0.691-1.172-0.839-1.282-0.832
		c-0.869,0.056-1.762,0.036-2.599,0.234c-6.194,1.469-12.252,2.028-18.666,0.417c-3.82-0.959-7.258,1.723-9.771,4.844
		c-0.259,0.322-0.034,1.037-0.034,1.514c0.399,0.085,0.578,0.182,0.669,0.13c0.616-0.353,1.3-0.648,1.804-1.127
		c3.204-3.051,6.815-3.789,10.96-2.187c3.8,1.469,7.56,0.07,11.275-0.491C415.053,414.564,417.3,413.444,420.334,412.418z
		 M319.588,428.132c1.289-1.163,2.061-1.611,2.484-2.279c2.978-4.702,6.984-6.651,12.618-5.51c3.516,0.713,7.006-0.236,10.278-1.658
		c0.74-0.322,1.274-1.118,1.904-1.696c-5.289,1.242-10.318,1.485-15.444,0.807C326.106,417.093,320.7,421.417,319.588,428.132z
		 M369.164,481.118c-2.55,0.336-4.741-1.791-7.081,0.237c0.939,1.966,1.796,3.76,2.749,5.75
		C367.326,486.372,369.119,485.051,369.164,481.118z M379.699,485.578c2.443-1.735,4.407-3.128,7.052-5.008
		c-2.311-0.79-3.862-1.319-5.506-1.883C379.874,480.952,378.797,482.761,379.699,485.578z"/>
	<path fill-rule="evenodd" clip-rule="evenodd" fill="#FFFFFF" d="M298.206,559.238c1.337-10.761,2.99-21.082,3.803-31.47
		c0.805-10.298,0.762-20.662,1.091-30.997c0.338-0.021,0.679-0.043,1.019-0.063c0.072,1.485,0.216,2.972,0.205,4.457
		c-0.05,7.67-0.003,15.302,1.861,22.846c3.229,13.041,9.529,24.333,18.727,34.047c0.585,0.619,1.538,0.894,2.319,1.327
		c0.214-0.23,0.428-0.463,0.641-0.695c-1.444-1.875-2.765-3.862-4.353-5.606c-8.989-9.886-14.557-21.554-16.276-34.644
		c-1.181-8.994-1.254-18.247-0.704-27.313c0.315-5.164,1.561-10.784,6.521-14.604c1.4,2.712,2.909,5.353,4.16,8.109
		c4.252,9.375,10.816,17.134,17.197,25.038c2.582,3.199,5.244,6.363,7.508,9.781c3.96,5.979,9.785,9.683,15.588,13.459
		c1.354,0.882,2.765,1.676,4.129,2.54c2.61,1.652,5.429,2.19,8.415,1.435c5.123-1.298,10.256-1.949,15.592-1.984
		c3.862-0.024,7.732-1.48,11.562-2.435c2.408-0.6,4.945-1.101,7.09-2.26c5.333-2.887,9.052-7.527,11.74-12.817
		c4.5-8.856,10.548-16.663,16.131-24.786c0.223-0.326,0.7-0.477,1.397-0.927c-0.317,1.701-0.565,3.082-0.833,4.458
		c-1.636,8.369-3.67,16.683-4.822,25.117c-1.762,12.903-1.787,25.847,1.732,38.55c1.74,6.283,4.493,12.09,9.254,17.031
		c-3.613,2.97-7.87,3.821-11.884,4.871c-7.234,1.89-14.548,3.747-21.946,4.654c-7.563,0.928-15.29,1.165-22.909,0.855
		c-10.091-0.408-20.149-1.642-30.222-2.523c-0.441-0.038-0.907-0.025-1.316-0.17c-10.19-3.576-21.104-4.964-30.542-10.862
		c-7.114-4.446-14.631-8.241-20.974-13.846C298.78,559.522,298.36,559.335,298.206,559.238z"/>
	<path fill-rule="evenodd" clip-rule="evenodd" fill="#FFFFFF" d="M444.138,476.058c-1.498,0.87-2.149,1.246-3.051,1.77
		c0.806-4.194,1.751-8.019,2.245-11.902c0.873-6.905,0.648-13.768-1.5-20.491c-0.578-1.812-0.732-3.757-1.15-5.623
		c-0.34-1.521-0.373-3.172-2.641-3.474c-0.66-0.088-1.128-1.642-1.359-2.714c12.152,6.556,18.961,16.689,19.989,30.321
		c0.338,4.496-0.214,9.153-0.997,13.626c-2.56,14.632-5.533,29.194-8.116,43.825c-1.766,10.001-3.768,19.991-3.219,30.269
		c0.272,5.071,1.302,9.917,3.125,14.616c0.356,0.92,0.994,1.732,2.034,3.498c0-1.629,0.182-2.306-0.027-2.826
		c-3.506-8.707-4.133-17.748-2.678-26.885c2.149-13.508,4.626-26.961,6.955-40.438c0.497-2.876,0.963-5.756,2.245-8.669
		c0.068,1.433,0.225,2.866,0.189,4.295c-0.268,10.604-0.65,21.204-0.85,31.808c-0.169,9.074,1.699,17.858,4.217,26.519
		c1.152,3.96,2.385,7.896,3.534,11.856c0.153,0.529,0.021,1.143,0.021,2.118c-7.267,3.019-14.58,6.058-22.059,9.164
		c-3.616-3.994-6.329-8.242-8.093-13.156c-2.919-8.135-4.243-16.676-4.101-25.119c0.146-8.603,0.328-17.366,2.693-25.839
		c0.983-3.524,1.341-7.22,2.194-10.786c1.233-5.151,2.599-10.272,4.041-15.37c0.391-1.374,1.165-2.673,1.933-3.899
		C440.945,480.586,442.316,478.713,444.138,476.058z"/>
	<path fill-rule="evenodd" clip-rule="evenodd" fill="#FFFFFF" d="M291.328,557.65c4.619,1.969,4.619,1.969,2.777,6.94
		C292.44,562.673,292.053,560.428,291.328,557.65z"/>
	<path fill-rule="evenodd" clip-rule="evenodd" d="M288.566,515.431c0.342-3.307,0.663-6.614,1.03-9.917
		c1.053-9.492,2.513-18.958,3.051-28.476c0.348-6.125-0.938-12.266-2.799-18.213c-2.603-8.303-4.137-16.832-5.04-25.484
		c-0.519-4.968-1.112-9.931-1.811-14.875c-1.44-10.19,0.772-19.849,3.928-29.432c2.552-7.744,5.706-15.261,10.707-21.665
		c7.072-9.058,14.681-17.68,25.269-22.995c5.522-2.774,10.937-5.776,16.337-8.793c6.372-3.561,12.625-2.103,18.578,0.741
		c2.755,1.314,5.636,2.983,8.059,5.944c-1.717,0.844-2.959,1.455-5.17,2.54c1.554-2.896,0.079-3.829-1.339-4.876
		c-6.124-4.523-14.818-6.417-22.058-0.979c-4.079,3.062-8.885,5.198-13.487,7.506c-7.26,3.638-12.888,9.218-18.403,14.955
		c-9.567,9.95-14.506,22.164-18.346,35.242c-2.538,8.653-1.644,17.19-2.04,25.801c3.298,12.337,3.287,25.319,7.596,37.498
		c2.361,6.674,2.336,13.849,1.677,20.846c-0.867,9.214-2.174,18.389-3.413,27.565c-0.328,2.425-1.102,4.792-1.672,7.184
		C289.002,515.509,288.784,515.469,288.566,515.431z"/>
	<path fill-rule="evenodd" clip-rule="evenodd" d="M329.801,453.936c-0.623-0.209-1.246-0.417-1.869-0.625
		c-0.223-0.342-0.446-0.682-0.669-1.024c0.669-0.293,1.337-0.596,2.012-0.88c4.853-2.04,9.749-3.982,14.546-6.14
		c3.742-1.685,6.767-0.619,9.729,1.78c2.344,1.897,4.86,3.58,7.297,5.357c-1.512,1.922-1.512,1.922-5.478,0.788
		c-0.281,1.39-0.56,2.767-0.882,4.362c2.248,0.18,3.825-2.438,6.739-1.136c-5.054,4.192-9.765,7.999-16.132,8.8
		c-1.067,0.133-2.324-0.397-3.346-0.914c-2.358-1.19-4.604-2.601-6.936-3.847c-2.714-1.449-4.613-3.481-5.078-6.61
		c2.923,1.732,5.835,3.445,9.438,5.564c-0.5-3.294-0.873-5.749-1.264-8.323C334.994,452.112,332.398,453.025,329.801,453.936z
		 M351.127,460.221c0.447-2.822,1.16-5.499,1.21-8.188c0.05-2.59-1.577-3.872-4.187-4.107c-3.027-0.275-6.138,2.059-6.631,4.977
		c-0.52,3.085,1.188,5.863,4.334,6.684C347.366,459.98,348.982,459.978,351.127,460.221z"/>
	<path fill-rule="evenodd" clip-rule="evenodd" d="M400.702,500.792c-0.619,3.374-4.356,4.306-6.723,6.477
		c-2.361,2.165-4.97,4.061-7.733,6.289c-1.759-1.908-4.024-1.03-6.24-0.503c-3.544,0.845-7.072,1.754-10.507,2.608
		c-2.261-4.777-8.888-4.588-9.684-10.778c3.215-4.375,7.317-8.217,13.777-8.687c4.389-0.319,8.757-0.896,13.144-1.233
		c1.255-0.095,2.695-0.074,3.789,0.445C393.878,497.002,397.104,498.864,400.702,500.792z M362.786,506.026
		c1.712,3.877,5.787,4.119,8.375,6.363c0.218,0.188,0.828-0.034,1.242-0.124c3.562-0.771,7.161-1.418,10.67-2.378
		c4.959-1.354,9.391-3.718,13.286-7.667c-2.844-1.741-5.418-3.316-8.122-4.97c-4.491,2.56-9.578,2.031-14.499,2.312
		C368.962,499.832,365.352,501.722,362.786,506.026z"/>
	<path fill-rule="evenodd" clip-rule="evenodd" d="M409.846,442.279c1.13,3.153,2.668,4.485,5.859,3.6
		c1.283-0.356,2.952,0.68,5.279,1.307c-2.79,2.691-4.932,4.813-7.137,6.871c-2.578,2.408-5.193,4.777-7.825,7.128
		c-1.782,1.589-4.012,1.755-5.735,0.436c-3.967-3.035-8.94-5.288-9.938-11.263c3.965-4.838,8.647-8.096,15.501-6.606
		C407.79,444.174,407.83,443.992,409.846,442.279z M400.711,446.903c-1.865,3.368-1.924,6.246,0.529,9.081
		c2.398,2.772,5.546,2.761,6.907-0.588c0.88-2.164,1.5-5.076,0.742-7.092c-0.866-2.31-3.955-1.915-6.296-1.823
		C402.023,446.501,401.463,446.727,400.711,446.903z M397.404,456.054c-0.458-2.925-0.752-4.806-1.124-7.173
		c-1.231,0.958-2.169,1.687-3.524,2.741C394.315,453.107,395.541,454.277,397.404,456.054z M412.231,451.837
		c1.004-0.922,1.771-1.625,2.993-2.747C412.514,448.676,411.369,448.989,412.231,451.837z"/>
	<path fill-rule="evenodd" clip-rule="evenodd" d="M420.334,412.418c-3.035,1.026-5.281,2.146-7.643,2.502
		c-3.715,0.562-7.476,1.96-11.275,0.491c-4.146-1.602-7.756-0.864-10.96,2.187c-0.504,0.479-1.188,0.774-1.804,1.127
		c-0.092,0.052-0.27-0.045-0.669-0.13c0-0.477-0.225-1.191,0.034-1.514c2.513-3.121,5.951-5.803,9.771-4.844
		c6.414,1.611,12.472,1.051,18.666-0.417c0.837-0.198,1.73-0.178,2.599-0.234C419.163,411.58,419.283,411.727,420.334,412.418z"/>
	<path fill-rule="evenodd" clip-rule="evenodd" d="M319.588,428.132c1.112-6.716,6.518-11.04,11.84-10.335
		c5.126,0.678,10.156,0.436,15.444-0.807c-0.63,0.578-1.165,1.374-1.904,1.696c-3.272,1.422-6.763,2.371-10.278,1.658
		c-5.634-1.141-9.641,0.808-12.618,5.51C321.649,426.521,320.876,426.97,319.588,428.132z"/>
	<path fill-rule="evenodd" clip-rule="evenodd" d="M413.671,375.723c-1.012-1.213-2.07-2.389-3.017-3.65
		c-0.869-1.157-1.341-2.373,0.4-3.251c0.272,0.114,0.688,0.159,0.752,0.333c1.98,5.343,7.527,4.628,10.296,0.515
		c1.354-2.011,2.588-4.101,4.232-6.014c0.427,1.465,0.306,2.722-0.432,3.985c-2.783,4.765-6.041,8.732-12.372,7.929
		C413.536,375.576,413.671,375.723,413.671,375.723z"/>
	<path fill-rule="evenodd" clip-rule="evenodd" d="M369.164,481.118c-0.045,3.933-1.837,5.254-4.333,5.987
		c-0.952-1.989-1.809-3.784-2.749-5.75C364.422,479.327,366.613,481.454,369.164,481.118z"/>
	<path fill-rule="evenodd" clip-rule="evenodd" d="M379.699,485.578c-0.902-2.817,0.175-4.626,1.546-6.891
		c1.644,0.563,3.195,1.093,5.506,1.883C384.106,482.45,382.143,483.843,379.699,485.578z"/>
	<path fill-rule="evenodd" clip-rule="evenodd" fill="#FFFFFF" d="M351.127,460.221c-2.146-0.243-3.762-0.241-5.274-0.635
		c-3.146-0.821-4.854-3.598-4.334-6.684c0.493-2.918,3.604-5.252,6.631-4.977c2.61,0.236,4.237,1.518,4.187,4.107
		C352.287,454.722,351.574,457.399,351.127,460.221z"/>
	<path fill-rule="evenodd" clip-rule="evenodd" fill="#FFFFFF" d="M329.801,453.936c2.597-0.911,5.193-1.823,8.109-2.848
		c0.391,2.574,0.763,5.029,1.264,8.323c-3.602-2.119-6.514-3.832-9.438-5.564C329.722,453.831,329.801,453.936,329.801,453.936z"/>
	<path fill-rule="evenodd" clip-rule="evenodd" fill="#FFFFFF" d="M362.786,506.026c2.565-4.304,6.176-6.194,10.953-6.465
		c4.921-0.281,10.008,0.248,14.499-2.312c2.704,1.654,5.278,3.229,8.122,4.97c-3.896,3.949-8.327,6.314-13.286,7.667
		c-3.51,0.96-7.108,1.606-10.67,2.378c-0.414,0.09-1.024,0.312-1.242,0.124C368.573,510.145,364.498,509.903,362.786,506.026z
		 M384.774,503.951c-0.108-0.31-0.215-0.617-0.323-0.927c-5.846,0.184-10.073,1.491-13.32,4.257
		c0.623,0.234,1.177,0.672,1.561,0.555C376.735,506.591,380.75,505.259,384.774,503.951z"/>
	<path fill-rule="evenodd" clip-rule="evenodd" fill="#FFFFFF" d="M400.711,446.903c0.752-0.176,1.312-0.401,1.881-0.423
		c2.342-0.092,5.431-0.486,6.296,1.823c0.758,2.016,0.139,4.929-0.742,7.092c-1.361,3.35-4.509,3.36-6.907,0.588
		C398.787,453.149,398.846,450.271,400.711,446.903z"/>
	<path fill-rule="evenodd" clip-rule="evenodd" fill="#FFFFFF" d="M397.404,456.054c-1.863-1.777-3.089-2.947-4.648-4.432
		c1.355-1.055,2.293-1.784,3.524-2.741C396.652,451.248,396.947,453.129,397.404,456.054z"/>
	<path fill-rule="evenodd" clip-rule="evenodd" fill="#FFFFFF" d="M412.231,451.837c-0.862-2.848,0.283-3.161,2.993-2.747
		C414.002,450.211,413.235,450.915,412.231,451.837z"/>
	<path fill-rule="evenodd" clip-rule="evenodd" d="M384.774,503.951c-4.024,1.309-8.04,2.64-12.083,3.884
		c-0.383,0.117-0.938-0.32-1.561-0.555c3.247-2.766,7.474-4.073,13.32-4.257C384.559,503.333,384.667,503.641,384.774,503.951z"/>
</g>
<g>
	<path fill-rule="evenodd" clip-rule="evenodd" d="M478.318,264.446c1.249-3.8,2.531-6.951,3.303-10.225
		c1.374-5.833,2.268-11.783,3.686-17.605c1.249-5.123,2.926-10.141,4.438-15.196c1.654-5.535,3.338-11.061,5.241-17.356
		c7.181-0.856,15.075-1.822,22.976-2.726c1.63-0.188,3.354,0.134,4.915-0.256c16.698-4.184,33.884-4.855,50.841-7.139
		c13.722-1.847,27.448-3.691,41.205-5.216c7.97-0.885,16.023-0.994,24.013-1.714c8.882-0.801,17.737-1.905,26.606-2.866
		c3.626-0.393,7.248-0.939,10.885-1.086c5.544-0.223,10.742-1.559,15.932-3.503c8.428-3.161,12.363-9.786,12.768-17.941
		c0.545-11.007-0.359-22.082-0.424-33.129c-0.045-7.656,0.31-15.312,0.434-22.97c0.172-10.392,0.15-20.789,0.479-31.173
		c0.37-11.621-1.352-22.981-4.722-33.979c-2.726-8.897-6.291-17.916-15.309-22.387c-6.291-3.118-12.995-5.535-20.165-6.438
		c-12.784-1.611-25.434,0.888-38.162,0.948c-4.814,0.022-9.603,1.911-14.438,2.751c-5.564,0.965-11.146,1.888-16.754,2.519
		c-11.212,1.26-22.461,2.195-33.667,3.501c-4.509,0.524-8.916,1.895-13.421,2.489c-9.01,1.192-18.053,2.119-27.082,3.148
		c-8.499,0.969-16.979,2.187-25.505,2.814c-7.283,0.535-14.618,0.304-21.925,0.585c-2.687,0.103-5.348,0.764-8.032,1.053
		c-2.89,0.311-5.807,0.795-8.688,0.662c-12.935-0.594-25.744,0.706-38.477,2.617c-8.05,1.208-15.164,5.154-21.899,9.564
		c-2.893,1.894-4.407,4.677-5.199,8.462c-3.982,19.042-1.906,38.256-1.888,57.36c0.011,10.461,2.444,20.918,3.795,31.376
		c1.518,11.739,2.488,23.498,0.83,35.529c-0.388-1.064-0.933-2.099-1.126-3.196c-0.25-1.432-0.348-2.917-0.29-4.369
		c0.444-10.832-1.603-21.426-2.885-32.104c-1.086-9.023-2.036-18.081-2.556-27.15c-0.564-9.821-0.66-19.671-0.778-29.51
		c-0.127-10.769,0.932-21.439,2.774-32.062c0.426-2.456,1.407-3.971,3.305-5.268c11.061-7.556,22.944-12.642,36.613-12.936
		c6.329-0.136,12.644-0.818,18.966-1.254c0.729-0.05,1.458-0.145,2.188-0.165c8.735-0.247,17.47-0.6,26.21-0.683
		c7.288-0.07,14.453-0.405,21.687-1.888c6.913-1.417,14.179-1.011,21.234-1.863c12.651-1.526,25.258-3.435,37.896-5.106
		c6.139-0.812,12.307-1.404,18.453-2.168c12.299-1.527,24.738-2.382,36.854-4.831c17.55-3.548,35.192-3.22,52.869-3.114
		c3.179,0.019,6.362,1.285,9.519,2.084c1.219,0.312,2.325,1.105,3.55,1.375c10.825,2.376,17.167,9.694,21.37,19.335
		c4.807,11.024,6.898,22.657,6.951,34.603c0.071,16.817-0.281,33.636-0.287,50.452c-0.008,14.81,0.076,29.622,0.4,44.425
		c0.139,6.307-3.342,11.07-6.09,16.097c-0.898,1.641-3.515,2.578-5.532,3.329c-7.533,2.799-15.249,4.703-23.382,4.926
		c-7.283,0.198-14.688,0.221-21.795,1.59c-10.633,2.049-21.316,2.183-32.023,2.89c-10.501,0.693-20.919,2.603-31.39,3.864
		c-11.757,1.417-23.529,2.692-35.292,4.059c-2.888,0.336-5.805,0.586-8.636,1.213c-11.565,2.549-23.331,3.659-35.042,5.182
		c-3.41,0.444-7.516,0.214-9.951,2.07c-2.192,1.67-2.609,5.747-3.677,8.809c-2.039,5.842-4.114,11.678-5.907,17.597
		c-0.785,2.584-0.852,5.378-1.347,8.057c-0.691,3.731-1.809,7.413-2.147,11.168c-0.549,6.084-3.18,11.438-5.33,16.957
		c-0.402,1.033-1.956,1.916-3.136,2.193c-0.446,0.107-1.576-1.599-1.991-2.641c-1.343-3.372-2.371-6.871-3.751-10.225
		c-5.266-12.778-11.079-25.337-14.493-38.818c-0.796-3.14-2.36-6.086-3.664-9.364c-4.966,0-10.209-0.051-15.45,0.027
		c-1.989,0.028-3.979,0.555-5.958,0.512c-6.746-0.145-13.487-0.528-20.236-0.66c-10.193-0.199-11.417-2.116-13.801-10.147
		c-4.159-14.002-1.553-27.559,5.245-40.368c-1.307,5.643-2.649,11.278-3.912,16.929c-1.73,7.742-2.016,15.425,1.14,22.94
		c1.414,3.368,3.358,5.845,7.354,6.523c5.02,0.85,9.942,2.062,15.093,1.053c1.207-0.236,2.524,0.169,3.793,0.183
		c3.978,0.042,7.959,0.116,11.935,0.02c2.364-0.055,4.724-0.396,7.083-0.626c2.315-0.227,4.664-0.303,6.934-0.765
		c2.466-0.502,4.154,0.254,4.384,2.698c0.834,8.844,4.562,16.852,7.448,25.032c3.425,9.707,7.945,19.027,12.035,28.495
		C476.583,262.905,477.235,263.311,478.318,264.446z"/>
	<path fill-rule="evenodd" clip-rule="evenodd" d="M600.32,125.314c1.532-2.636-2.533-5.744,0.966-8.331
		c2.863,4.603,0.979,11.115,7.383,15.131c0-5.97,0-10.764,0-15.974c3.552,0.319,6.394-1.405,9.253,0.143
		c-0.502,4.166-6.546,1.023-6.535,5.914c2.712,0,5.42,0,8.488,0c-0.509,2.632-1.182,4.045-3.625,3.503
		c-4.693-1.037-4.695-1.028-3.641,4.466c4.514-1.197,9.016-2.39,13.521-3.586c0.138,0.346,0.278,0.692,0.417,1.037
		c-6.703,3.723-14.903,4.752-20.392,10.626c-4.424-0.55-1.835-5.954-5.898-7.9c0.318,2.707,0.562,4.774,0.842,7.169
		c-2.477,0.168-3.037-1.036-3.394-2.825c-0.783-3.917-1.755-7.792-2.632-11.688c-0.566-2.531-1.971-3.285-4.598-2.061
		c0.265,2.986,0.408,6.037,0.847,9.045c0.359,2.44,0.252,5.073,2.527,6.962c0.437,0.363-0.147,1.953-0.31,3.41
		c-3.84-3.04-3.84-3.04-6.032-19.876c-1.592-0.345-3.298-0.995-5.008-1.012c-1.974-0.022-3.049-0.522-3.185-2.728
		c5.731,0.328,11.211,0.643,17.214,0.983C596.933,120.051,597.328,123.321,600.32,125.314z"/>
	<path fill-rule="evenodd" clip-rule="evenodd" d="M511.925,153.02c5.25-1.26,10.078-2.417,14.904-3.577
		c0.071,0.285,0.145,0.568,0.218,0.852c-6.226,2.272-12.45,4.542-18.866,6.886c-3.963-3.695-3.511-8.8-4.809-13.86
		c-1.295,3.92-2.591,7.839-4.188,12.66c-1.98-1.472-3.519-2.614-4.931-3.662c-2.322,1.231,1.09,5.684-3.667,5.566
		c0-1.291-0.158-2.524,0.027-3.702c0.932-5.956,1.954-11.897,3.095-18.756c4.043,4.272,1.951,9.092,3.883,13.257
		c3.095-3.472,1.889-9.005,5.967-11.859c5.538,2.973,1.309,9.407,4.977,13.449c0.564-3.32,1.037-6.166,1.53-9.007
		c0.528-3.06,1.677-5.386,5.209-6.139c2.556-0.546,4.942-1.893,7.941-2.119c-0.583,0.689-1.04,1.579-1.766,2.031
		c-1.858,1.153-3.874,2.045-5.75,3.169c-1.762,1.057-3.338,2.315-1.978,5.225c2.877-0.691,5.778-1.389,8.597-2.069
		c1.2,1.539,1.073,2.669-0.578,3.113c-1.737,0.466-3.561,0.59-5.343,0.894C511.795,146.15,511.176,147.126,511.925,153.02z"/>
	<path fill-rule="evenodd" clip-rule="evenodd" d="M432.54,88.517c-0.742,2.888-1.175,5.889,0.676,8.37
		c2.661,3.568,0.705,6.669,0.353,9.961c-0.364,0.089-0.729,0.178-1.095,0.267c-0.535-0.751-1.443-1.454-1.548-2.259
		c-0.517-3.972-0.684-7.99-1.253-11.953c-0.312-2.167-1.178-4.254-1.979-7.016c0.284-1.133,1.283-3.148,1.189-5.111
		c-0.391-8.185-1.115-16.351-1.707-24.525c-0.046-0.642-0.004-1.292-0.004-2.615c3.513,2.43,3.245,5.66,3.457,8.559
		c0.49,6.726,0.778,13.465,1.167,20.195c0.042,0.714,0.214,1.416,0.368,2.384c1.574,0.304,3.082,0.595,5.055,0.977
		c-0.912-11.121-1.753-21.791-0.14-32.433c0.033-0.217,0.905-0.306,1.73-0.56c0,9.272-0.209,18.312,0.116,27.335
		c0.109,3.055,1.568,6.063,2.634,9.899c-0.163,0.685-1.157,2.514-0.885,4.128c0.961,5.711,2.355,11.349,3.784,17.943
		c-1.164-0.999-2.353-1.51-2.586-2.304c-1.238-4.186-2.286-8.432-3.289-12.682c-0.417-1.764-0.571-3.592-0.825-5.393
		C437.321,88.639,435.578,87.718,432.54,88.517z"/>
	<path fill-rule="evenodd" clip-rule="evenodd" d="M480.104,156.209c-2.344-1.296-4.737-1.722-7.631-0.966
		c-2.812,0.731-5.955,0.174-7.239-3.57c-2.089,1.648-3.757,3.267-5.702,4.424c-2.671,1.59-5.967,0.295-6.44-2.631
		c-0.707-4.377-0.254-8.753,1.853-12.751c0.429-0.814,1.617-1.227,3.126-2.302c-1.405,5.586-4.284,10.33-1.104,16.351
		c1.897-1.799,3.574-3.06,4.834-4.649c2.937-3.711,5.568-7.667,8.525-11.362c2.224-2.779,2.431-2.677,6.273-0.906
		c-6.746,3.622-8.597,7.085-6.937,12.881c1.601-0.97,3.215-1.949,5.187-3.145c-1.095-4.792,2.723-7.172,5.691-9.975
		c1.88-1.775,3.911-1.407,5.626,0.607c1.862,2.181,2.099,4.816,1.365,7.261C486.275,149.675,484.479,153.7,480.104,156.209z
		 M483.673,138.617c-6.465,5.59-7.566,10.633-3.392,14.149C483.477,148.732,486.619,144.782,483.673,138.617z"/>
	<path fill-rule="evenodd" clip-rule="evenodd" d="M675.093,127.448c-0.581-2.482-1.034-4.413-1.623-6.929
		c-2.292,2.288-4.227,4.224-6.578,6.574c-1.14-1.844-1.936-3.131-3.013-4.873c-0.236,2.466-0.435,4.525-0.629,6.559
		c-3.769,5.265-6.425,0.018-9.357-1.13c-3.526,1.117-2.054,7.058-7.435,6.786c0.602-1.28,1.039-2.15,1.424-3.043
		c1.136-2.623,1.758-5.301,2.267-8.16c0.502-2.819,1.572-5.368,0.723-8.334c-0.411-1.428-0.031-1.914,1.846-4.877
		c2.229,5.395,4.284,10.372,6.339,15.352c0.371-0.036,0.742-0.069,1.114-0.103c0.125-5.433,0.505-10.8,3.274-16.168
		c5.153,3.067,2.546,8.34,4.353,12.932c2.247-2.002,4.306-3.833,7.003-6.235c1.559,3.909,3.014,7.566,4.727,11.861
		C677.771,127.575,676.325,127.509,675.093,127.448z"/>
	<path fill-rule="evenodd" clip-rule="evenodd" d="M553.387,92.812c-0.836-2.665-1.672-5.33-2.649-8.438
		c-2.396-0.232-4.856-0.473-7.387-0.718c-1.407,3.001,0.551,4.109,2.437,5.338c-0.717,1.938-1.428,3.869-2.296,6.218
		c-0.687-0.651-1.405-1.013-1.574-1.546c-1.36-4.288-2.859-8.557-3.822-12.94c-0.611-2.777-0.31-5.743-0.529-8.615
		c-0.292-3.811-0.836-7.606-0.963-11.418c-0.042-1.296,0.506-3.208,1.43-3.76c0.823-0.493,2.729,0.202,3.818,0.901
		c2.808,1.802,4.935,4.208,5.932,7.57c2.479,8.362,5.139,16.674,7.608,25.039c0.194,0.657-0.535,1.585-0.836,2.388
		C554.166,92.825,553.775,92.818,553.387,92.812z M549.226,82.194c0.274-8.135-3.569-17.358-8.328-20.718
		c-0.174,0.534-0.493,1.048-0.48,1.552c0.147,5.043,0.263,10.089,0.629,15.119c0.059,0.807,1.173,1.851,2.041,2.219
		C544.894,81.133,546.862,81.519,549.226,82.194z"/>
	<path fill-rule="evenodd" clip-rule="evenodd" d="M431.831,168.383c-2.304-1.777-3.481-2.685-5.033-3.88
		c-0.368,2.389-0.705,4.581-1.04,6.744c-2.131,0.725-3.276,0.252-3.786-1.857c-0.852-3.526-1.811-7.029-2.834-10.511
		c-1.672-5.7-3.432-11.373-5.165-17.093c1.503-1.28,2.323-0.348,2.798,0.996c1.45,4.108,2.832,8.24,4.197,12.377
		c0.5,1.512,0.88,3.062,2.076,4.581c0.129-2.313,0.256-4.628,0.374-6.793c3.586-1.737,3.096,2.384,5.183,3.038
		c0.529-5.756,1.05-11.436,1.59-17.334c0.977,0.156,1.65,0.263,1.639,0.261C431.831,148.521,431.831,157.826,431.831,168.383z"/>
	<path fill-rule="evenodd" clip-rule="evenodd" d="M505.853,86.079c-1.958,2.072-3.599,3.989-5.428,5.705
		c-3.592,3.367-5.798,2.95-7.883-1.537c-0.671-1.447-1.164-3.117-1.191-4.696c-0.053-3.268,0.167-6.552,0.502-9.806
		c0.069-0.662,1.148-1.217,2.214-2.268c1.229,6.28-1.269,12.243,1.795,17.74c3.695-1.454,5.746-3.813,7.426-6.761
		c1.396-2.451,1.575-5.881,5.617-7.843c0,2.134,0.042,3.285-0.009,4.431c-0.111,2.513-0.981,5.359,1.604,7.052
		c3.021,1.976,5.618,0.038,7.955-1.715c1.273-0.957,2.31-2.286,3.274-3.581c1.804-2.429,1.168-4.824-0.475-7.045
		c-1.84-2.482-4.108-1.787-6.38-0.72c-0.771,0.363-1.53,0.753-2.725,1.342c2.666-4.397,5.595-5.55,8.867-3.858
		c3.156,1.63,5.395,7.45,3.51,10.448c-1.61,2.562-3.755,4.993-6.173,6.797c-4.335,3.236-7.734,2.402-11.063-2.027
		C506.883,87.196,506.406,86.71,505.853,86.079z"/>
	<path fill-rule="evenodd" clip-rule="evenodd" d="M464.958,75.562c-4.255,1.987-8.449,3.945-13.063,6.099c0,1.347,0,3.078,0,4.791
		c4.729,0.604,8.69-3.836,13.904-1.75c-1.322,3.9-4.772,2.101-6.935,3.077c-2.259,1.019-4.721,1.594-7.371,2.453
		c1.03,3.144,3.419,3.445,5.683,3.354c2.154-0.087,4.33-0.602,6.413-1.215c2.147-0.635,4.19-1.617,7.199-2.812
		c-4.995,6.882-11.422,6.716-17.88,6.601c-0.214,1.33-0.393,2.451-0.591,3.686c-2.89-1.269-3.414-3.657-3.499-6.012
		c-0.172-4.725-0.045-9.462-0.051-14.196c0-1.773,1.14-3.146,2.604-2.761c3.677,0.968,6.331-1.032,9.197-2.486
		C462.108,73.606,463.491,72.746,464.958,75.562z"/>
	<path fill-rule="evenodd" clip-rule="evenodd" d="M584.21,77.522c3.336-4.746,3.336-4.746,0.6-9.479
		c-2.868,6.808-6.755,12.695-6.51,20.268c-2.901-1.157-3.062-3.507-2.393-5.189c2.613-6.552,5.613-12.95,8.512-19.385
		c0.089-0.197,0.66-0.179,1.313-0.335c2.092,1.544,2.502,4.025,3.118,6.476c0.945,3.755,2.002,4.315,5.847,3.53
		c4.783-0.977,9.569-1.951,15.449-3.151c-2.966,3.147-6.03,3.29-8.782,4.065c-2.941,0.83-5.923,1.525-8.753,2.246
		c-0.843,4.25,3.238,5.185,4.532,7.731c-0.649,1.804-1.784,2.01-2.904,0.816c-1.231-1.312-2.413-2.772-3.207-4.369
		C589.784,78.227,588.138,76.664,584.21,77.522z"/>
	<path fill-rule="evenodd" clip-rule="evenodd" d="M437.272,164.623c-1.135-7.789-2.17-14.881-3.231-22.167c4.67,0,8.717,0,13.489,0
		c-2.756,4.206-6.786,1.86-9.87,3.6c0.061,1.077,0.139,2.426,0.223,3.922c3.778-0.223,7.221-0.444,10.666-0.571
		c0.147-0.004,0.328,0.876,0.625,1.717c-3.595,0.731-7.009,1.425-11.033,2.241c0.613,2.471,1.073,4.315,1.673,6.73
		c2.002-0.999,3.613-1.708,5.127-2.584c1.354-0.783,2.6-1.753,4.206-2.212C447.513,161.046,441.824,161.457,437.272,164.623z"/>
	<path fill-rule="evenodd" clip-rule="evenodd" d="M639.837,125.292c0.723,2.841,1.619,6.342,2.506,9.846
		c0.471,1.86-0.414,2.705-2.801,3.075c-0.285-1.367-0.695-2.656-0.807-3.97c-0.469-5.559-1.32-10.958-4.182-15.936
		c-1.553-2.702-0.401-6.603,1.92-8.282c1.922-1.394,5.609-0.798,8.066,1.304c2.469,2.11,3.27,5.089,1.414,7.794
		C644.476,121.28,642.243,122.921,639.837,125.292z M639.808,121.189c2.578-1.409,4.547-2.708,4.201-5.174
		c-0.369-2.62-2.609-3.662-5.233-4.175C635.698,115.177,638.798,117.705,639.808,121.189z"/>
	<path fill-rule="evenodd" clip-rule="evenodd" d="M567.418,75.678c-2.768,0.907-5.029,0.609-6.007-1.666
		c-1.287-2.988-2.96-6.216,0.004-10.319c0.698,3.605,1.238,6.399,1.849,9.561c5.606-1.244,3.912-8.023,8.572-9.703
		c1.278,1.669,1.04,3.451,0.526,5.127c-2.116,6.906-4.764,13.686-4.768,21.076c0,0.196-0.518,0.39-0.792,0.586
		C564.675,87.618,564.675,87.618,567.418,75.678z"/>
	<path fill-rule="evenodd" clip-rule="evenodd" d="M671.579,111.727c3.479-0.163,6.957-0.326,11.029-0.518
		c0.196,0.33,0.821,1.38,1.657,2.79c1.302-0.884,2.391-1.782,3.62-2.404c1.005-0.506,2.18-0.683,3.279-1.005
		c0.186,0.992,0.636,2.027,0.496,2.97c-0.264,1.777-0.935,3.488-1.32,5.252c-0.828,3.805-1.582,7.625-2.549,12.328
		c-3.85-5.27,0.07-9.566-0.081-13.849c-5.198-2.288-11.163-2.019-16.317-4.337C671.454,112.545,671.517,112.137,671.579,111.727z"/>
	<path fill-rule="evenodd" clip-rule="evenodd" d="M488.151,90.7c-0.685,0.254-1.349,0.62-2.056,0.743
		c-3.216,0.551-6.436,1.07-9.667,1.527c-2.304,0.328-3.702-0.874-3.383-3.078c0.872-6.021,2.025-12,3.111-18.244
		c2.375,1.469,2.331,1.46,1.128,7.97c-0.556,3.003-0.898,6.046-1.396,9.476c3.914,0,7.546,0,11.179,0
		C487.428,89.629,487.789,90.165,488.151,90.7z"/>
	<path fill-rule="evenodd" clip-rule="evenodd" d="M562.447,137.81c0.257,1.917,0.459,3.436,0.653,4.879
		c4.244,0.798,5.274,0.343,6.608-2.732c1-2.304,0.696-4.338-1.434-5.801c-4.019-2.761-6.108,0.885-8.831,2.766
		c0.892-2.866,2.065-5.376,5.415-5.836c3.169-0.437,5.027,1.644,6.891,3.697c1.722,1.898,1.637,3.977,0.466,6.033
		c-0.715,1.258-1.661,2.404-2.609,3.508c-1.835,2.136-5.283,2.616-7.383,1.108C560.264,144.026,560.264,141.986,562.447,137.81z"/>
	<path fill-rule="evenodd" clip-rule="evenodd" d="M538.659,131.534c0.975-1.24,1.465-2.538,2.277-2.788
		c6.649-2.049,13.33-4.146,20.526-2.13C554.149,128.193,546.835,129.77,538.659,131.534z"/>
	<path fill-rule="evenodd" clip-rule="evenodd" d="M559.448,149.858c-2.072,0.389-3.191,0.91-3.51,0.602
		c-1.14-1.097-2.796-2.453-2.834-3.75c-0.136-4.743-2.103-9.578,0.464-14.859c0.832,0.866,1.897,1.461,1.949,2.134
		c0.125,1.586-0.356,3.209-0.37,4.82C555.115,142.684,554.223,146.83,559.448,149.858z"/>
	<path fill-rule="evenodd" clip-rule="evenodd" fill="#FFFFFF" d="M483.673,138.617c2.946,6.166-0.196,10.115-3.392,14.149
		C476.106,149.25,477.208,144.207,483.673,138.617z"/>
	<path fill-rule="evenodd" clip-rule="evenodd" fill="#FFFFFF" d="M549.226,82.194c-2.364-0.676-4.332-1.062-6.139-1.829
		c-0.868-0.368-1.982-1.412-2.041-2.219c-0.366-5.029-0.481-10.076-0.629-15.119c-0.013-0.504,0.306-1.018,0.48-1.552
		C545.657,64.836,549.5,74.059,549.226,82.194z"/>
	<path fill-rule="evenodd" clip-rule="evenodd" fill="#FFFFFF" d="M639.808,121.189c-1.01-3.484-4.109-6.012-1.032-9.349
		c2.624,0.513,4.864,1.555,5.233,4.175C644.354,118.481,642.386,119.78,639.808,121.189z"/>
</g>
<g>
	<path fill-rule="evenodd" clip-rule="evenodd" d="M638.535,455.183c-4.722,1.979-9.334,3.291-13.292,5.689
		c-13.241,8.025-21.001,20.114-25.135,34.883c-2.179,7.796-3.941,15.585-3.879,23.709c0.009,1.37-0.154,2.799,0.168,4.098
		c2.598,10.442,4.445,21.176,8.197,31.192c3.659,9.767,10.186,18.186,17.623,25.656c1.436,1.439,3.235,2.552,4.986,3.628
		c8.699,5.352,18.072,9.58,27.993,11.427c12.516,2.331,24.922,0.974,36.095-6.164c9.145-5.842,17.002-12.854,20.816-23.375
		c1.922-5.303,3.454-10.746,5.158-16.127c0.051-0.161,0.042-0.348,0.113-0.503c5.451-12.23,3.391-24.605,0.281-36.829
		c-2.506-9.844-6.711-18.907-13.02-27.142c-9.33-12.186-21.773-19.604-35.535-25.369c-1.264-0.531-2.619-0.919-3.77-1.635
		c-8.079-5.03-17.052-5.888-26.248-5.777c-2.392,0.029-4.788,0.004-7.827,0.004c1.642-2.19,3.492-2.216,5.209-2.245
		c10.337-0.181,20.229,0.711,30.021,5.32c9.847,4.633,19.579,9.267,28.237,15.801c10.602,8.008,18.429,18.217,22.597,31.014
		c1.217,3.744,3.182,7.376,3.664,11.204c1.1,8.654,1.708,17.39,2.039,26.111c0.109,2.774-1.405,5.584-1.959,8.421
		c-1.218,6.247-3.207,12.234-5.809,18.026c-3.031,6.738-6.703,12.868-12.428,17.923c-6.56,5.798-13.636,10.214-21.93,13.002
		c-5.854,1.969-11.78,2.277-17.795,2.122c-13.799-0.359-26.008-5.759-37.508-12.724c-8.402-5.091-13.926-13.111-18.949-21.368
		c-5.503-9.043-8.81-18.897-10.564-29.312c-0.793-4.718-2.232-9.372-2.564-14.11c-0.734-10.602,1.62-20.819,5.209-30.723
		c1.624-4.486,3.681-8.834,5.775-13.13c2.74-5.626,6.064-10.784,11.974-13.743c1.489-0.745,2.85-1.98,3.933-3.271
		c3.433-4.094,8.335-5.254,13.035-6.82C635.409,453.395,636.874,454.626,638.535,455.183z"/>
	<path fill-rule="evenodd" clip-rule="evenodd" d="M625.542,502.684c-3.052,5.402-3.963,10.854-4.021,16.688
		c4.025,2.342,4.974,6.055,4.604,10.654c-2.758-1.247-2.544-5.98-6.841-4.9c0.298,5.798,1.49,11.011,8.276,13.447
		c-4.336,1.087-6.208,0.705-7.856-2.395c-2.414-4.528-4.512-9.283-2.842-14.688c0.243-0.801,0.629-1.745,0.42-2.472
		c-2.771-9.603,1.007-17.592,5.993-25.358c0.886-1.378,1.595-3.047,1.805-4.656c0.81-6.236,3.807-11.327,7.907-15.864
		c4.104-4.544,13.715-6.768,20.133-3.987c4.298,1.863,8.545,2.417,12.989,2.084c12.171-0.913,20.142,7.884,23.117,18.672
		c0.897,3.257,0.776,6.789,1.226,10.182c0.482,3.682,1.175,7.337,1.607,11.023c0.243,2.051,1.003,3.352,2.976,4.307
		c1.012,0.491,1.893,2.061,2.099,3.271c0.654,3.781-0.088,7.48-1.527,11.017c-0.135,0.338-0.811,0.458-2.082,1.116
		c0.424-4.144,0.789-7.694,1.162-11.351c-1.712-0.658-3.072-1.179-3.42-1.313c-1.68-4.621-2.829-8.47-4.504-12.074
		c-0.65-1.406-2.309-2.705-3.807-3.293c-4.755-1.867-9.762-3.114-14.471-5.085c-7.748-3.244-15.537-1.049-23.318-0.724
		c-3.752,0.157-7.182,1.486-9.586,4.346C632.604,504.873,629.554,506.159,625.542,502.684z M687.141,501.043
		c0-1.396,0.013-2.93-0.004-4.466c-0.097-8.784-4.063-15.688-11.425-19.992c-8.096-4.736-16.75-3.144-24.568,0.938
		c-8.256,4.306-13.762,11.657-18.375,19.61c-0.428,0.736-0.537,1.657-1.028,3.261c2.875-1.867,4.814-3.655,7.102-4.521
		c8.234-3.107,16.977-3.118,25.358-1.725C671.969,495.44,679.423,498.643,687.141,501.043z M652.003,471.841
		c-2.484,0-4.973-0.087-7.453,0.019c-4.281,0.185-7.756,1.807-10.594,5.255c-3.873,4.704-5.057,10.362-6.362,15.99
		c-0.172,0.745,1.213,1.851,2.296,3.381C635.899,486.439,642.741,478.322,652.003,471.841z"/>
	<path fill-rule="evenodd" clip-rule="evenodd" d="M690.062,531.763c-0.185,1.786-0.117,3.643-0.592,5.347
		c-2.174,7.754-4.528,15.458-6.762,23.192c-1.188,4.103-2.262,8.237-3.546,12.938c-3.546,0.787-7.504,1.662-12.07,2.676
		c1.414,2.774,2.846,5.391,4.054,8.106c0.286,0.638-0.18,1.611-0.369,2.888c-4.113-2.984-4.654-7.341-6.766-11.085
		c-6.052-0.946-12.271-1.918-19.083-2.983c-1.423,4.625-2.741,8.916-4.059,13.208c-0.361-0.053-0.727-0.104-1.091-0.153
		c0.108-1.669-0.06-3.412,0.386-4.986c1.343-4.744,0.437-9.131-1.444-13.521c-1.754-4.088-4.05-8.159-4.704-12.45
		c-0.953-6.229-3.072-11.977-6.166-18.639c1.973,0.59,3.202,0.588,3.509,1.118c1.016,1.768,1.784,3.695,2.506,5.613
		c2.358,6.263,4.617,12.56,6.988,18.815c1.968,5.2,5.426,8.751,11.243,9.17c3.966,0.288,7.865,3.028,11.974,0.387
		c0.37-0.237,1.242,0.314,1.881,0.491c5.792,1.582,9.858-0.157,11.643-5.644c2.707-8.304,4.998-16.741,7.458-25.125
		c0.772-2.634,1.469-5.292,2.32-7.898c0.231-0.707,0.898-1.271,1.368-1.901C689.181,531.473,689.621,531.618,690.062,531.763z"/>
	<path fill-rule="evenodd" clip-rule="evenodd" d="M651.651,553.23c0.188-5.607,4.41-6.304,7.844-7.196
		c3.975-1.032,8.163-0.612,12.088,0.842c0.775,0.29,1.548,1.273,1.774,2.09c0.126,0.453-0.784,1.647-1.389,1.782
		c-5.96,1.319-11.94,2.535-17.942,3.632C653.376,554.5,652.554,553.689,651.651,553.23z"/>
	<path fill-rule="evenodd" clip-rule="evenodd" d="M683.615,513.564c-4.059,2.109-3.673,7.527-8.692,7.557
		c-0.079,1.574-0.146,2.894-0.227,4.466c-0.86,0-1.729,0.254-2.052-0.057c-0.546-0.529-0.751-1.412-1.096-2.151
		c-1.188-2.566-2.371-5.133-3.752-8.125c0.528-0.354,1.611-0.806,2.296-1.604c0.894-1.049,1.368-3.286,2.211-3.385
		c1.91-0.225,3.971,0.426,5.901,0.964C679.67,511.639,681.03,512.425,683.615,513.564z"/>
	<path fill-rule="evenodd" clip-rule="evenodd" d="M629.453,521.455c5.905-5.167,12.192-8.212,20.024-7.321
		c1.464,3.831-2.137,2.719-3.786,3.687c0.172,0.64,0.495,1.273,0.487,1.899c-0.063,3.439-1.524,4.755-4.814,3.938
		c-1.931-0.48-3.697-1.609-6.287-2.784C633.881,520.788,632.37,524.099,629.453,521.455z"/>
	<path fill-rule="evenodd" clip-rule="evenodd" d="M658.693,542.268c-1.813-3.523-1.83-5.271-0.013-5.73
		c0.793-0.202,2.271,0.424,2.736,1.135C662.798,539.781,662.282,540.545,658.693,542.268z"/>
	<path fill-rule="evenodd" clip-rule="evenodd" d="M667.415,539.653c-1.523-0.582-2.72-0.681-2.946-1.2
		c-0.487-1.123-0.562-2.46-0.579-3.713c-0.004-0.207,1.502-0.782,1.683-0.59c0.747,0.781,1.355,1.748,1.801,2.743
		C667.612,537.433,667.415,538.165,667.415,539.653z"/>
	<path fill-rule="evenodd" clip-rule="evenodd" fill="#FFFFFF" d="M687.141,501.043c-7.718-2.4-15.172-5.603-22.94-6.894
		c-8.382-1.394-17.124-1.383-25.358,1.725c-2.287,0.865-4.227,2.653-7.102,4.521c0.491-1.604,0.601-2.524,1.028-3.261
		c4.613-7.953,10.119-15.305,18.375-19.61c7.818-4.082,16.473-5.675,24.568-0.938c7.361,4.304,11.328,11.208,11.425,19.992
		C687.153,498.113,687.141,499.647,687.141,501.043z"/>
	<path fill-rule="evenodd" clip-rule="evenodd" fill="#FFFFFF" d="M652.003,471.841c-9.262,6.481-16.104,14.599-22.113,24.645
		c-1.083-1.53-2.468-2.636-2.296-3.381c1.306-5.628,2.489-11.286,6.362-15.99c2.838-3.448,6.312-5.07,10.594-5.255
		C647.03,471.754,649.519,471.841,652.003,471.841z"/>
</g>
<g>
	<path fill-rule="evenodd" clip-rule="evenodd" d="M116.787,531.769c5.898-2.483,12.162-4.168,18.605-4.638
		c7.874-0.571,15.785-0.603,23.681-0.867c10.116-0.342,19.252,3.089,28.135,7.403c3.012,1.465,5.862,3.256,8.855,4.766
		c5.853,2.948,10.444,7.508,15.434,11.604c6.07,4.984,11.226,10.713,15.846,16.994c3.219,4.374,5.992,8.928,7.866,14.137
		c3.557,9.876,5.61,19.891,5.062,30.431c-0.256,4.916,0.378,9.905-0.189,14.766c-0.535,4.582-2.116,9.041-3.245,13.553
		c-1.774,7.076-4.882,13.59-8.121,20.096c-3.708,7.448-9.294,13.269-14.994,19.115c-5.61,5.757-12.328,9.765-19.396,13.325
		c-3.566,1.798-7.027,3.88-10.74,5.287c-6.02,2.277-12.449,2.175-18.786,2.394c-1.944,0.066-3.897-0.061-5.841,0.021
		c-7.576,0.32-14.862-0.702-22.191-2.955c-8.72-2.68-17.107-6.043-24.975-10.488c-4.448-2.512-8.446-6.031-12.135-9.621
		c-4.62-4.499-9.021-9.299-12.97-14.393c-6.863-8.85-12.085-18.633-14.864-29.586c-1.208-4.753-2.794-9.441-3.569-14.261
		c-1.042-6.491-0.614-13.058,0.059-19.617c0.902-8.814,3.198-17.261,5.899-25.646c1.966-6.109,5.692-10.971,10.298-15.283
		c8.79-8.231,19.058-14.271,29.666-19.727c2.923-1.504,6.348-2.164,9.622-2.803c1.647-0.321,3.473,0.272,5.218,0.453
		c-0.001,0.297-0.003,0.593-0.005,0.89c-0.622,0-1.246,0.037-1.864-0.007c-6.123-0.455-11.454,1.975-16.463,4.959
		c-6.439,3.837-12.747,7.929-18.88,12.241c-4.557,3.204-8.777,7.001-11.736,11.761c-2.089,3.359-3.649,7.13-4.936,10.892
		c-4.176,12.227-6.369,24.8-5.447,37.762c0.238,3.337,0.726,6.739,1.717,9.92c2.336,7.509,4.42,15.195,7.764,22.262
		c3.857,8.148,8.778,15.838,15.319,22.269c3.42,3.363,6.798,6.774,10.307,10.043c6.669,6.211,14.837,9.919,23.219,12.999
		c6.775,2.491,13.834,4.216,20.78,6.241c0.729,0.211,1.537,0.208,2.31,0.208c9.054-0.007,18.134,0.242,27.064-1.616
		c2.896-0.601,5.914-1.251,8.495-2.607c7.537-3.96,15.38-7.479,21.823-13.244c8.657-7.742,16.086-16.341,21.128-27.035
		c4.192-8.895,6.313-18.304,8.639-27.699c0.52-2.099,0.444-4.386,0.374-6.579c-0.258-8.019,0.323-16.218-1.189-24.005
		c-2.118-10.905-5.88-21.363-13.28-30.271c-5.338-6.424-11.286-12.067-17.514-17.551c-9.417-8.287-20.356-13.664-32.108-17.604
		c-3.422-1.148-6.918-2.082-10.39-3.083c-0.485-0.139-1.026-0.137-1.537-0.116c-3.747,0.145-7.49,0.425-11.234,0.451
		c-11.174,0.079-22.208,1.26-33.075,3.901C117.807,531.725,117.291,531.718,116.787,531.769z"/>
	<path fill-rule="evenodd" clip-rule="evenodd" d="M133,590.179c-1.771-2.124-1.37-4.393-0.744-6.583
		c1.493-5.249,4.996-9.3,8.312-13.438c0.555-0.69,1.414-1.134,2.132-1.691c-0.086-0.279-0.171-0.557-0.256-0.834
		c-2.169-0.222-4.335-0.577-6.504-0.592c-0.748-0.007-1.749,0.668-2.206,1.328c-1.236,1.792-2.313,3.704-3.315,5.641
		c-0.743,1.438-1.265,2.986-1.888,4.488c-0.24-0.079-0.481-0.155-0.721-0.231c0.75-2.645,1.5-5.29,2.434-8.578
		c-2.583,2.513-2.921,5.316-3.541,8.106c-1.641-1.585-1.845-2.523-0.231-5.761c1.002-2.013,2.447-4.003,4.182-5.398
		c1.633-1.314,3.903-1.838,5.806-2.669c-0.53-3.704,1.384-6.516,4.891-6.978c4.28-0.564,8.608-0.771,13.008-0.757
		c-1.123,0.348-2.244,0.694-3.561,1.1c4.836,2.716,4.781,2.433,9.7,1.478c7.287-1.411,14.468-1.084,20.857,3.381
		c1.034,0.722,1.887,1.747,2.663,2.757c0.236,0.309-0.065,1.033-0.215,2.483c-2.95-4.475-6.897-6.403-10.95-7.162
		c-4.209-0.789-8.681-0.176-13.273,0.524c2.989,1.536,5.941,3.155,8.983,4.584c3.061,1.437,6.208,2.684,10.036,4.318
		c0.778-0.11,2.43-0.453,4.096-0.553c2.661-0.159,5.476-0.757,7.483,1.859c0.204,0.266,0.664,0.417,1.026,0.463
		c4.199,0.537,5.769,3.51,6.619,7.127c1.606,6.82,2.219,13.784,2.615,20.746c0.133,2.351-0.771,4.765-1.202,7.149
		c-0.182,1.009-0.704,2.104-0.481,3.015c0.89,3.622,0.17,7.216-0.168,10.76c-0.329,3.415-0.188,6.65,0.877,9.883
		c0.242,0.735,0.299,1.525,0.509,2.271c0.372,1.308,0.208,2.57-1.308,2.604c-1.198,0.026-1.578-0.86-1.715-2.366
		c-0.551-6.076-0.04-12.115-0.077-18.159c-0.026-4.182-0.47-8.192,1.249-12.124c0.197-0.448,0.136-1.023,0.126-1.54
		c-0.141-7.776-0.957-15.459-2.971-22.999c-0.658-2.458-1.952-3.824-4.981-3.885c-0.476,6.432,0.586,13.021-1.718,19.148
		c-0.29-0.041-0.582-0.082-0.871-0.123c0.267-1.604,0.729-3.206,0.767-4.817c0.11-4.728,0.009-9.463,0.083-14.192
		c0.029-1.821-1.089-2.676-2.515-2.945c-1.218-0.23-2.544,0.115-3.822,0.206c-6.841,0.496-13.561,1.058-20.199-1.996
		c-3.907-1.797-8.325-2.521-12.875-2.12c-3.942,0.349-6.358,2.699-8.614,5.34c-1.84,2.152-3.37,4.592-4.902,6.99
		C133.551,582.691,132.855,586.322,133,590.179z M154.254,561.386c-6.887-3.318-12.503-1.951-15.946,3.563
		C143.935,565.665,149.126,565.319,154.254,561.386z M154.02,562.785c-0.05,0.358-0.103,0.718-0.153,1.078
		c5.566,2.883,11.577,4.512,17.762,5.732c-4.429-2.673-9.027-4.942-13.741-6.935C156.807,562.206,155.32,562.719,154.02,562.785z
		 M141.639,559.46c-2.699,0.519-2.699,0.519-3.176,2.543C139.657,561.048,140.649,560.253,141.639,559.46z"/>
	<path fill-rule="evenodd" clip-rule="evenodd" d="M137.038,624.856c5.638-5.039,6.117-5.201,10.231-3.125
		c-0.874,0.367-1.455,0.804-2.052,0.828c-4.645,0.195-6.727,2.605-5.933,7.212c0.211,1.23-0.931,2.787,0.775,3.698
		c-0.444,0.592-0.766,1.411-1.357,1.73c-2.162,1.167-4.455,2.092-6.621,3.249c-2.808,1.503-5.541,3.144-8.86,5.041
		c-0.383-0.4-1.743-1.155-1.921-2.125c-0.784-4.321-3.192-7.521-6.782-10.658c5.507-5.064,12.213-7.232,19.617-9.013
		C134.835,622.459,135.938,623.659,137.038,624.856z M136.225,630.613c-0.179-1.568-0.527-2.88-2.219-1.787
		c-0.257,0.167-0.402,0.508-0.664,0.853C134.375,630.016,135.299,630.312,136.225,630.613z M121.631,634.084
		c0.284,2.233,0.284,2.233,1.699,1.533C122.732,635.077,122.182,634.581,121.631,634.084z"/>
	<path fill-rule="evenodd" clip-rule="evenodd" d="M153.139,628.554c-3.205-4.641-4.969-10.171-8.194-14.964
		c5.16-5.123,11.845-6.956,17.977-9.781c0.91-0.421,4.078,1.506,4.659,3.008c1.371,3.554,2.53,7.191,3.882,11.108
		c-2.99,0.066-4.914,1.52-6.96,3.188c-2.247,1.829-5.205,2.768-7.755,4.261C155.637,626.023,154.769,627.091,153.139,628.554z
		 M153.763,623.598c0.252-0.224,0.504-0.448,0.756-0.674c-1.655-2.812-3.31-5.626-4.906-8.343c2.702-2.79,5.607-4.559,9.763-5.1
		c-0.932-0.62-1.465-1.19-1.687-1.086c-2.778,1.285-5.601,2.513-8.218,4.082c-1.482,0.889-1.651,2.4-0.56,4.024
		c1.217,1.812,2.149,3.815,3.301,5.677C152.566,622.753,153.236,623.132,153.763,623.598z"/>
	<path fill-rule="evenodd" clip-rule="evenodd" d="M183.172,598.916c1.534,7.259-0.471,13.541-2.313,19.917
		c-2.365-0.586-2.4-1.995-2.08-3.467c2.082-9.641-2.912-15.716-10.326-20.57c-1.178-0.771-2.417-1.451-3.63-2.175
		c-1.612,0.986-3.105,1.9-5.231,3.2c0.607-3.363,3.125-4.008,4.646-5.508c1.75-1.73,3.582-3.384,5.264-5.178
		c1.528-1.628,2.899-3.4,4.517-4.962c-0.715,4.693-4.759,7.013-7.488,10.84c6.156,3.727,11.49,8.438,14.386,15.494
		c1.25-2.662,1.25-2.662-1.105-10.923c0.183-0.168,0.438-0.52,0.545-0.478c3.213,1.207,6.462,2.339,9.57,3.78
		c0.692,0.32,0.988,1.709,1.273,2.665c1.501,5.043,0.229,9.999-0.604,14.955c-0.27,1.604-0.758,3.173-1.238,5.129
		c-1.989-0.518-3.637-0.946-5.25-1.367c0.077-1.91,1.19-1.841,2.169-2.131c0.786-0.231,1.971-0.71,2.108-1.286
		c1.051-4.401,1.85-8.824,0.987-13.41C188.769,600.229,186.484,599.543,183.172,598.916z"/>
	<path fill-rule="evenodd" clip-rule="evenodd" d="M193.519,624.96c-0.554,0.78-1.006,1.666-1.677,2.326
		c-5.353,5.26-10.039,11.014-14.22,17.282c-2.691,4.038-6.385,7.407-9.66,11.049c-0.859,0.955-1.958,1.722-2.697,2.752
		c-0.47,0.658-0.829,1.742-0.633,2.472c0.768,2.857,1.657,5.694,2.751,8.439c0.423,1.062,1.514,1.854,2.453,2.947
		c-1.099,0.939-2.215,0.772-2.846-0.314c-1.154-1.987-2.09-4.107-3.007-6.22c-0.503-1.163-0.782-2.426-1.299-4.081
		c-1.421,0.965-2.629,1.671-3.706,2.537c-2.163,1.748-4.245,1.278-6.462,0.097c-3.887-2.068-6.602-5.34-9.24-8.707
		c-2.23-2.843-4.401-5.728-6.657-8.547c-0.846-1.06-1.409-1.948,0.707-2.91c1.601,2.137,3.216,4.403,4.949,6.577
		c2.486,3.123,5.027,6.201,7.62,9.235c0.566,0.664,1.475,1.026,2.18,1.585c3.989,3.171,9.34,0.047,9.563-4.201
		c1.558-0.968,3.029-1.661,4.229-2.672c3.569-3.007,6.275-6.716,9.052-10.484c4.893-6.635,10.585-12.68,15.989-18.933
		c0.424-0.49,1.212-0.661,1.832-0.981C192.999,624.458,193.258,624.709,193.519,624.96z"/>
	<path fill-rule="evenodd" clip-rule="evenodd" d="M116.376,607.366c0.258,1.2,0.778,2.41,0.721,3.593
		c-0.154,3.237,2.232,6.146,1.499,9.871c-3.171-1.519-2.449-4.408-3.556-6.612c-2.578,3.711-2.22,8.086-2.572,12.787
		c-1.031-0.749-1.548-0.942-1.763-1.311c-7.557-12.891-8.288-26.104-1.753-39.613c2.597-5.369,5.375-10.642,9.803-14.804
		c2.339-2.2,4.874-4.089,8.226-4.746c-12.76,8.465-18.888,20.796-20.655,35.474c-0.849,7.039,1.111,13.835,4.32,18.202
		c1.976-4.189,2.285-8.929,4.496-12.913C115.551,607.318,115.964,607.342,116.376,607.366z"/>
	<path fill-rule="evenodd" clip-rule="evenodd" d="M144.794,589.409c-1.576-7.1,2.059-11.707,6.422-15.677
		c2.295-2.091,5.178-4.221,9.266-2.048c-0.346,0.126-0.687,0.345-1.039,0.364c-7.726,0.456-12.587,7.656-13.323,13.538
		c-0.14,1.132,0.557,2.373,0.886,3.635c-6.494,5.066-10.781,11.845-13.453,19.724c-0.208,0.608-0.169,1.335-0.483,1.866
		c-0.283,0.484-1.068,1.183-1.32,1.073c-0.584-0.255-1.382-0.933-1.391-1.454c-0.086-4.293,0.344-8.537,2.196-12.48
		c0.272-0.579,1.207-0.847,2.535-1.719c-1.123,3.193-1.935,5.494-2.746,7.798c0.268,0.144,0.536,0.282,0.802,0.423
		C135.9,598.527,139.867,593.576,144.794,589.409z"/>
	<path fill-rule="evenodd" clip-rule="evenodd" d="M140.377,608.934c-2.322-2.659-0.657-4.739-0.24-7.324
		c2.087,1.287,3.447,0.337,4.746-1.011c3.295-3.418,6.735-6.703,9.905-10.232c1.308-1.458,2.071-3.4,3.694-5.003
		c0.053,0.642,0.356,1.398,0.116,1.898c-0.78,1.625-1.567,3.312-2.695,4.694c-3.161,3.882-6.107,7.951-10.46,10.748
		c-1.438,0.924-2.268,2.79-3.387,4.217C141.602,607.5,141.116,608.052,140.377,608.934z"/>
	<path fill-rule="evenodd" clip-rule="evenodd" d="M123.877,618.744c-1.988-0.188-2.371-1.637-2.173-3.232
		c0.316-2.547,0.744-5.095,1.325-7.595c0.642-2.755,1.448-5.476,2.303-8.177c0.402-1.276,1.083-2.463,1.743-3.92
		c1.881,2.4,2.075,4.257,0.465,5.507c-1.394,1.084-1.765,2.393-2.057,3.952c-0.449,2.401-1.228,4.75-1.553,7.165
		C123.67,614.369,123.877,616.355,123.877,618.744z"/>
	<path fill-rule="evenodd" clip-rule="evenodd" d="M144.408,627.524c0.623,0.436,1.476,0.737,1.817,1.336
		c0.499,0.871,0.739,1.936,0.899,2.948c0.402,2.554,0.685,5.126,3.917,6.457c-1.342,1.206-2.155,1.938-2.95,2.654
		c-3.253-1.243-1.401-4.187-2.396-6.112c-1.033-1.999-1.38-4.354-2.025-6.553C143.917,628.013,144.161,627.769,144.408,627.524z"/>
	<path fill-rule="evenodd" clip-rule="evenodd" d="M153.813,648.294c4.292-2.687,9.157-3.98,13.768-5.801
		c1.056,1.557,0.428,2.426-0.578,2.82c-3.45,1.35-6.94,2.609-10.456,3.781c-0.797,0.266-1.756,0.04-2.644,0.04
		C153.874,648.853,153.843,648.574,153.813,648.294z"/>
	<path fill-rule="evenodd" clip-rule="evenodd" d="M184.137,640.256c3.062,5.009,6.125,10.02,9.357,15.305
		c-2.074-0.585-2.099-0.57-6.367-6.808c-1.705-2.491-3.562-4.947-4.407-7.844C183.192,640.691,183.666,640.473,184.137,640.256z"/>
	<path fill-rule="evenodd" clip-rule="evenodd" d="M162.248,587.693c-2.633-4.288-0.688-8.01,1.271-11.68
		c0.993-1.861,2.048-3.866,5.497-3.26C163.865,576.766,161.952,581.711,162.248,587.693z"/>
	<path fill-rule="evenodd" clip-rule="evenodd" fill="#FFFFFF" d="M154.254,561.386c-5.127,3.934-10.319,4.279-15.946,3.563
		C141.75,559.435,147.367,558.067,154.254,561.386z"/>
	<path fill-rule="evenodd" clip-rule="evenodd" fill="#FFFFFF" d="M154.02,562.785c1.3-0.066,2.787-0.579,3.868-0.124
		c4.714,1.992,9.312,4.262,13.741,6.935c-6.185-1.221-12.196-2.85-17.762-5.732C153.917,563.503,153.969,563.144,154.02,562.785z"/>
	<path fill-rule="evenodd" clip-rule="evenodd" fill="#FFFFFF" d="M141.639,559.46c-0.99,0.793-1.982,1.588-3.176,2.543
		C138.94,559.979,138.94,559.979,141.639,559.46z"/>
	<path fill-rule="evenodd" clip-rule="evenodd" fill="#FFFFFF" d="M136.225,630.613c-0.926-0.302-1.849-0.598-2.883-0.935
		c0.262-0.345,0.407-0.686,0.664-0.853C135.697,627.733,136.045,629.045,136.225,630.613z"/>
	<path fill-rule="evenodd" clip-rule="evenodd" fill="#FFFFFF" d="M121.631,634.084c0.551,0.497,1.101,0.993,1.699,1.533
		C121.915,636.317,121.915,636.317,121.631,634.084z"/>
	<path fill-rule="evenodd" clip-rule="evenodd" fill="#FFFFFF" d="M153.763,623.598c-0.526-0.466-1.197-0.845-1.551-1.419
		c-1.152-1.861-2.084-3.865-3.301-5.677c-1.091-1.624-0.922-3.136,0.56-4.024c2.617-1.569,5.44-2.797,8.218-4.082
		c0.222-0.104,0.755,0.466,1.687,1.086c-4.155,0.541-7.061,2.31-9.763,5.1c1.596,2.717,3.251,5.53,4.906,8.343
		C154.267,623.149,154.015,623.374,153.763,623.598z"/>
</g>
<g>
	<path fill-rule="evenodd" clip-rule="evenodd" d="M88.455,240.482c-0.186,0.084-0.368,0.237-0.556,0.242
		c-5.636,0.152-10.782,2.329-16.048,3.955c-2.734,0.843-5.404,1.943-8.017,3.121c-9.341,4.21-18.06,9.47-25.396,16.664
		c-5.275,5.172-10.106,10.8-12.511,18.041c-0.387,1.169-0.829,2.341-1.417,3.419c-2.986,5.474-4.615,11.419-5.961,17.434
		c-0.823,3.673-1.872,7.348-1.622,11.189c0.008,0.103,0.006,0.207,0,0.309c-0.53,9.483,0.711,18.854,1.827,28.228
		c0.544,4.572,1.047,9.164,1.932,13.676c1.602,8.153,5.017,15.586,9.668,22.46c1.38,2.04,2.687,4.132,4.087,6.158
		c3.029,4.39,7.201,7.594,11.389,10.753c4.758,3.591,9.604,7.066,14.382,10.629c3.915,2.918,8.408,4.759,12.82,6.658
		c7.064,3.042,14.256,5.801,21.469,8.475c2.579,0.956,5.352,1.497,8.084,1.903c3.335,0.493,6.725,0.604,10.083,0.952
		c5.621,0.586,10.98-1.263,16.489-1.696c5.635-0.442,10.752-2.594,15.884-4.712c3.514-1.45,6.986-3.008,10.538-4.359
		c6.435-2.449,12.17-5.94,16.801-11.078c3.44-3.815,6.853-7.662,10.112-11.631c4.717-5.742,7.628-12.433,9.352-19.594
		c1.584-6.586,3.32-13.197,4.091-19.899c0.662-5.775,0.134-11.699-0.019-17.553c-0.077-2.971-0.535-5.93-0.732-8.901
		c-0.389-5.851-0.946-11.666-2.658-17.317c-0.594-1.963-1.058-3.97-1.533-5.967c-1.592-6.703-5.171-12.487-8.345-18.481
		c-3.657-6.911-9.202-12.307-13.978-18.334c-7.699-9.714-17.8-16.073-28.654-21.423c-2.911-1.435-6.223-2.1-9.396-2.948
		c-8.661-2.315-17.324-0.893-25.951,0.266c-7.225,0.97-14.414,2.214-21.625,3.3c-1.081,0.162-2.191,0.121-3.357-0.315
		c7.351-1.275,14.705-2.535,22.051-3.831c6.902-1.217,13.836-2.04,20.863-1.742c6.855,0.29,13.34,1.902,19.59,4.854
		c6.942,3.277,13.151,7.623,19.119,12.329c2.642,2.083,4.968,4.615,7.214,7.142c3.136,3.528,6.012,7.288,9.092,10.866
		c5.166,5.997,8.664,12.982,11.886,20.103c4.273,9.442,6.334,19.436,6.989,29.76c0.402,6.352,1.119,12.684,1.469,19.035
		c0.368,6.71-0.951,13.276-2.301,19.802c-0.83,4.013-1.804,8.006-2.948,11.939c-2.356,8.106-6.271,15.479-11.881,21.743
		c-4.775,5.331-9.149,11.24-15.547,14.821c-4.378,2.451-9.003,4.493-13.629,6.459c-4.804,2.043-9.694,3.918-14.64,5.584
		c-2.7,0.909-5.573,1.413-8.41,1.781c-5.081,0.661-10.104,1.896-15.298,1.58c-7.494-0.455-14.854-1.138-21.987-4.031
		c-4.627-1.876-9.49-3.24-14.057-5.342c-6.614-3.043-13.565-5.428-19.417-9.961c-7.063-5.469-14.337-10.688-21.114-16.49
		c-2.883-2.469-4.839-6.07-7.039-9.28c-5.112-7.462-8.625-15.645-10.595-24.477c-1.592-7.14-2.068-14.425-2.72-21.685
		c-0.368-4.089-1.059-8.184-1.013-12.269c0.092-7.979,0.333-15.92,2.521-23.767c1.891-6.787,4.877-13.085,7.451-19.561
		c1.902-4.79,5.231-8.806,8.729-12.602c7.413-8.043,16.217-14.053,26.111-18.73c5.991-2.833,12.161-5.009,18.453-6.912
		c2.521-0.763,5.199-1.021,7.817-1.432c0.647-0.1,1.343,0.111,2.017,0.179C88.46,240.139,88.457,240.311,88.455,240.482z"/>
	<path fill-rule="evenodd" clip-rule="evenodd" d="M143.033,343.153c-2.834,12.524-5.627,24.862-8.472,37.429
		c1.319-0.089,2.635-0.18,3.95-0.269c0.069,0.191,0.137,0.382,0.205,0.573c-0.379,0.383-0.695,0.886-1.15,1.127
		c-2.812,1.494-5.662,2.913-8.486,4.383c-4.374,2.278-8.738,4.484-13.816,4.848c-2.763,0.198-4.818,1.37-6.698,3.227
		c-1.449-0.693-2.99-1.465-4.561-2.174c-6.639-2.991-13.223-6.119-19.962-8.865c-2.501-1.019-4.536-2.359-6.089-4.441
		c-3.848-5.152-5.846-11.082-6.655-17.369c-1.088-8.441-1.924-16.917-2.831-25.383c-0.078-0.726,0.117-1.482,0.209-2.492
		c1.804,0.811,1.715,2.193,1.817,3.273c0.566,6.032,1.046,12.072,1.487,18.115c0.438,5.98,1.486,11.852,3.928,17.328
		c1.108,2.484,2.963,4.658,4.623,6.864c0.514,0.683,1.461,1.101,2.284,1.479c6.912,3.182,13.855,6.298,20.755,9.508
		c1.45,0.673,2.704,1.04,4.376,0.527c2.238-0.688,4.616-1.045,6.958-1.242c6.263-0.527,11.553-3.449,16.485-6.261
		c1.759-5.891,3.59-11.413,5.037-17.034c1.43-5.561,2.513-11.213,3.669-16.842c1.165-5.664,2.235-11.348,3.421-17.404
		c1.912,1.519,1.597,2.969,1.104,4.417c-0.446,1.312-0.966,2.599-1.529,4.098c1.264,0.224,2.102,0.373,2.879,0.511
		c3.26-4.86,3.901-16.723,1.069-21.691c-2.195,2.299-4.347,4.399-3.013,8.009c-1.907-0.194-2.408-1.492-1.959-2.67
		c0.868-2.275,1.966-4.514,3.314-6.539c0.936-1.408,3.124-0.742,3.863,1.195c0.577,1.512,0.971,3.169,1.054,4.781
		c0.24,4.722,0.296,9.454-1.15,14.047c-0.215,0.684-0.394,1.386-0.693,2.032C147.12,343.131,146.38,343.531,143.033,343.153z"/>
	<path fill-rule="evenodd" clip-rule="evenodd" d="M121.525,261.124c-3.275,0.882-5.682,2.743-8.025,4.74
		c-0.768,0.654-1.587,1.328-2.5,1.716c-1.512,0.644-2.415,0.108-2.574-1.507c-0.141-1.415-0.029-2.854-0.029-4.591
		c-0.653,0.368-1.205,0.558-1.598,0.921c-4.009,3.686-8.091,7.302-11.953,11.138c-3.645,3.619-4.552,3.535-6.876-1.729
		c-1.728,2.126-3.201,4.192-4.94,6.006c-1.682,1.756-2.202,4.76-5.488,5.298c-0.53-1.188-1.014-2.271-1.749-3.919
		c-4.357,10.226-9.079,19.849-10.605,30.915c-0.374,0.169-1.079,0.167-1.109-0.89c-0.031-1.119-0.084-2.31,0.237-3.357
		c3.106-10.129,6.679-20.083,11.629-29.486c0.283-0.538,0.649-1.037,1.021-1.52c0.099-0.128,0.366-0.127,0.723-0.237
		c1.264,1.828-0.197,3.987,0.634,6.155c0.562-0.428,1.075-0.683,1.402-1.09c1.871-2.321,3.676-4.697,5.551-7.018
		c0.645-0.798,1.355-1.572,2.156-2.208c1.399-1.111,2.442-0.721,2.92,1.006c0.237,0.856,0.426,1.726,0.757,3.093
		c1.224-0.998,2.107-1.637,2.898-2.376c3.529-3.295,7.004-6.648,10.563-9.911c1.053-0.965,2.25-1.816,3.5-2.507
		c1.332-0.735,2.162-0.185,2.235,1.358c0.066,1.412,0.014,2.829,0.014,4.782c1.294-0.85,2.261-1.51,3.255-2.131
		c2.084-1.306,4.092-2.778,6.3-3.827c2.074-0.985,2.941-0.364,3.465,1.839c0.494,2.076,0.772,2.372,2.966,2.003
		c3.645-0.613,7.256-1.412,10.889-2.103c1.208-0.23,2.553-0.106,3.632-0.594c3.14-1.418,4.981,0.557,6.926,2.357
		c1.085,1.005,0.864,2.199,0.355,3.408c-1.109,2.639-2.303,5.248-3.289,7.933c-1.948,5.296-4.009,10.569-4.554,16.262
		c-0.058,0.605-0.163,1.229-0.084,1.821c0.764,5.667,1.494,11.339,2.407,16.981c0.198,1.224,1.097,2.333,1.676,3.503
		c-1.867,0.712-2.59,0.553-2.855-0.751c-1.282-6.313-2.505-12.624-2.731-19.107c-0.125-3.61,0.792-6.947,1.87-10.25
		c1.56-4.78,3.407-9.467,5.133-14.193c0.107-0.29,0.251-0.565,0.355-0.856c1.148-3.201-0.984-6.094-4.434-5.597
		c-4.457,0.642-8.901,1.5-13.267,2.599C124.286,266.224,122.62,265.482,121.525,261.124z"/>
	<path fill-rule="evenodd" clip-rule="evenodd" d="M98.557,320.661c-1.217,2.124-3.01,2.635-9.607,2.843
		c0.465,1.09,1.081,2.098,1.311,3.187c0.25,1.183,0.423,2.597-1.911,2.399c1.822,2.415,4.808,0.92,6.513,3.271
		c-1.105,0.453-2.057,0.942-3.064,1.233c-1.884,0.546-3.235,1.593-3.915,3.482c-0.182,0.508-0.588,0.937-0.944,1.48
		c-1.443-0.947-0.397-2.252-0.976-3.47c-1.001-0.595-2.491-1.086-3.348-2.108c-0.731-0.872-0.733-2.355-1.125-3.823
		c1.647-0.052,2.568-1.157,3.441-2.446c0.78-1.152,1.808-2.137,3.167-3.706c-3.62,0.391-6.869-1.047-10.105,1.372
		c-0.985-0.533-2.201-1.191-3.863-2.092c2.399-1.255,4.695-1.661,6.696-1.531c3.768,0.243,7.33-0.706,10.982-1.063
		C94.552,319.419,96.107,319.507,98.557,320.661z M84.735,330.421c1.516,0.18,1.516-0.666,1.435-1.542
		c-0.01-0.111-0.236-0.202-0.512-0.423C85.36,329.088,85.089,329.667,84.735,330.421z"/>
	<path fill-rule="evenodd" clip-rule="evenodd" d="M138.562,301.454c-0.527,1.11-1.2,1.228-2.084,0.744
		c-3.798-2.081-7.911-2.657-12.183-2.731c-6.569-0.116-13.136-0.34-19.699-0.621c-2.247-0.096-4.477-0.53-6.719-0.755
		c-1.323-0.133-2.663-0.288-3.982-0.205c-1.921,0.122-2.778,1.111-3.232,3.349c-1.906,0.117-2.374-0.307-1.863-1.687
		c0.917-2.483,3.073-3.936,5.838-3.461c9.968,1.71,20.044,1.442,30.085,1.845c4.413,0.176,8.719,1.037,12.881,2.525
		C138.006,300.6,138.27,301.139,138.562,301.454z"/>
	<path fill-rule="evenodd" clip-rule="evenodd" d="M119.586,324.343c1.568,1.606,2.729,2.796,4.011,4.11
		c1.385-0.107,3.072-0.24,4.858-0.379c0.153,1.695-0.789,2.757-1.653,2.966c-2.557,0.618-3.662,2.831-5.561,4.43
		c-0.373-0.084-0.852-0.175-1.32-0.3c-1.768-0.474-3.513-1.097-5.086,0.588c-0.26,0.278-1.077,0.04-1.61,0.04
		c0-0.438-0.061-0.78,0.009-0.808c3.729-1.529,3.895-5.291,5.235-8.312C118.708,326.138,118.977,325.612,119.586,324.343z"/>
	<path fill-rule="evenodd" clip-rule="evenodd" d="M66.514,331.601c-1.117-1.074-1.156-2.562-1.295-4.039
		c-0.21-2.249-0.938-4.187-3.371-5.073c-2.847,1.806-2.589,4.841-2.746,7.45c-0.173,2.876,1.108,5.486,2.553,8.061
		c1.41,2.513,3.414,4.007,6.243,4.66c-1.488,2.579-3.472,0.253-4.879,1.963c-1.468-5.17-5.882-8.725-5.375-14.157
		c0.244-2.614,0.724-5.268,1.56-7.747c0.792-2.347,2.684-2.574,4.657-0.921c1.38,1.155,2.377,2.577,2.671,4.38
		c0.286,1.75,0.476,3.517,0.708,5.275C66.998,331.501,66.756,331.55,66.514,331.601z"/>
	<path fill-rule="evenodd" clip-rule="evenodd" d="M117.583,365.17c-1.251,0.201-2.509,0.366-3.751,0.608
		c-4.812,0.938-9.599,2.021-14.437,2.785c-1.744,0.275-3.624-0.148-5.398-1.586c0.628-0.404,1.055-0.902,1.526-0.948
		c6.731-0.672,13.468-1.292,20.206-1.895c0.569-0.05,1.157,0.103,1.736,0.163C117.504,364.589,117.544,364.878,117.583,365.17z"/>
	<path fill-rule="evenodd" clip-rule="evenodd" d="M86.585,301.242c0.06,1.356,0.093,2.103,0.134,3.026
		c-2.16,0.039-4.031,1.438-6.039-0.166c-0.364-0.291-1.561,0.123-2.164,0.526c-2.222,1.489-4.231,3.181-4.958,5.981
		c-0.114,0.442-1.084,1.044-1.515,0.944c-0.941-0.216-0.724-0.917-0.309-1.673c1.652-3.004,3.584-5.734,6.719-7.362
		c0.604-0.314,1.529-0.839,1.914-0.61C82.369,303.102,84.213,302.647,86.585,301.242z"/>
	<path fill-rule="evenodd" clip-rule="evenodd" d="M130.424,277.445c0.319,2.79-1.097,4.951-1.611,7.301
		c-0.515,2.347-1.969,4.597-0.367,7.25c-1.511,0.185-2.164-0.454-2.098-1.645c0.084-1.519,0.294-3.047,0.623-4.531
		c0.417-1.872,1.009-3.704,1.009-5.854c-1.839,2.434-3.677,4.866-5.686,7.524C123.267,282.862,127.263,277.857,130.424,277.445z"/>
	<path fill-rule="evenodd" clip-rule="evenodd" d="M131.749,316.39c0.292,1.423-0.327,1.845-1.287,1.838
		c-4.89-0.035-8.516,2.434-11.714,5.809c-0.556,0.585-1.194,1.15-1.903,1.506c-0.389,0.195-1.007-0.067-2.17-0.195
		C119.847,320.393,124.55,316.057,131.749,316.39z"/>
	<path fill-rule="evenodd" clip-rule="evenodd" d="M101.175,334.366c0.329,0.386,0.804,0.683,0.8,0.976
		c-0.045,4.487-0.129,8.977-0.283,13.462c-0.018,0.507-0.51,0.997-1.092,2.062c-0.436-1.132-0.875-1.722-0.848-2.286
		c0.215-4.506,0.512-9.009,0.815-13.509C100.582,334.86,100.905,334.668,101.175,334.366z"/>
	<path fill-rule="evenodd" clip-rule="evenodd" d="M99.853,354.199c1.021,0.78,1.899,1.306,3.008,0.275
		c0.762-0.709,1.472-0.224,2.062,1.035c-1.614,0.736-3.211,1.465-5.036,2.297c-0.121,0.381-0.345,1.082-0.604,1.895
		C97.624,358.019,97.71,357.218,99.853,354.199z"/>
	<path fill-rule="evenodd" clip-rule="evenodd" d="M108.665,355.607c-0.542-2.522-0.041-3.84,1.276-4.074
		c1.612-0.286,2.62,0.59,3.278,2.34C111.553,353.976,109.803,353.185,108.665,355.607z"/>
	<path fill-rule="evenodd" clip-rule="evenodd" fill="#FFFFFF" d="M84.735,330.421c0.354-0.755,0.625-1.333,0.922-1.965
		c0.276,0.221,0.502,0.312,0.512,0.423C86.251,329.755,86.251,330.601,84.735,330.421z"/>
</g>
<g>
	<path fill-rule="evenodd" clip-rule="evenodd" d="M613.851,247.534c0.624-0.673,2.009-1.997,3.196-3.475
		c4.421-5.511,10.474-6.296,16.737-5.224c10.958,1.873,21.997,3.634,32.682,6.602c8.091,2.246,16.476,4.747,22.794,10.957
		c4.158,4.092,8.115,8.394,12.065,12.69c0.962,1.049,1.622,2.407,2.297,3.692c6.763,12.882,10.498,26.627,11.15,41.133
		c0.33,7.403,0.115,14.835,0.008,22.251c-0.025,1.568-0.6,3.145-1.041,4.684c-1.083,3.799-2.238,7.58-3.365,11.366
		c-0.126,0.423-0.14,0.915-0.369,1.263c-4.115,6.21-7.725,12.796-13.645,17.632c-7.546,6.166-16.077,10.792-24.552,15.418
		c-6.72,3.67-14.19,5.287-21.915,5.877c-8.32,0.635-16.439-0.255-24.368-2.526c-4.625-1.324-9.023-3.453-13.516-5.242
		c-12.46-4.958-22.55-13.13-30.74-23.552c-7.233-9.201-10.318-20.261-12.999-31.458c-1.794-7.504-2.544-15.049-1.884-22.698
		c1.109-12.83,4.406-24.862,11.155-36.14c6.777-11.323,16.941-17.591,28.552-22.263
		C608.143,247.695,610.614,247.913,613.851,247.534z M612.146,250.958c-2.264-1.826-2.576-1.966-4.123-1.401
		c-1.37,0.5-2.708,1.103-4.021,1.746c-6.207,3.05-12.41,6.176-17.189,11.33c-7.506,8.091-12.482,17.588-15.413,28.229
		c-2.357,8.564-3.157,17.286-2.655,26.082c0.474,8.358,2.921,16.355,5.231,24.374c2.489,8.645,6.91,16.142,12.833,22.758
		c2.433,2.716,5.465,4.886,8.155,7.378c3.24,3.005,6.627,5.796,10.71,7.584c8.033,3.516,15.653,8.195,24.483,9.529
		c5.862,0.884,11.61,2.042,17.781,1.484c9.188-0.829,17.91-2.37,25.89-7.187c3.384-2.042,6.929-3.814,10.297-5.881
		c5.634-3.455,11.145-7.143,15.414-12.271c4.517-5.426,8.646-11.129,9.981-18.333c0.211-1.134,0.9-2.176,1.155-3.308
		c0.789-3.556,2.013-7.118,2.092-10.701c0.15-7.02-0.09-14.073-0.646-21.077c-1.029-12.978-3.939-25.495-10.447-36.948
		c-1.152-2.027-2.357-4.086-3.894-5.812c-3.411-3.832-7.031-7.481-10.612-11.158c-0.915-0.942-1.88-2.023-3.043-2.506
		c-6.619-2.745-13.128-5.992-20.009-7.805c-9.878-2.605-19.776-5.364-30.03-6.39c-5.927-0.592-11.441-0.31-15.887,4.338
		C616.298,247.001,614.277,248.873,612.146,250.958z"/>
	<path fill-rule="evenodd" clip-rule="evenodd" fill="#FFFFFF" d="M612.146,250.958c2.131-2.086,4.151-3.957,6.053-5.945
		c4.445-4.648,9.96-4.93,15.887-4.338c10.254,1.026,20.152,3.785,30.03,6.39c6.881,1.813,13.39,5.061,20.009,7.805
		c1.163,0.483,2.128,1.564,3.043,2.506c3.581,3.677,7.201,7.326,10.612,11.158c1.536,1.726,2.741,3.785,3.894,5.812
		c6.508,11.453,9.418,23.97,10.447,36.948c0.557,7.003,0.797,14.057,0.646,21.077c-0.079,3.583-1.303,7.145-2.092,10.701
		c-0.255,1.132-0.944,2.174-1.155,3.308c-1.335,7.205-5.465,12.907-9.981,18.333c-4.27,5.127-9.78,8.815-15.414,12.271
		c-3.368,2.067-6.913,3.839-10.297,5.881c-7.979,4.816-16.701,6.357-25.89,7.187c-6.171,0.558-11.919-0.6-17.781-1.484
		c-8.83-1.334-16.45-6.013-24.483-9.529c-4.083-1.789-7.47-4.58-10.71-7.584c-2.69-2.492-5.723-4.663-8.155-7.378
		c-5.923-6.616-10.344-14.113-12.833-22.758c-2.311-8.019-4.758-16.016-5.231-24.374c-0.502-8.795,0.298-17.518,2.655-26.082
		c2.931-10.642,7.907-20.139,15.413-28.229c4.779-5.154,10.982-8.28,17.189-11.33c1.313-0.643,2.651-1.245,4.021-1.746
		C609.57,248.993,609.883,249.132,612.146,250.958z M631.233,310.678c2.131,0.194,4.263,0.389,6.505,0.592
		c-0.082-0.882-0.036-1.377-0.144-1.412c-3.67-1.218-7.287-2.773-11.058-3.439c-2.39-0.42-3.438,1.927-2.3,4.176
		c3.297-2.298,3.397-2.296,7.154,0.19c-1.794-0.59-3.401-0.075-3.807,1.695c-0.359,1.562-0.04,3.344,0.301,4.96
		c0.087,0.402,1.737,0.99,2.132,0.717c1.934-1.344,4.768-1.579,5.798-4.582C634.298,312.619,632.78,311.663,631.233,310.678z
		 M622.767,287.103c-0.237-4.065-2.698-7.782-1.022-12.755c1.036,2.937,1.812,5.064,2.536,7.208c0.732,2.149-0.05,4.982,3.003,6.579
		c-0.283-3.802-0.742-7.176-0.729-10.547c0.015-3.514-0.613-7.118,0.883-10.645c1.059,1.826,1.845,3.685,2.314,5.622
		c1.005,4.126,1.869,8.286,2.727,12.445c0.262,1.254,0.467,2.384,2.167,1.876c0.675-2.499,1.073-17.919,0.402-20.072
		c-0.359-1.155-1.02-2.219-1.579-3.401c-3.018,1.587-0.951,4.578-2.662,6.591c-1.421-2.522-0.585-6.067-4.115-7.04
		c-2.716,3.105-1.295,7.197-2.396,10.692c-1.241-1.703-2.304-3.161-3.886-5.338c-0.746,2.303-1.202,3.708-1.884,5.812
		c-0.821-1.84-1.295-3.165-1.98-4.37c-0.692-1.212-2.239-1.163-2.712,0.144c-0.431,1.197-0.531,2.555-0.557,3.846
		c-0.071,3.423-0.025,6.849-0.025,10.272c-1.123-0.445-1.342-1.152-1.815-1.571c-0.566-0.499-1.604-1.229-1.994-1.022
		c-1.238,0.653-0.614,1.575-0.015,2.529c1.159,1.846,2.06,3.859,3.258,5.676c0.434,0.653,1.417,0.944,2.766,1.78
		c-0.215-6.379-0.778-11.935,0.137-17.496c1.995,3.322,3.405,6.775,3.9,10.539C619.724,286.292,620.352,287.447,622.767,287.103z
		 M624.675,329.362c-1.385,2.196-1.241,2.169,0.255,10.337c1.202,6.551,4.492,11.319,10.835,13.922
		c-0.352,2.095-0.753,3.95-0.958,5.825c-0.254,2.329-0.44,4.673-0.474,7.013c-0.014,1.247,0.722,1.875,2.293,1.13
		c-0.778-4.461,0.272-8.718,1.564-12.173c5.729-0.459,10.882-0.872,16.041-1.285c-0.538,4.517,0.502,7.359,3.639,9.196
		c-0.173-1.424-0.312-2.565-0.463-3.825c2.346,1.049,2.687,4.271,6.156,4.681c-2.264-4.071-4.244-7.628-6.447-11.583
		c1.927-0.477,3.15-0.782,4.553-1.128c1.819-4.634,3.958-9.287,5.461-14.134c1.532-4.95,2.443-10.091,3.656-15.277
		c-2.896,0.086-3.144,0.294-3.315,2.895c-0.506,7.741-2.87,14.904-6.906,21.477c-0.857,1.399-2.329,2.775-3.828,3.358
		c-3.255,1.263-6.656,2.458-10.093,2.876c-8.295,1.01-18.295-2.546-19.562-13.72C626.734,335.854,625.579,332.854,624.675,329.362z
		 M665.304,279.335c2.437,2.125-1.32,6,3.792,6.946c-1.413-3.462,1.127-7.236-2.615-10.354c-2.688,2.02-5.307,3.986-8.155,6.125
		c-1.162-5.586,1.306-10.548,1.112-15.797c-3.993,3.421-2.63,9.802-7.969,13.445c0.761-5.559,1.403-10.255,2.038-14.909
		c-2.476-0.807-2.737,0.745-3.078,2.218c-0.865,3.752-1.758,7.497-4.201,10.745c-0.23-3.511,0.046-6.942,0.211-10.376
		c0.083-1.738,0.574-3.774-2.202-4.574c-1.396,5.188-2.73,10.136-4.051,15.087c-0.154,0.563-0.298,1.145-0.338,1.724
		c-0.111,1.609-0.298,3.234-0.176,4.831c0.047,0.61,0.857,1.163,1.607,2.103c0.036-5.102,0.679-7.49,2.178-9.373
		c0.578,1.476,1.238,3.164,1.901,4.853c1.288-0.545,2.576-1.091,4.059-1.719c1.062,3.046,3.559,1.615,5.052,1.044
		c1.098,1.5,1.668,2.859,2.687,3.536c1.629,1.078,2.648-0.625,3.71-1.502C662.404,282.117,663.822,280.698,665.304,279.335z
		 M622.336,319.066c0.434-1.706,0.197-3.304-1.087-4.382c-1.694-1.426-1.905-3.148-1.837-5.129c0.078-2.203,0.018-4.411,0.018-6.618
		c0.004-2.815-0.521-5.743,2.36-8.078c-2.855,0.084-3.031,0.042-3.279,1.032c-0.463,1.832-0.89,3.709-0.986,5.588
		c-0.161,3.018-0.047,6.049-0.047,9.759c-1.334-0.978-1.938-1.616-2.677-1.917c-1.452-0.594-2.26,0.041-2.199,1.602
		c0.133,3.351,0.201,6.709,0.514,10.046c0.187,2.023,0.48,4.139,1.267,5.982c1.04,2.445,2.978,2.481,4.699,0.404
		c-4.334-2.533-5.532-7.527-2.984-12.593C618.92,314.971,618.712,319.497,622.336,319.066z M667.184,305.216
		c-0.577-6.356-1.138-12.538-1.765-19.487c-0.958,0.969-1.852,1.451-1.877,1.977c-0.09,1.75,0.094,3.52,0.251,5.274
		c0.553,6.203,2.548,12.271,1.758,18.617c-0.078,0.614,0.636,1.328,1.181,2.379c1.79-2.271,0.305-5.69,3.599-6.742
		c0.427,0.926,1.151,1.815,1.209,2.745c0.205,3.332,0.227,6.677,0.233,10.017c0,1.38-0.233,2.773,2.516,2.486
		c-0.7-6.408,1.944-13.275-3.549-19.119C669.391,304.066,668.3,304.634,667.184,305.216z M649.542,309.722
		c1.83-4.192,6.728,0.527,8.568-3.075c-0.24-0.35-0.37-0.755-0.567-0.79c-1.661-0.3-3.326-0.568-5.001-0.773
		c-2.289-0.276-5.152,1.864-5.511,4.058c-0.295,1.823,2.277,6.293,3.917,6.478c1.583,0.178,3.236,0.185,4.801-0.074
		c2.25-0.37,3.114-1.83,2.375-3.767c-0.678-1.774-1.894-2.612-3.753-1.455C652.603,311.426,651.149,310.771,649.542,309.722z
		 M640.274,340.748c1.45-1.008,2.608-2.042,4.557-1.672c1.637,0.309,3.656-0.76,5.328-1.584c0.703-0.348,1.116-1.598,1.303-2.513
		c0.064-0.312-1.353-1.292-1.436-1.22c-1.854,1.645-3.903,0.17-5.815,0.438C641.47,334.581,639.916,336.887,640.274,340.748z
		 M650.461,323.95c-1.026-0.745-1.783-1.295-2.519-1.83c-1.453,1.687-2.705,3.14-4.22,4.897c-1.346-2.603-2.705-3.69-4.894-1.869
		c0.778,1.977,1.665,3.391,3.886,3.807C646.712,329.705,648.236,326.8,650.461,323.95z"/>
	<path fill-rule="evenodd" clip-rule="evenodd" d="M622.767,287.103c-2.415,0.344-3.043-0.811-3.279-2.648
		c-0.495-3.764-1.905-7.217-3.9-10.539c-0.915,5.561-0.352,11.117-0.137,17.496c-1.349-0.836-2.332-1.127-2.766-1.78
		c-1.198-1.817-2.099-3.83-3.258-5.676c-0.6-0.955-1.224-1.876,0.015-2.529c0.391-0.207,1.428,0.524,1.994,1.022
		c0.474,0.419,0.692,1.126,1.815,1.571c0-3.423-0.046-6.849,0.025-10.272c0.025-1.292,0.126-2.649,0.557-3.846
		c0.473-1.306,2.02-1.356,2.712-0.144c0.686,1.206,1.159,2.53,1.98,4.37c0.682-2.104,1.138-3.509,1.884-5.812
		c1.582,2.178,2.645,3.636,3.886,5.338c1.102-3.495-0.319-7.586,2.396-10.692c3.53,0.973,2.694,4.517,4.115,7.04
		c1.711-2.013-0.355-5.003,2.662-6.591c0.56,1.182,1.22,2.246,1.579,3.401c0.671,2.153,0.272,17.573-0.402,20.072
		c-1.7,0.508-1.905-0.622-2.167-1.876c-0.857-4.159-1.722-8.318-2.727-12.445c-0.47-1.937-1.256-3.796-2.314-5.622
		c-1.496,3.527-0.868,7.131-0.883,10.645c-0.014,3.371,0.445,6.745,0.729,10.547c-3.053-1.597-2.271-4.43-3.003-6.579
		c-0.725-2.144-1.5-4.271-2.536-7.208C620.068,279.321,622.529,283.038,622.767,287.103z"/>
	<path fill-rule="evenodd" clip-rule="evenodd" d="M624.675,329.362c0.904,3.493,2.06,6.492,2.407,9.583
		c1.267,11.174,11.267,14.73,19.562,13.72c3.437-0.418,6.838-1.613,10.093-2.876c1.499-0.583,2.971-1.958,3.828-3.358
		c4.036-6.573,6.4-13.736,6.906-21.477c0.172-2.601,0.42-2.809,3.315-2.895c-1.213,5.186-2.124,10.327-3.656,15.277
		c-1.503,4.847-3.642,9.5-5.461,14.134c-1.402,0.346-2.626,0.651-4.553,1.128c2.203,3.956,4.184,7.513,6.447,11.583
		c-3.47-0.409-3.811-3.631-6.156-4.681c0.15,1.259,0.29,2.4,0.463,3.825c-3.137-1.837-4.177-4.679-3.639-9.196
		c-5.159,0.413-10.312,0.825-16.041,1.285c-1.292,3.455-2.343,7.712-1.564,12.173c-1.571,0.745-2.307,0.117-2.293-1.13
		c0.033-2.339,0.22-4.684,0.474-7.013c0.205-1.875,0.606-3.729,0.958-5.825c-6.343-2.603-9.633-7.371-10.835-13.922
		C623.434,331.531,623.29,331.558,624.675,329.362z"/>
	<path fill-rule="evenodd" clip-rule="evenodd" d="M665.304,279.335c-1.481,1.363-2.899,2.782-4.438,4.05
		c-1.062,0.877-2.081,2.58-3.71,1.502c-1.019-0.677-1.589-2.036-2.687-3.536c-1.493,0.571-3.99,2.002-5.052-1.044
		c-1.482,0.628-2.771,1.173-4.059,1.719c-0.663-1.688-1.323-3.376-1.901-4.853c-1.499,1.883-2.142,4.271-2.178,9.373
		c-0.75-0.94-1.561-1.493-1.607-2.103c-0.122-1.597,0.064-3.222,0.176-4.831c0.04-0.579,0.184-1.161,0.338-1.724
		c1.32-4.951,2.654-9.899,4.051-15.087c2.776,0.8,2.285,2.836,2.202,4.574c-0.165,3.434-0.441,6.865-0.211,10.376
		c2.443-3.249,3.336-6.993,4.201-10.745c0.341-1.473,0.603-3.025,3.078-2.218c-0.635,4.654-1.277,9.35-2.038,14.909
		c5.339-3.643,3.976-10.024,7.969-13.445c0.193,5.249-2.274,10.211-1.112,15.797c2.849-2.138,5.468-4.104,8.155-6.125
		c3.742,3.118,1.202,6.893,2.615,10.354C663.983,285.335,667.74,281.46,665.304,279.335z"/>
	<path fill-rule="evenodd" clip-rule="evenodd" d="M622.336,319.066c-3.624,0.431-3.416-4.095-6.239-4.305
		c-2.548,5.066-1.35,10.06,2.984,12.593c-1.722,2.078-3.659,2.042-4.699-0.404c-0.786-1.844-1.08-3.959-1.267-5.982
		c-0.312-3.337-0.381-6.695-0.514-10.046c-0.061-1.561,0.747-2.196,2.199-1.602c0.739,0.301,1.343,0.94,2.677,1.917
		c0-3.71-0.114-6.741,0.047-9.759c0.097-1.878,0.523-3.756,0.986-5.588c0.248-0.99,0.424-0.947,3.279-1.032
		c-2.881,2.335-2.356,5.263-2.36,8.078c0,2.207,0.061,4.415-0.018,6.618c-0.068,1.98,0.143,3.703,1.837,5.129
		C622.533,315.762,622.77,317.361,622.336,319.066z"/>
	<path fill-rule="evenodd" clip-rule="evenodd" d="M667.184,305.216c1.116-0.582,2.207-1.15,3.556-1.853
		c5.493,5.844,2.849,12.711,3.549,19.119c-2.749,0.287-2.516-1.106-2.516-2.486c-0.007-3.34-0.028-6.686-0.233-10.017
		c-0.058-0.929-0.782-1.819-1.209-2.745c-3.294,1.051-1.809,4.471-3.599,6.742c-0.545-1.051-1.259-1.765-1.181-2.379
		c0.79-6.347-1.205-12.414-1.758-18.617c-0.157-1.754-0.341-3.523-0.251-5.274c0.025-0.526,0.919-1.008,1.877-1.977
		C666.046,292.678,666.606,298.86,667.184,305.216z"/>
	<path fill-rule="evenodd" clip-rule="evenodd" d="M649.542,309.722c1.607,1.049,3.061,1.704,4.829,0.603
		c1.859-1.157,3.075-0.319,3.753,1.455c0.739,1.938-0.125,3.397-2.375,3.767c-1.564,0.258-3.218,0.251-4.801,0.074
		c-1.64-0.185-4.212-4.655-3.917-6.478c0.358-2.194,3.222-4.334,5.511-4.058c1.675,0.205,3.34,0.474,5.001,0.773
		c0.197,0.034,0.327,0.439,0.567,0.79C656.27,310.25,651.372,305.53,649.542,309.722z"/>
	<path fill-rule="evenodd" clip-rule="evenodd" d="M631.266,310.707c1.515,0.956,3.032,1.912,4.55,2.87
		c-1.03,3.003-3.864,3.238-5.798,4.582c-0.395,0.273-2.045-0.315-2.132-0.717c-0.341-1.617-0.66-3.398-0.301-4.96
		c0.405-1.771,2.013-2.285,3.807-1.695L631.266,310.707z"/>
	<path fill-rule="evenodd" clip-rule="evenodd" d="M640.274,340.748c-0.358-3.861,1.195-6.167,3.937-6.551
		c1.912-0.268,3.961,1.207,5.815-0.438c0.083-0.072,1.5,0.908,1.436,1.22c-0.187,0.915-0.6,2.166-1.303,2.513
		c-1.672,0.824-3.691,1.893-5.328,1.584C642.883,338.707,641.725,339.74,640.274,340.748z"/>
	<path fill-rule="evenodd" clip-rule="evenodd" d="M650.461,323.95c-2.225,2.851-3.749,5.755-7.746,5.005
		c-2.221-0.416-3.107-1.83-3.886-3.807c2.188-1.821,3.548-0.733,4.894,1.869c1.515-1.758,2.767-3.211,4.22-4.897
		C648.678,322.654,649.435,323.205,650.461,323.95z"/>
	<path fill-rule="evenodd" clip-rule="evenodd" d="M631.392,310.786c-3.757-2.486-3.857-2.488-7.154-0.19
		c-1.138-2.25-0.09-4.596,2.3-4.176c3.771,0.666,7.388,2.221,11.058,3.439c0.107,0.034,0.062,0.529,0.144,1.412
		c-2.242-0.203-4.374-0.398-6.486-0.577C631.266,310.707,631.392,310.786,631.392,310.786z"/>
</g>
</svg>
