<?xml version="1.0" encoding="utf-8"?>
<!-- Generator: Adobe Illustrator 16.0.0, SVG Export Plug-In . SVG Version: 6.00 Build 0)  -->
<!DOCTYPE svg PUBLIC "-//W3C//DTD SVG 1.1//EN" "http://www.w3.org/Graphics/SVG/1.1/DTD/svg11.dtd">
<svg version="1.1" id="Layer_1" xmlns="http://www.w3.org/2000/svg" xmlns:xlink="http://www.w3.org/1999/xlink" x="0px" y="0px"
	 width="562.712px" height="546.339px" viewBox="0 0 562.712 546.339" enable-background="new 0 0 562.712 546.339"
	 xml:space="preserve">
<g>
	<path fill-rule="evenodd" clip-rule="evenodd" d="M357.077,433.229c2.691,7.89,6.854,14.728,12.666,20.605
		c-3.925-1.913-6.555-5.124-8.675-8.719c-2.089-3.541-3.872-7.263-5.927-11.168c-0.723,0.29-1.512,0.601-2.298,0.919
		c-7.968,3.225-15.832,6.75-23.936,9.583c-6.509,2.277-13.275,3.735-20.324,3.564c-8.055-0.198-16.122,0.035-24.181-0.077
		c-5.021-0.069-10.037-0.42-15.055-0.67c-0.547-0.027-1.097-0.19-1.628-0.353c-5.325-1.635-10.743-3.025-15.934-5.01
		c-3.723-1.425-7.229-3.5-10.669-5.559c-3.826-2.289-7.463-4.893-11.196-7.339c-0.34-0.223-0.779-0.298-1.365-0.512
		c-1.218,2.759-1.768,5.218-0.323,8.048c2.742,5.367,5.534,10.663,9.766,15.059c-5.246-3.772-8.586-9.014-11.317-15.615
		c-0.957,2.849-1.56,4.932-2.357,6.938c-0.712,1.792-0.933,4.067-4.042,4.878c2.684-3.22,3.051-6.676,4.217-9.812
		c1.057-2.837,0.534-5.479-0.217-8.422c-1.31-5.126-4.451-8.381-8.292-11.645c-3.968-3.374-7.583-7.299-10.765-11.435
		c-4.347-5.648-8.454-11.536-12.084-17.665c-4.141-6.995-7.612-14.374-10.205-22.136c-1.307-3.914-2.877-7.746-4.475-11.553
		c-3.058-7.287-4.57-14.887-5.003-22.751c-0.218-3.979-0.716-7.943-0.957-11.923c-0.093-1.516,0.029-3.085,0.322-4.577
		c1.27-6.449,2.336-12.961,4.059-19.292c1.574-5.781,3.467-11.497,6.55-16.772c2.295-3.929,3.734-8.366,6.092-12.25
		c3.235-5.329,6.458-10.73,10.866-15.238c2.03-2.074,4.15-4.06,6.273-6.04c7.968-7.432,16.451-14.203,26.7-18.195
		c6.411-2.496,13.08-4.337,19.648-6.427c2.869-0.913,5.751-1.801,8.666-2.55c10.482-2.689,21.083-4.978,31.438-8.088
		c6.355-1.908,12.67-2.243,19.159-2.247c4.201-0.003,8.207,0.665,12.141,2.063c4.941,1.757,9.912,3.43,14.862,5.159
		c5.478,1.915,9.902,5.572,14.571,8.829c2.014,1.406,4.124,2.672,6.161,4.044c1.199,0.807,2.538,1.524,3.481,2.581
		c3.894,4.361,8.38,8.013,13.113,11.39c3.873,2.762,6.754,6.495,9.71,10.11c3.663,4.479,7.662,8.717,10.308,13.98
		c2.658,5.285,5.577,10.439,8.292,15.698c0.758,1.471,1.221,3.1,1.779,4.67c0.525,1.471,0.791,3.076,1.531,4.423
		c3.081,5.6,3.589,11.916,5.229,17.919c2.442,8.931,2.568,18.057,2.773,27.201c0.081,3.544,0.745,7.095,0.588,10.617
		c-0.223,4.995-1.008,9.96-1.465,14.947c-0.945,10.35-5.581,19.077-11.737,27.173c-1.078,1.417-2.01,2.962-2.861,4.531
		c-2.537,4.668-6.149,8.511-9.76,12.282c-5.089,5.315-10.335,10.519-15.883,15.347c-5.037,4.383-10.525,8.262-16.827,10.769
		C357.894,432.669,357.552,432.942,357.077,433.229z M316.749,286.956c0.321,0.441,0.548,1.105,0.978,1.284
		c3.006,1.259,3.956,4.022,5.096,6.679c4.141,9.649,7.676,19.5,10.069,29.743c0.765,3.27,3.144,5.5,5.894,6.906
		c1.774,0.908,3.203,1.931,4.374,3.425c2.485,3.171,4.599,6.568,6.169,10.295c0.252,0.599,0.727,1.105,1.487,2.225
		c0-2.342,0.048-3.905-0.01-5.464c-0.166-4.573-0.907-9.198-0.456-13.705c0.898-8.974-2.544-16.064-8.311-22.419
		c-3.68-4.055-8.646-6.224-13.232-8.948c-0.608-0.363-1.212-0.737-2.443-1.486c1.295-0.249,1.958-0.597,2.435-0.426
		c1.249,0.447,2.469,1.033,3.603,1.72c3.43,2.084,6.814,4.244,10.592,6.611c-1.663-5.496-2.842-10.56-5.622-15.603
		c0,2.462,0,4.36,0,6.259c-0.685-1.453-0.943-2.96-1.295-4.443c-0.872-3.688-1.549-7.443-4.511-10.246
		c-4.483-4.243-9.033-8.426-14.91-10.636c-4.05-1.524-8.187-2.948-12.404-3.85c-2.677-0.573-5.577-0.141-8.374-0.078
		c-0.494,0.01-1.041,0.335-1.456,0.656c-1.87,1.438-3.577,3.003-3.312,5.674c-1.514,0.107-2.12-0.545-1.837-1.793
		c0.735-3.238,4-5.985,7.193-6.074c12.615-0.351,23.751,3.349,33.049,12.088c0.826,0.775,1.651,1.627,3.25,2.093
		c-4.482-10.657-11.45-18.275-21.541-22.939c-4.178-1.933-8.465-3.402-13.176-3.456c-3.684-0.04-6.736,3.071-4.075,6.649
		c0.084,0.114-0.048,0.39-0.081,0.591c-3.029-1.668-3.412-3.338-1.615-6.073c1.299-1.977,3.058-2.983,5.341-2.812
		c2.436,0.182,4.944,0.313,7.263,1.003c12.14,3.608,21.508,10.788,27.196,22.243c2.77,5.579,4.697,11.564,7.994,16.905
		c0.345,0.558,0.5,1.239,0.716,1.872c1.805,5.272,3.568,10.559,5.436,15.808c0.434,1.222,1.022,2.49,1.871,3.442
		c2.914,3.269,4.024,7.368,4.151,11.384c0.351,11.174,0.135,22.367,0.112,33.551c-0.004,1.562-0.007,3.161-0.317,4.679
		c-1.141,5.61-1.306,11.263-1.275,16.965c0.028,5.583,0.015,11.191-0.478,16.745c-0.925,10.422,0.703,20.482,3.576,30.418
		c0.673,2.327,1.601,4.581,2.431,6.922c6.585-2.64,12.268-6.052,17.233-10.617c3.121-2.871,6.286-5.7,9.285-8.694
		c4.419-4.41,8.99-8.719,12.972-13.507c3.482-4.187,6.446-8.849,9.276-13.521c4.288-7.077,8.045-14.371,8.787-22.901
		c0.531-6.104,1.737-12.152,1.538-18.316c-0.09-2.787-0.25-5.57-0.448-8.352c-0.358-5.004-0.767-10.005-1.156-15.007
		c-0.138-1.778-0.103-3.594-0.461-5.327c-0.931-4.476-1.852-8.97-3.125-13.354c-1.304-4.491-3.006-8.867-4.573-13.279
		c-0.597-1.68-1.174-3.386-1.98-4.968c-2.638-5.17-5.556-10.207-8.02-15.454c-1.94-4.132-4.938-7.436-7.71-10.902
		c-4.105-5.134-8.207-10.27-13.604-14.257c-3.84-2.837-7.209-6.308-10.832-9.446c-1.43-1.24-2.928-2.414-4.479-3.5
		c-2.193-1.537-4.47-2.953-6.698-4.442c-3.155-2.108-6.138-4.543-9.488-6.266c-3.241-1.667-6.841-2.645-10.304-3.866
		c-7.223-2.548-14.232-5.823-22.232-5.399c-4.207,0.223-8.389,0.017-12.521,1.286c-4.677,1.435-9.468,2.503-14.211,3.722
		c-4.207,1.081-8.418,2.145-12.628,3.221c-2.59,0.66-5.192,1.274-7.763,2.004c-3.22,0.915-6.409,1.938-9.621,2.892
		c-2.883,0.855-5.799,1.607-8.648,2.565c-0.824,0.277-1.483,1.614-2.183,1.586c-2.363-0.094-4.015,1.254-5.725,2.416
		c-2.168,1.476-4.175,3.188-6.25,4.798c-0.102-0.111-0.203-0.224-0.307-0.335c1.35-1.531,2.698-3.062,4.427-5.026
		c-1.016,0.289-1.554,0.35-2.001,0.583c-5.823,3.053-11.883,5.709-16.895,10.123c-1.509,1.329-3.058,2.611-4.582,3.922
		c-6.195,5.332-11.999,10.971-16.561,17.879c-4.027,6.096-7.112,12.631-10.255,19.166c-0.968,2.013-2.294,3.917-2.896,6.029
		c-1.708,5.989-4.284,11.722-5.129,17.972c-0.791,5.829-2.844,11.49-2.233,17.508c0.472,4.642,1.011,9.285,1.266,13.94
		c0.359,6.569,2.295,12.699,4.695,18.738c1.397,3.51,2.836,7.006,4.098,10.565c3.97,11.19,9.142,21.771,16.099,31.405
		c3.779,5.232,7.718,10.369,11.896,15.285c2.258,2.655,5.171,4.752,7.958,7.255c0.157-0.687,0.272-0.912,0.241-1.116
		c-0.083-0.546-0.223-1.087-0.349-1.627c-2.372-10.105-4.94-20.16-5.164-30.647c-0.104-4.988,0.679-9.742,2.366-14.385
		c0.483-1.328,1.327-2.277,2.626-2.109c-0.804,1.945-1.662,3.809-2.353,5.732c-1.71,4.755-1.484,9.717-1.146,14.613
		c0.668,9.731,3.15,19.136,5.486,28.567c0.796,3.216,2.979,4.634,6.027,5.87c0.348-2.24,0.646-4.207,0.958-6.174
		c1.724-10.828,3.075-21.706,2.444-32.686c-0.391-6.785-1.288-13.542-2.055-20.301c-0.352-3.091-1.261-6.145-1.351-9.232
		c-0.194-6.484-0.166-12.985,0.068-19.469c0.153-4.229,0.921-8.417,2.484-12.413c0.583-1.488,1.236-2.742,2.898-2.551
		c-0.843,2.039-1.96,3.88-2.348,5.861c-0.85,4.35-1.612,8.753-1.894,13.166c-0.448,7.022-0.042,14.059,0.87,21.037
		c0.538,4.11,1.395,8.178,2.176,12.654c2.305-4.257,4.421-8.155,6.528-12.059c2.359-4.378,3.207-8.948,2.148-13.901
		c-1.718-8.042-1.239-16.176-0.726-24.303c0.654-10.35,5.827-17.459,15.141-21.908c9.76-4.66,17.637-11.329,21.577-22.048
		c0.722,0.218,1.374,0.416,2.46,0.745c-2.089,3.308-3.877,6.358-5.879,9.26c-3.562,5.168-8.442,8.87-13.865,11.89
		c-2.332,1.3-4.816,2.341-7.091,3.729c-7.726,4.716-10.272,12.365-11.003,20.72c-0.449,5.112-0.102,10.296-0.06,15.446
		c0.007,0.754,0.264,1.519,0.475,2.259c1.309,4.579,1.983,9.169,0.403,13.834c-0.175,0.513-0.388,1.149-0.235,1.614
		c1.001,3.039,1.889,6.144,3.22,9.04c1.441,3.13,3.278,6.083,5.035,9.06c0.789,1.337,1.723,2.607,2.725,3.793
		c3.381,4.004,6.84,7.941,10.227,11.939c1.218,1.438,2.207,3.083,3.491,4.455c3.169,3.381,7.117,5.714,11.109,7.981
		c3.027,1.718,6.1,1.753,9.341,0.689c1.352-0.445,2.87-0.889,4.231-0.713c4.258,0.55,8.168-0.743,12.115-1.877
		c1.907-0.548,3.851-1.147,5.579-2.092c3.631-1.983,5.972-5.294,8.182-8.676c2.929-4.484,5.854-8.97,8.784-13.454
		c3.45-5.283,7.843-9.848,9.774-16.231c1.98-6.544,1.846-12.992,1.339-19.562c-0.144-1.872-0.762-3.719-1.288-5.539
		c-0.197-0.685-0.608-1.573-1.17-1.837c-1.62-0.757-1.846-2.168-2.016-3.6c-0.759-6.387-3.921-11.724-7.308-16.971
		c-0.478-0.738-1.018-1.442-1.433-2.214c-3.427-6.376-7.601-12.364-9.912-19.328c-0.305-0.918-1.24-1.877-2.13-2.306
		c-3-1.445-6.19-2.5-9.155-4.004c-2.952-1.497-5.703-1.37-8.679-0.158c-2.932,1.192-8.068,0.032-10.845-2.171
		c0.745-1.389,1.82-0.87,2.894-0.538c3.25,1.008,6.418,1.548,9.774-0.019c1.251-0.584,3.188-0.455,4.537,0.064
		c4.678,1.799,9.291,3.795,13.809,5.968c1.721,0.827,3.117,2.331,5.14,3.898c-2.938,1.116-1.89,2.666-1.217,3.975
		c1.834,3.558,3.755,7.073,5.734,10.553c1.286,2.262,2.731,4.431,4.104,6.641c0.458-0.582,0.519-0.93,0.408-1.212
		c-2.633-6.716-4.202-13.856-8.099-20.069c-0.995-1.586-1.554-3.39-3.252-4.552c-3.243-2.22-6.3-4.714-10.593-4.486
		c-0.515,0.027-1.102-0.662-1.603-1.079c-2.297-1.921-4.574-3.862-6.945-5.869c-0.7,0.807-1.288,1.628-2.016,2.295
		c-1.977,1.814-4.639,1.983-6.734,0.393c-0.357-0.272-0.385-0.982-0.592-1.572c0.558-0.048,0.798-0.142,0.974-0.072
		c3.653,1.43,4.611,1.085,6.449-2.182c0.405-0.721,1.04-1.312,1.664-2.079c2.34,2.168,4.459,4.082,6.519,6.059
		c1.243,1.192,2.411,2.232,4.389,1.628c0.591-0.182,1.451,0.376,2.142,0.696c2.007,0.927,3.992,1.907,5.985,2.865L316.749,286.956z
		 M229.315,426.195c0.117,0.073,0.435,0.215,0.685,0.435c4.809,4.249,10.507,7.126,15.9,10.497
		c7.156,4.472,15.43,5.524,23.155,8.235c0.31,0.11,0.663,0.1,0.998,0.129c7.636,0.668,15.262,1.604,22.912,1.913
		c5.776,0.235,11.634,0.056,17.367-0.648c5.609-0.687,11.153-2.096,16.638-3.528c3.042-0.796,6.271-1.441,9.009-3.692
		c-3.609-3.747-5.696-8.148-7.016-12.912c-2.668-9.631-2.649-19.443-1.313-29.226c0.874-6.395,2.416-12.697,3.657-19.042
		c0.203-1.043,0.392-2.09,0.631-3.38c-0.528,0.342-0.89,0.456-1.059,0.703c-4.233,6.158-8.818,12.076-12.229,18.791
		c-2.038,4.011-4.856,7.529-8.9,9.717c-1.627,0.879-3.55,1.259-5.375,1.713c-2.904,0.723-5.838,1.827-8.766,1.846
		c-4.045,0.026-7.937,0.521-11.82,1.504c-2.264,0.573-4.401,0.165-6.38-1.087c-1.035-0.655-2.104-1.257-3.13-1.926
		c-4.399-2.863-8.815-5.671-11.818-10.204c-1.716-2.591-3.735-4.99-5.691-7.416c-4.838-5.992-9.814-11.875-13.038-18.982
		c-0.948-2.089-2.091-4.091-3.153-6.147c-3.761,2.896-4.706,7.156-4.944,11.071c-0.418,6.874-0.362,13.889,0.533,20.707
		c1.304,9.924,5.524,18.77,12.339,26.264c1.204,1.322,2.205,2.829,3.3,4.25c-0.161,0.176-0.324,0.353-0.486,0.527
		c-0.592-0.329-1.314-0.537-1.758-1.006c-6.973-7.364-11.75-15.925-14.197-25.812c-1.414-5.719-1.449-11.505-1.411-17.32
		c0.008-1.125-0.101-2.253-0.155-3.379c-0.258,0.015-0.516,0.031-0.772,0.048c-0.25,7.834-0.217,15.692-0.828,23.5
		C231.582,410.212,230.329,418.037,229.315,426.195z M339.949,363.134c-1.381,2.013-2.421,3.434-3.354,4.922
		c-0.583,0.93-1.169,1.914-1.466,2.956c-1.093,3.865-2.129,7.747-3.063,11.652c-0.647,2.704-0.918,5.506-1.664,8.177
		c-1.793,6.423-1.931,13.067-2.042,19.589c-0.108,6.401,0.896,12.876,3.109,19.044c1.338,3.725,3.394,6.946,6.135,9.974
		c5.67-2.355,11.215-4.659,16.724-6.947c0-0.74,0.099-1.205-0.017-1.606c-0.871-3.002-1.805-5.986-2.679-8.988
		c-1.909-6.566-3.326-13.226-3.198-20.105c0.152-8.038,0.441-16.075,0.645-24.114c0.027-1.083-0.092-2.17-0.143-3.256
		c-0.972,2.208-1.326,4.392-1.702,6.572c-1.766,10.217-3.644,20.417-5.273,30.657c-1.103,6.927-0.627,13.781,2.031,20.382
		c0.158,0.394,0.021,0.907,0.021,2.142c-0.789-1.338-1.272-1.954-1.542-2.651c-1.383-3.563-2.163-7.236-2.37-11.081
		c-0.416-7.792,1.101-15.365,2.44-22.948c1.958-11.092,4.213-22.131,6.153-33.224c0.594-3.392,1.013-6.921,0.756-10.331
		c-0.78-10.334-5.942-18.017-15.155-22.987c0.175,0.813,0.53,1.991,1.03,2.058c1.72,0.229,1.745,1.481,2.002,2.634
		c0.317,1.415,0.434,2.889,0.872,4.262c1.628,5.097,1.799,10.301,1.137,15.535c-0.374,2.943-1.09,5.844-1.702,9.023
		C338.32,364.078,338.813,363.793,339.949,363.134z M224.101,424.991c0.55,2.106,0.843,3.808,2.106,5.262
		C227.602,426.483,227.602,426.483,224.101,424.991z"/>
	<path fill-rule="evenodd" clip-rule="evenodd" fill="#FFFFFF" d="M316.852,287.068c-1.994-0.958-3.978-1.938-5.985-2.865
		c-0.691-0.319-1.551-0.878-2.142-0.696c-1.978,0.604-3.146-0.436-4.389-1.628c-2.06-1.978-4.179-3.891-6.519-6.059
		c-0.624,0.767-1.259,1.358-1.664,2.079c-1.838,3.268-2.795,3.612-6.449,2.182c-0.176-0.07-0.416,0.024-0.974,0.072
		c0.208,0.59,0.235,1.3,0.592,1.572c2.095,1.59,4.757,1.421,6.734-0.393c0.729-0.667,1.316-1.488,2.016-2.295
		c2.371,2.006,4.648,3.948,6.945,5.869c0.501,0.417,1.088,1.106,1.603,1.079c4.293-0.228,7.35,2.267,10.593,4.486
		c1.698,1.162,2.258,2.965,3.252,4.552c3.897,6.213,5.466,13.354,8.099,20.069c0.11,0.282,0.05,0.63-0.408,1.212
		c-1.373-2.209-2.818-4.379-4.104-6.641c-1.979-3.479-3.9-6.995-5.734-10.553c-0.673-1.309-1.721-2.859,1.217-3.975
		c-2.023-1.567-3.419-3.071-5.14-3.898c-4.518-2.173-9.131-4.169-13.809-5.968c-1.349-0.519-3.285-0.648-4.537-0.064
		c-3.355,1.567-6.523,1.027-9.774,0.019c-1.074-0.333-2.149-0.852-2.894,0.538c2.776,2.203,7.913,3.364,10.845,2.171
		c2.976-1.212,5.727-1.339,8.679,0.158c2.965,1.504,6.156,2.559,9.155,4.004c0.89,0.428,1.825,1.387,2.13,2.306
		c2.311,6.964,6.485,12.951,9.912,19.328c0.415,0.772,0.955,1.477,1.433,2.214c3.387,5.248,6.549,10.584,7.308,16.971
		c0.169,1.432,0.396,2.842,2.016,3.6c0.562,0.264,0.973,1.152,1.17,1.837c0.526,1.82,1.144,3.667,1.288,5.539
		c0.507,6.569,0.641,13.017-1.339,19.562c-1.931,6.384-6.324,10.949-9.774,16.231c-2.93,4.484-5.855,8.969-8.784,13.454
		c-2.21,3.382-4.551,6.693-8.182,8.676c-1.728,0.945-3.671,1.543-5.579,2.092c-3.947,1.135-7.857,2.428-12.115,1.877
		c-1.362-0.176-2.879,0.268-4.231,0.713c-3.241,1.064-6.314,1.029-9.341-0.689c-3.993-2.267-7.94-4.6-11.109-7.981
		c-1.284-1.372-2.272-3.017-3.491-4.455c-3.387-3.998-6.846-7.935-10.227-11.939c-1.002-1.187-1.936-2.456-2.725-3.793
		c-1.757-2.977-3.594-5.93-5.035-9.06c-1.332-2.896-2.219-6-3.22-9.04c-0.153-0.465,0.06-1.101,0.235-1.614
		c1.58-4.666,0.905-9.255-0.403-13.834c-0.211-0.74-0.468-1.504-0.475-2.259c-0.042-5.15-0.389-10.334,0.06-15.446
		c0.73-8.355,3.277-16.004,11.003-20.72c2.275-1.388,4.759-2.429,7.091-3.729c5.423-3.02,10.303-6.722,13.865-11.89
		c2.001-2.902,3.79-5.953,5.879-9.26c-1.086-0.329-1.739-0.526-2.46-0.745c-3.939,10.719-11.816,17.388-21.577,22.048
		c-9.314,4.449-14.487,11.558-15.141,21.908c-0.514,8.126-0.992,16.261,0.726,24.303c1.059,4.954,0.211,9.523-2.148,13.901
		c-2.107,3.904-4.224,7.802-6.528,12.059c-0.781-4.476-1.638-8.544-2.176-12.654c-0.913-6.979-1.318-14.015-0.87-21.037
		c0.281-4.413,1.043-8.816,1.894-13.166c0.387-1.981,1.504-3.822,2.348-5.861c-1.662-0.191-2.316,1.062-2.898,2.551
		c-1.563,3.996-2.331,8.184-2.484,12.413c-0.234,6.483-0.262,12.984-0.068,19.469c0.09,3.087,1,6.141,1.351,9.232
		c0.767,6.759,1.665,13.517,2.055,20.301c0.631,10.979-0.721,21.858-2.444,32.686c-0.312,1.967-0.61,3.934-0.958,6.174
		c-3.048-1.236-5.231-2.654-6.027-5.87c-2.335-9.432-4.817-18.836-5.486-28.567c-0.338-4.896-0.564-9.858,1.146-14.613
		c0.691-1.924,1.549-3.788,2.353-5.732c-1.299-0.168-2.143,0.782-2.626,2.109c-1.687,4.643-2.47,9.397-2.366,14.385
		c0.224,10.487,2.792,20.542,5.164,30.647c0.126,0.54,0.267,1.081,0.349,1.627c0.031,0.204-0.084,0.429-0.241,1.116
		c-2.787-2.502-5.7-4.6-7.958-7.255c-4.178-4.916-8.117-10.053-11.896-15.285c-6.957-9.634-12.129-20.215-16.099-31.405
		c-1.262-3.559-2.701-7.055-4.098-10.565c-2.4-6.039-4.336-12.168-4.695-18.738c-0.254-4.656-0.793-9.298-1.266-13.94
		c-0.611-6.019,1.442-11.679,2.233-17.508c0.846-6.25,3.422-11.983,5.129-17.972c0.602-2.113,1.928-4.017,2.896-6.029
		c3.143-6.535,6.228-13.07,10.255-19.166c4.562-6.908,10.366-12.548,16.561-17.879c1.524-1.312,3.073-2.593,4.582-3.922
		c5.011-4.413,11.072-7.07,16.895-10.123c0.447-0.233,0.985-0.293,2.001-0.583c-1.729,1.964-3.078,3.495-4.427,5.026
		c0.104,0.111,0.205,0.224,0.307,0.335c2.075-1.61,4.082-3.323,6.25-4.798c1.71-1.162,3.361-2.51,5.725-2.416
		c0.7,0.028,1.359-1.309,2.183-1.586c2.849-0.958,5.765-1.71,8.648-2.565c3.211-0.954,6.4-1.977,9.621-2.892
		c2.571-0.73,5.173-1.344,7.763-2.004c4.21-1.076,8.421-2.14,12.628-3.221c4.743-1.219,9.535-2.287,14.211-3.722
		c4.132-1.269,8.314-1.063,12.521-1.286c8-0.424,15.009,2.851,22.232,5.399c3.463,1.221,7.063,2.198,10.304,3.866
		c3.351,1.723,6.333,4.158,9.488,6.266c2.228,1.489,4.505,2.905,6.698,4.442c1.55,1.086,3.048,2.26,4.479,3.5
		c3.623,3.139,6.992,6.609,10.832,9.446c5.397,3.987,9.5,9.124,13.604,14.257c2.772,3.466,5.77,6.77,7.71,10.902
		c2.464,5.248,5.382,10.284,8.02,15.454c0.806,1.582,1.383,3.289,1.98,4.968c1.566,4.412,3.269,8.789,4.573,13.279
		c1.273,4.385,2.194,8.879,3.125,13.354c0.358,1.733,0.323,3.549,0.461,5.327c0.389,5.002,0.798,10.003,1.156,15.007
		c0.198,2.781,0.357,5.565,0.448,8.352c0.199,6.164-1.007,12.212-1.538,18.316c-0.741,8.531-4.499,15.824-8.787,22.901
		c-2.83,4.671-5.794,9.334-9.276,13.521c-3.982,4.788-8.553,9.097-12.972,13.507c-3,2.995-6.165,5.823-9.285,8.694
		c-4.965,4.565-10.648,7.978-17.233,10.617c-0.83-2.341-1.757-4.595-2.431-6.922c-2.874-9.936-4.501-19.996-3.576-30.418
		c0.493-5.554,0.506-11.163,0.478-16.745c-0.031-5.702,0.135-11.354,1.275-16.965c0.31-1.519,0.313-3.117,0.317-4.679
		c0.023-11.184,0.239-22.377-0.112-33.551c-0.127-4.016-1.237-8.116-4.151-11.384c-0.849-0.952-1.438-2.221-1.871-3.442
		c-1.867-5.25-3.63-10.536-5.436-15.808c-0.217-0.633-0.371-1.314-0.716-1.872c-3.297-5.341-5.224-11.326-7.994-16.905
		c-5.688-11.456-15.056-18.635-27.196-22.243c-2.319-0.689-4.827-0.821-7.263-1.003c-2.284-0.17-4.042,0.835-5.341,2.812
		c-1.797,2.735-1.414,4.405,1.616,6.073c0.032-0.201,0.165-0.477,0.081-0.591c-2.661-3.578,0.392-6.689,4.075-6.649
		c4.711,0.054,8.998,1.523,13.176,3.456c10.091,4.664,17.058,12.282,21.541,22.939c-1.599-0.466-2.424-1.318-3.25-2.093
		c-9.298-8.739-20.435-12.438-33.049-12.088c-3.193,0.089-6.458,2.836-7.193,6.074c-0.283,1.248,0.323,1.9,1.837,1.793
		c-0.264-2.67,1.442-4.235,3.312-5.674c0.416-0.321,0.962-0.646,1.456-0.656c2.797-0.063,5.697-0.496,8.374,0.078
		c4.217,0.902,8.354,2.325,12.404,3.85c5.877,2.209,10.427,6.393,14.91,10.636c2.962,2.802,3.639,6.558,4.511,10.246
		c0.352,1.483,0.61,2.99,1.295,4.443c0-1.898,0-3.796,0-6.259c2.78,5.042,3.959,10.107,5.622,15.603
		c-3.778-2.367-7.163-4.526-10.592-6.611c-1.134-0.687-2.354-1.273-3.603-1.72c-0.476-0.171-1.139,0.177-2.435,0.426
		c1.231,0.749,1.835,1.123,2.443,1.486c4.586,2.724,9.552,4.893,13.232,8.948c5.767,6.355,9.208,13.446,8.311,22.419
		c-0.452,4.507,0.29,9.132,0.456,13.705c0.058,1.559,0.01,3.122,0.01,5.464c-0.76-1.12-1.235-1.626-1.487-2.225
		c-1.571-3.728-3.685-7.124-6.169-10.295c-1.171-1.494-2.6-2.518-4.374-3.425c-2.75-1.407-5.128-3.636-5.894-6.906
		c-2.394-10.244-5.929-20.094-10.069-29.743c-1.14-2.657-2.09-5.419-5.096-6.679c-0.43-0.179-0.657-0.843-0.981-1.288
		c4.8,0.608,7.27-2.399,9.379-6.011c0.56-0.958,0.651-1.911,0.328-3.021c-1.246,1.451-2.182,3.035-3.208,4.56
		c-2.099,3.118-6.305,3.66-7.806-0.391c-0.049-0.132-0.364-0.167-0.571-0.252c-1.319,0.666-0.962,1.587-0.303,2.464
		C315.283,285.257,316.085,286.148,316.852,287.068z M253.208,346.284c0.363,2.383,1.802,3.924,3.86,5.023
		c1.768,0.944,3.471,2.014,5.258,2.917c0.775,0.392,1.728,0.793,2.537,0.692c4.827-0.607,8.398-3.493,12.23-6.671
		c-2.209-0.987-3.405,0.998-5.109,0.861c0.244-1.209,0.456-2.253,0.668-3.307c3.006,0.86,3.006,0.86,4.152-0.597
		c-1.847-1.348-3.756-2.624-5.533-4.062c-2.246-1.819-4.538-2.626-7.375-1.349c-3.636,1.636-7.348,3.109-11.027,4.655
		c-0.512,0.215-1.018,0.444-1.525,0.667c0.169,0.26,0.338,0.518,0.507,0.776c0.473,0.158,0.944,0.315,1.417,0.474L253.208,346.284z
		 M222.007,392.983c0.165,0.028,0.33,0.059,0.496,0.087c0.433-1.813,1.019-3.608,1.268-5.446c0.938-6.957,1.93-13.912,2.587-20.898
		c0.5-5.304,0.519-10.744-1.271-15.804c-3.267-9.233-3.258-19.075-5.758-28.428c0.3-6.528-0.378-13,1.545-19.561
		c2.911-9.915,6.655-19.175,13.909-26.718c4.181-4.35,8.448-8.58,13.952-11.337c3.489-1.75,7.132-3.37,10.225-5.69
		c5.489-4.123,12.08-2.688,16.723,0.742c1.075,0.794,2.192,1.501,1.015,3.697c1.676-0.823,2.618-1.285,3.919-1.925
		c-1.837-2.245-4.021-3.51-6.109-4.506c-4.513-2.156-9.253-3.261-14.084-0.562c-4.094,2.287-8.199,4.563-12.386,6.666
		c-8.026,4.03-13.795,10.566-19.157,17.433c-3.791,4.855-6.182,10.555-8.117,16.425c-2.392,7.266-4.069,14.587-2.978,22.312
		c0.53,3.749,0.98,7.511,1.374,11.278c0.685,6.56,1.847,13.025,3.821,19.32c1.411,4.508,2.385,9.164,2.122,13.807
		c-0.408,7.216-1.515,14.393-2.312,21.589C222.51,387.969,222.267,390.477,222.007,392.983z M307.02,381.885
		c-2.728-1.461-5.173-2.873-7.716-4.08c-0.83-0.393-1.921-0.41-2.873-0.337c-3.326,0.255-6.637,0.693-9.964,0.935
		c-4.898,0.356-8.008,3.268-10.445,6.585c0.604,4.693,5.627,4.549,7.342,8.171c2.604-0.647,5.278-1.337,7.965-1.977
		c1.68-0.4,3.397-1.065,4.73,0.381c2.095-1.689,4.073-3.127,5.863-4.768C303.717,385.149,306.55,384.442,307.02,381.885z
		 M313.952,337.525c-1.528,1.299-1.559,1.437-3.028,1.116c-5.196-1.13-8.746,1.34-11.752,5.008c0.756,4.529,4.526,6.238,7.534,8.539
		c1.307,1,2.998,0.875,4.348-0.33c1.995-1.782,3.978-3.578,5.932-5.404c1.671-1.56,3.296-3.169,5.411-5.209
		c-1.765-0.475-3.03-1.261-4.003-0.99C315.974,340.926,314.809,339.916,313.952,337.525z M321.903,314.888
		c-0.797-0.524-0.889-0.636-0.972-0.63c-0.659,0.042-1.336,0.027-1.971,0.177c-4.695,1.113-9.288,1.538-14.151,0.316
		c-2.896-0.728-5.502,1.306-7.407,3.672c-0.197,0.245-0.026,0.787-0.026,1.147c0.303,0.065,0.438,0.139,0.508,0.099
		c0.467-0.268,0.985-0.491,1.367-0.854c2.429-2.312,5.167-2.873,8.309-1.658c2.881,1.114,5.731,0.053,8.548-0.373
		C317.899,316.514,319.603,315.665,321.903,314.888z M245.525,326.8c0.977-0.881,1.562-1.221,1.883-1.727
		c2.258-3.565,5.295-5.042,9.566-4.178c2.666,0.541,5.311-0.178,7.792-1.256c0.56-0.245,0.965-0.848,1.443-1.286
		c-4.009,0.941-7.822,1.126-11.709,0.612C250.467,318.431,246.369,321.709,245.525,326.8z M283.109,366.97
		c-1.933,0.255-3.594-1.358-5.368,0.18c0.712,1.491,1.361,2.851,2.083,4.359C281.717,370.953,283.076,369.952,283.109,366.97z
		 M291.097,370.352c1.853-1.316,3.341-2.372,5.347-3.796c-1.752-0.599-2.928-1-4.174-1.427
		C291.229,366.845,290.413,368.216,291.097,370.352z"/>
	<path fill-rule="evenodd" clip-rule="evenodd" fill="#FFFFFF" d="M229.315,426.195c1.014-8.159,2.267-15.983,2.883-23.858
		c0.611-7.808,0.578-15.665,0.828-23.5c0.256-0.017,0.514-0.033,0.772-0.048c0.054,1.126,0.163,2.253,0.155,3.379
		c-0.038,5.814-0.002,11.601,1.411,17.32c2.448,9.887,7.224,18.447,14.197,25.812c0.444,0.47,1.166,0.677,1.758,1.006
		c0.162-0.175,0.325-0.351,0.486-0.527c-1.095-1.421-2.096-2.928-3.3-4.25c-6.815-7.495-11.035-16.34-12.339-26.264
		c-0.895-6.818-0.951-13.833-0.533-20.707c0.238-3.915,1.183-8.175,4.944-11.071c1.062,2.056,2.205,4.059,3.153,6.147
		c3.224,7.107,8.2,12.99,13.038,18.982c1.957,2.425,3.975,4.824,5.691,7.416c3.003,4.533,7.418,7.341,11.818,10.204
		c1.026,0.668,2.096,1.271,3.13,1.926c1.979,1.252,4.116,1.66,6.38,1.087c3.883-0.984,7.775-1.478,11.82-1.504
		c2.928-0.019,5.862-1.123,8.766-1.846c1.826-0.455,3.749-0.834,5.375-1.713c4.043-2.188,6.862-5.707,8.9-9.717
		c3.412-6.714,7.997-12.632,12.229-18.791c0.169-0.247,0.531-0.361,1.059-0.703c-0.24,1.29-0.428,2.336-0.631,3.38
		c-1.241,6.345-2.783,12.647-3.657,19.042c-1.335,9.782-1.354,19.595,1.313,29.226c1.319,4.764,3.406,9.166,7.016,12.912
		c-2.739,2.251-5.967,2.896-9.009,3.692c-5.485,1.433-11.029,2.841-16.638,3.528c-5.733,0.704-11.591,0.883-17.367,0.648
		c-7.65-0.309-15.276-1.244-22.912-1.913c-0.334-0.029-0.688-0.019-0.998-0.129c-7.725-2.711-16-3.763-23.155-8.235
		c-5.393-3.371-11.092-6.248-15.9-10.497C229.75,426.41,229.432,426.268,229.315,426.195z"/>
	<path fill-rule="evenodd" clip-rule="evenodd" fill="#FFFFFF" d="M339.949,363.134c-1.136,0.659-1.629,0.944-2.313,1.341
		c0.611-3.179,1.328-6.08,1.702-9.023c0.662-5.234,0.492-10.438-1.137-15.535c-0.438-1.374-0.555-2.848-0.872-4.262
		c-0.257-1.153-0.282-2.405-2.002-2.634c-0.5-0.067-0.855-1.244-1.03-2.058c9.212,4.97,14.375,12.653,15.155,22.987
		c0.256,3.409-0.163,6.939-0.756,10.331c-1.94,11.093-4.195,22.132-6.153,33.224c-1.339,7.583-2.855,15.156-2.44,22.948
		c0.207,3.845,0.987,7.518,2.37,11.081c0.27,0.697,0.753,1.313,1.542,2.651c0-1.235,0.137-1.748-0.021-2.142
		c-2.658-6.601-3.133-13.455-2.031-20.382c1.63-10.24,3.508-20.44,5.273-30.657c0.376-2.18,0.73-4.364,1.702-6.572
		c0.051,1.086,0.17,2.172,0.143,3.256c-0.203,8.039-0.493,16.076-0.645,24.114c-0.128,6.879,1.289,13.539,3.198,20.105
		c0.874,3.002,1.808,5.986,2.679,8.988c0.116,0.401,0.017,0.866,0.017,1.606c-5.509,2.289-11.054,4.592-16.724,6.947
		c-2.741-3.028-4.797-6.249-6.135-9.974c-2.213-6.167-3.217-12.643-3.109-19.044c0.111-6.521,0.249-13.166,2.042-19.589
		c0.745-2.671,1.017-5.474,1.664-8.177c0.935-3.905,1.97-7.787,3.063-11.652c0.296-1.042,0.883-2.026,1.466-2.956
		C337.528,366.567,338.568,365.146,339.949,363.134z"/>
	<path fill-rule="evenodd" clip-rule="evenodd" fill="#FFFFFF" d="M224.101,424.991c3.501,1.493,3.501,1.493,2.106,5.262
		C224.944,428.799,224.65,427.097,224.101,424.991z"/>
	<path fill-rule="evenodd" clip-rule="evenodd" d="M222.007,392.983c0.26-2.507,0.502-5.015,0.781-7.519
		c0.798-7.196,1.905-14.373,2.312-21.589c0.264-4.644-0.71-9.299-2.122-13.807c-1.974-6.295-3.136-12.76-3.821-19.32
		c-0.394-3.767-0.843-7.529-1.374-11.278c-1.091-7.725,0.586-15.047,2.978-22.312c1.935-5.87,4.326-11.569,8.117-16.425
		c5.362-6.867,11.13-13.403,19.157-17.433c4.187-2.103,8.292-4.379,12.386-6.666c4.831-2.699,9.571-1.594,14.084,0.562
		c2.088,0.996,4.272,2.262,6.109,4.506c-1.302,0.64-2.244,1.103-3.919,1.925c1.178-2.196,0.06-2.903-1.015-3.697
		c-4.643-3.43-11.234-4.865-16.723-0.742c-3.092,2.321-6.735,3.941-10.225,5.69c-5.504,2.758-9.771,6.988-13.952,11.337
		c-7.253,7.543-10.998,16.803-13.909,26.718c-1.924,6.56-1.246,13.032-1.545,19.561c2.5,9.353,2.491,19.195,5.758,28.428
		c1.79,5.06,1.771,10.5,1.271,15.804c-0.657,6.986-1.648,13.941-2.587,20.898c-0.249,1.838-0.835,3.633-1.268,5.446
		C222.337,393.042,222.172,393.012,222.007,392.983z"/>
	<path fill-rule="evenodd" clip-rule="evenodd" d="M253.269,346.362c-0.473-0.158-0.944-0.316-1.417-0.474
		c-0.169-0.259-0.338-0.517-0.507-0.776c0.507-0.223,1.014-0.451,1.525-0.667c3.679-1.546,7.391-3.019,11.027-4.655
		c2.837-1.277,5.13-0.47,7.375,1.349c1.777,1.438,3.686,2.714,5.533,4.062c-1.146,1.457-1.146,1.457-4.152,0.597
		c-0.213,1.054-0.424,2.098-0.668,3.307c1.704,0.137,2.9-1.848,5.109-0.861c-3.832,3.178-7.403,6.064-12.23,6.671
		c-0.809,0.101-1.762-0.301-2.537-0.692c-1.787-0.902-3.49-1.972-5.258-2.917c-2.058-1.099-3.497-2.64-3.85-5.011
		c2.217,1.313,4.424,2.612,7.155,4.218c-0.379-2.497-0.662-4.358-0.958-6.31C257.205,344.98,255.237,345.672,253.269,346.362z
		 M269.436,351.128c0.339-2.14,0.879-4.169,0.917-6.208c0.038-1.963-1.195-2.936-3.175-3.114c-2.294-0.209-4.653,1.561-5.027,3.773
		c-0.394,2.339,0.901,4.445,3.287,5.067C266.584,350.945,267.81,350.943,269.436,351.128z"/>
	<path fill-rule="evenodd" clip-rule="evenodd" d="M307.02,381.885c-0.47,2.557-3.303,3.264-5.097,4.911
		c-1.791,1.641-3.768,3.078-5.863,4.768c-1.333-1.447-3.051-0.781-4.73-0.381c-2.687,0.64-5.362,1.33-7.965,1.977
		c-1.714-3.622-6.738-3.478-7.342-8.171c2.437-3.317,5.547-6.229,10.445-6.585c3.327-0.242,6.639-0.68,9.964-0.935
		c0.952-0.072,2.043-0.056,2.873,0.337C301.846,379.013,304.292,380.424,307.02,381.885z M278.275,385.854
		c1.298,2.939,4.387,3.122,6.349,4.824c0.166,0.142,0.628-0.026,0.942-0.094c2.7-0.585,5.428-1.075,8.089-1.803
		c3.759-1.026,7.119-2.819,10.073-5.812c-2.157-1.32-4.108-2.514-6.158-3.769c-3.404,1.94-7.261,1.54-10.992,1.753
		C282.957,381.158,280.22,382.591,278.275,385.854z"/>
	<path fill-rule="evenodd" clip-rule="evenodd" d="M313.952,337.525c0.857,2.391,2.022,3.4,4.442,2.729
		c0.973-0.271,2.238,0.516,4.003,0.99c-2.115,2.04-3.74,3.649-5.411,5.209c-1.954,1.826-3.937,3.622-5.932,5.404
		c-1.351,1.205-3.042,1.331-4.348,0.33c-3.007-2.301-6.778-4.009-7.534-8.539c3.006-3.668,6.556-6.138,11.752-5.008
		C312.393,338.962,312.423,338.824,313.952,337.525z M307.026,341.031c-1.414,2.553-1.459,4.735,0.401,6.884
		c1.818,2.102,4.205,2.094,5.236-0.446c0.667-1.64,1.136-3.848,0.562-5.376c-0.656-1.751-2.998-1.452-4.773-1.382
		C308.021,340.727,307.597,340.897,307.026,341.031z M304.52,347.969c-0.347-2.218-0.57-3.644-0.852-5.438
		c-0.933,0.726-1.645,1.279-2.672,2.078C302.178,345.734,303.107,346.622,304.52,347.969z M315.76,344.771
		c0.762-0.699,1.343-1.232,2.27-2.083C315.974,342.375,315.106,342.612,315.76,344.771z"/>
	<path fill-rule="evenodd" clip-rule="evenodd" d="M321.903,314.888c-2.3,0.777-4.004,1.626-5.794,1.896
		c-2.817,0.426-5.667,1.486-8.548,0.373c-3.143-1.215-5.88-0.655-8.309,1.658c-0.382,0.363-0.9,0.587-1.367,0.854
		c-0.07,0.04-0.205-0.034-0.508-0.099c0-0.361-0.17-0.903,0.026-1.147c1.905-2.366,4.511-4.399,7.407-3.672
		c4.863,1.221,9.456,0.797,14.151-0.316c0.635-0.15,1.312-0.135,1.971-0.177C321.015,314.251,321.106,314.364,321.903,314.888z"/>
	<path fill-rule="evenodd" clip-rule="evenodd" d="M245.525,326.8c0.843-5.091,4.941-8.369,8.976-7.835
		c3.887,0.514,7.7,0.33,11.709-0.612c-0.478,0.438-0.883,1.041-1.443,1.286c-2.481,1.078-5.127,1.796-7.792,1.256
		c-4.271-0.865-7.309,0.613-9.566,4.178C247.088,325.58,246.502,325.919,245.525,326.8z"/>
	<path fill-rule="evenodd" clip-rule="evenodd" d="M316.852,287.068c-0.767-0.919-1.569-1.811-2.287-2.768
		c-0.659-0.877-1.017-1.798,0.303-2.464c0.207,0.086,0.521,0.12,0.571,0.252c1.501,4.05,5.707,3.508,7.806,0.391
		c1.026-1.524,1.962-3.109,3.208-4.56c0.324,1.111,0.232,2.063-0.328,3.021c-2.109,3.612-4.579,6.62-9.379,6.011
		C316.749,286.956,316.852,287.068,316.852,287.068z"/>
	<path fill-rule="evenodd" clip-rule="evenodd" d="M283.109,366.97c-0.034,2.982-1.393,3.983-3.284,4.539
		c-0.722-1.508-1.372-2.868-2.083-4.359C279.515,365.612,281.176,367.225,283.109,366.97z"/>
	<path fill-rule="evenodd" clip-rule="evenodd" d="M291.097,370.352c-0.684-2.136,0.133-3.507,1.173-5.224
		c1.246,0.427,2.422,0.828,4.174,1.427C294.438,367.98,292.95,369.036,291.097,370.352z"/>
	<path fill-rule="evenodd" clip-rule="evenodd" fill="#FFFFFF" d="M269.436,351.128c-1.626-0.185-2.852-0.183-3.998-0.482
		c-2.385-0.622-3.681-2.728-3.287-5.067c0.375-2.212,2.733-3.982,5.027-3.773c1.979,0.178,3.213,1.15,3.175,3.114
		C270.315,346.959,269.775,348.988,269.436,351.128z"/>
	<path fill-rule="evenodd" clip-rule="evenodd" fill="#FFFFFF" d="M253.269,346.362c1.969-0.69,3.937-1.382,6.147-2.159
		c0.296,1.952,0.578,3.813,0.958,6.31c-2.73-1.606-4.938-2.905-7.155-4.218C253.208,346.284,253.269,346.362,253.269,346.362z"/>
	<path fill-rule="evenodd" clip-rule="evenodd" fill="#FFFFFF" d="M278.275,385.854c1.945-3.263,4.682-4.696,8.304-4.901
		c3.731-0.213,7.588,0.188,10.992-1.753c2.05,1.254,4.001,2.449,6.158,3.769c-2.954,2.994-6.313,4.786-10.073,5.812
		c-2.661,0.728-5.389,1.218-8.089,1.803c-0.314,0.068-0.777,0.236-0.942,0.094C282.662,388.976,279.573,388.793,278.275,385.854z
		 M294.945,384.28c-0.082-0.234-0.164-0.468-0.245-0.703c-4.432,0.139-7.637,1.13-10.098,3.228c0.472,0.177,0.892,0.509,1.183,0.42
		C288.85,386.281,291.894,385.272,294.945,384.28z"/>
	<path fill-rule="evenodd" clip-rule="evenodd" fill="#FFFFFF" d="M307.026,341.031c0.57-0.133,0.995-0.304,1.426-0.32
		c1.775-0.069,4.117-0.369,4.773,1.382c0.574,1.528,0.105,3.736-0.562,5.376c-1.032,2.54-3.418,2.547-5.236,0.446
		C305.567,345.766,305.613,343.584,307.026,341.031z"/>
	<path fill-rule="evenodd" clip-rule="evenodd" fill="#FFFFFF" d="M304.52,347.969c-1.413-1.347-2.342-2.234-3.524-3.36
		c1.028-0.799,1.739-1.352,2.672-2.078C303.949,344.325,304.173,345.751,304.52,347.969z"/>
	<path fill-rule="evenodd" clip-rule="evenodd" fill="#FFFFFF" d="M315.76,344.771c-0.653-2.159,0.214-2.396,2.27-2.083
		C317.103,343.54,316.521,344.072,315.76,344.771z"/>
	<path fill-rule="evenodd" clip-rule="evenodd" d="M294.945,384.28c-3.051,0.992-6.095,2.001-9.16,2.944
		c-0.291,0.089-0.711-0.243-1.183-0.42c2.461-2.098,5.666-3.088,10.098-3.228C294.781,383.812,294.863,384.046,294.945,384.28z"/>
</g>
<g>
	<path fill-rule="evenodd" clip-rule="evenodd" d="M365.862,202.707c0.947-2.881,1.919-5.27,2.504-7.752
		c1.041-4.422,1.72-8.933,2.794-13.347c0.947-3.884,2.218-7.688,3.365-11.521c1.254-4.196,2.53-8.386,3.973-13.158
		c5.443-0.65,11.428-1.382,17.418-2.066c1.235-0.142,2.542,0.102,3.726-0.194c12.66-3.171,25.688-3.681,38.543-5.412
		c10.403-1.4,20.809-2.798,31.239-3.955c6.042-0.671,12.148-0.754,18.205-1.3c6.733-0.606,13.447-1.444,20.171-2.172
		c2.749-0.297,5.495-0.711,8.252-0.823c4.203-0.169,8.144-1.182,12.078-2.656c6.389-2.396,9.373-7.419,9.68-13.602
		c0.413-8.345-0.273-16.741-0.322-25.116c-0.034-5.804,0.235-11.608,0.329-17.414c0.13-7.878,0.114-15.76,0.363-23.633
		c0.28-8.81-1.025-17.423-3.58-25.761c-2.066-6.745-4.77-13.582-11.606-16.972c-4.77-2.364-9.852-4.197-15.288-4.881
		c-9.691-1.222-19.281,0.673-28.931,0.719c-3.65,0.017-7.28,1.449-10.945,2.085c-4.218,0.731-8.45,1.431-12.702,1.91
		c-8.5,0.955-17.028,1.664-25.523,2.654c-3.418,0.397-6.759,1.436-10.175,1.887c-6.831,0.904-13.687,1.606-20.532,2.386
		c-6.443,0.735-12.872,1.658-19.336,2.134c-5.521,0.406-11.082,0.23-16.622,0.444c-2.037,0.078-4.054,0.579-6.089,0.798
		c-2.191,0.236-4.403,0.603-6.587,0.502c-9.806-0.45-19.517,0.535-29.17,1.984c-6.103,0.916-11.497,3.907-16.602,7.25
		c-2.193,1.436-3.341,3.545-3.941,6.416c-3.02,14.436-1.445,29.003-1.432,43.486c0.008,7.931,1.853,15.858,2.877,23.788
		c1.151,8.899,1.886,17.814,0.629,26.936c-0.294-0.807-0.707-1.591-0.854-2.423c-0.189-1.085-0.263-2.211-0.22-3.312
		c0.337-8.211-1.215-16.244-2.188-24.339c-0.823-6.84-1.543-13.708-1.938-20.583c-0.427-7.446-0.5-14.914-0.59-22.373
		c-0.096-8.165,0.707-16.254,2.103-24.307c0.323-1.861,1.067-3.01,2.506-3.994c8.385-5.728,17.394-9.584,27.757-9.806
		c4.798-0.103,9.586-0.621,14.379-0.951c0.553-0.038,1.106-0.11,1.659-0.125c6.622-0.187,13.244-0.456,19.87-0.518
		c5.525-0.053,10.957-0.307,16.442-1.431c5.241-1.074,10.749-0.766,16.098-1.413c9.591-1.157,19.149-2.604,28.73-3.871
		c4.654-0.615,9.331-1.064,13.989-1.644c9.324-1.158,18.755-1.806,27.94-3.663c13.305-2.69,26.68-2.441,40.082-2.361
		c2.409,0.014,4.823,0.974,7.216,1.58c0.923,0.236,1.763,0.838,2.691,1.042c8.207,1.801,13.015,7.35,16.201,14.659
		c3.644,8.358,5.23,17.177,5.27,26.233c0.054,12.749-0.214,25.5-0.218,38.249c-0.005,11.227,0.058,22.457,0.304,33.679
		c0.105,4.782-2.534,8.393-4.617,12.204c-0.681,1.244-2.665,1.954-4.194,2.524c-5.711,2.122-11.561,3.565-17.726,3.734
		c-5.521,0.151-11.135,0.167-16.523,1.206c-8.061,1.554-16.16,1.655-24.278,2.191c-7.961,0.525-15.859,1.973-23.797,2.93
		c-8.913,1.074-17.838,2.041-26.756,3.077c-2.189,0.255-4.401,0.445-6.547,0.919c-8.768,1.932-17.688,2.774-26.566,3.929
		c-2.585,0.336-5.698,0.163-7.544,1.569c-1.662,1.266-1.978,4.357-2.787,6.678c-1.546,4.429-3.12,8.853-4.479,13.341
		c-0.595,1.959-0.646,4.078-1.021,6.108c-0.524,2.829-1.371,5.62-1.628,8.467c-0.417,4.612-2.411,8.671-4.041,12.855
		c-0.305,0.783-1.483,1.453-2.378,1.663c-0.338,0.081-1.195-1.212-1.509-2.002c-1.018-2.556-1.797-5.209-2.844-7.751
		c-3.992-9.688-8.399-19.209-10.987-29.43c-0.604-2.38-1.79-4.613-2.778-7.098c-3.765,0-7.74-0.039-11.713,0.02
		c-1.508,0.021-3.017,0.42-4.518,0.388c-5.114-0.109-10.225-0.4-15.341-0.5c-7.728-0.15-8.656-1.604-10.463-7.692
		c-3.153-10.615-1.177-20.893,3.977-30.604c-0.991,4.278-2.009,8.55-2.966,12.834c-1.312,5.869-1.528,11.693,0.864,17.391
		c1.071,2.553,2.546,4.431,5.575,4.945c3.806,0.645,7.538,1.564,11.442,0.798c0.915-0.179,1.915,0.128,2.876,0.139
		c3.016,0.033,6.034,0.088,9.048,0.015c1.792-0.042,3.581-0.3,5.37-0.475c1.755-0.172,3.536-0.23,5.257-0.58
		c1.87-0.38,3.149,0.192,3.324,2.045c0.632,6.705,3.459,12.776,5.646,18.978c2.597,7.359,6.023,14.424,9.125,21.603
		C364.547,201.539,365.041,201.846,365.862,202.707z"/>
	<path fill-rule="evenodd" clip-rule="evenodd" d="M458.354,97.228c1.162-1.999-1.92-4.355,0.732-6.316
		c2.171,3.49,0.742,8.426,5.597,11.472c0-4.526,0-8.161,0-12.111c2.693,0.242,4.848-1.065,7.015,0.108
		c-0.38,3.159-4.962,0.776-4.954,4.484c2.056,0,4.109,0,6.436,0c-0.386,1.995-0.896,3.066-2.749,2.656
		c-3.558-0.786-3.56-0.779-2.76,3.386c3.422-0.907,6.835-1.812,10.25-2.718c0.105,0.263,0.211,0.524,0.316,0.786
		c-5.082,2.822-11.298,3.603-15.459,8.056c-3.354-0.417-1.391-4.514-4.471-5.989c0.241,2.052,0.426,3.62,0.639,5.435
		c-1.878,0.127-2.303-0.786-2.573-2.142c-0.594-2.969-1.331-5.908-1.995-8.861c-0.43-1.919-1.494-2.49-3.486-1.562
		c0.201,2.264,0.309,4.576,0.642,6.857c0.272,1.849,0.191,3.846,1.916,5.278c0.331,0.276-0.111,1.481-0.235,2.585
		c-2.911-2.305-2.911-2.305-4.573-15.069c-1.208-0.261-2.5-0.754-3.797-0.767c-1.497-0.017-2.312-0.396-2.415-2.068
		c4.345,0.249,8.499,0.487,13.05,0.746C455.787,93.237,456.086,95.716,458.354,97.228z"/>
	<path fill-rule="evenodd" clip-rule="evenodd" d="M391.34,118.232c3.98-0.955,7.641-1.833,11.299-2.711
		c0.054,0.216,0.11,0.431,0.166,0.646c-4.721,1.723-9.439,3.443-14.303,5.22c-3.004-2.801-2.662-6.671-3.645-10.507
		c-0.982,2.972-1.964,5.943-3.175,9.598c-1.501-1.116-2.668-1.982-3.738-2.776c-1.76,0.933,0.826,4.309-2.78,4.219
		c0-0.979-0.12-1.914,0.02-2.807c0.707-4.515,1.482-9.019,2.347-14.22c3.065,3.239,1.479,6.893,2.943,10.051
		c2.347-2.632,1.432-6.827,4.524-8.991c4.198,2.254,0.992,7.131,3.772,10.196c0.429-2.517,0.786-4.674,1.161-6.828
		c0.4-2.32,1.271-4.083,3.949-4.655c1.938-0.414,3.747-1.435,6.021-1.606c-0.441,0.522-0.788,1.197-1.339,1.54
		c-1.408,0.874-2.937,1.55-4.359,2.402c-1.336,0.801-2.531,1.755-1.5,3.961c2.181-0.524,4.38-1.053,6.518-1.569
		c0.909,1.166,0.813,2.023-0.438,2.36c-1.317,0.353-2.7,0.448-4.051,0.678C391.242,113.024,390.772,113.764,391.34,118.232z"/>
	<path fill-rule="evenodd" clip-rule="evenodd" d="M331.157,69.331c-0.562,2.189-0.891,4.465,0.512,6.345
		c2.018,2.705,0.534,5.056,0.268,7.552c-0.276,0.067-0.553,0.135-0.83,0.203c-0.406-0.57-1.094-1.102-1.174-1.713
		c-0.392-3.01-0.519-6.057-0.95-9.062c-0.236-1.643-0.893-3.225-1.5-5.319c0.215-0.858,0.973-2.387,0.902-3.875
		c-0.297-6.205-0.846-12.396-1.294-18.593c-0.035-0.486-0.003-0.98-0.003-1.982c2.663,1.842,2.46,4.291,2.621,6.489
		c0.372,5.098,0.59,10.208,0.884,15.311c0.032,0.541,0.163,1.073,0.279,1.807c1.193,0.23,2.336,0.452,3.832,0.741
		c-0.691-8.431-1.329-16.52-0.106-24.588c0.025-0.165,0.686-0.232,1.312-0.424c0,7.029-0.159,13.883,0.088,20.724
		c0.083,2.316,1.188,4.597,1.996,7.505c-0.123,0.519-0.877,1.906-0.67,3.129c0.729,4.33,1.785,8.604,2.868,13.603
		c-0.882-0.757-1.784-1.144-1.961-1.746c-0.938-3.174-1.732-6.393-2.494-9.615c-0.316-1.337-0.433-2.723-0.625-4.088
		C334.782,69.423,333.459,68.725,331.157,69.331z"/>
	<path fill-rule="evenodd" clip-rule="evenodd" d="M367.216,120.65c-1.777-0.982-3.591-1.305-5.785-0.732
		c-2.132,0.555-4.515,0.132-5.488-2.707c-1.584,1.25-2.849,2.477-4.323,3.354c-2.025,1.205-4.524,0.223-4.882-1.996
		c-0.536-3.318-0.192-6.636,1.405-9.667c0.325-0.618,1.227-0.93,2.371-1.745c-1.065,4.235-3.248,7.831-0.837,12.396
		c1.438-1.364,2.71-2.319,3.666-3.525c2.227-2.813,4.221-5.812,6.463-8.613c1.686-2.107,1.843-2.03,4.756-0.687
		c-5.114,2.746-6.518,5.371-5.26,9.765c1.214-0.736,2.438-1.478,3.933-2.384c-0.83-3.632,2.064-5.437,4.315-7.562
		c1.425-1.345,2.965-1.066,4.265,0.46c1.412,1.653,1.591,3.652,1.036,5.505C371.894,115.696,370.533,118.748,367.216,120.65z
		 M369.921,107.312c-4.901,4.239-5.736,8.061-2.571,10.728C369.772,114.981,372.155,111.987,369.921,107.312z"/>
	<path fill-rule="evenodd" clip-rule="evenodd" d="M515.042,98.845c-0.44-1.881-0.784-3.345-1.23-5.252
		c-1.737,1.734-3.204,3.202-4.987,4.983c-0.864-1.397-1.467-2.373-2.284-3.693c-0.179,1.869-0.33,3.43-0.477,4.972
		c-2.857,3.991-4.871,0.014-7.094-0.857c-2.673,0.846-1.557,5.351-5.636,5.144c0.457-0.97,0.788-1.63,1.08-2.307
		c0.861-1.989,1.333-4.019,1.718-6.186c0.38-2.137,1.192-4.07,0.548-6.318c-0.312-1.082-0.023-1.451,1.399-3.697
		c1.689,4.089,3.248,7.863,4.805,11.638c0.282-0.027,0.563-0.053,0.846-0.077c0.095-4.119,0.382-8.188,2.482-12.258
		c3.907,2.325,1.93,6.323,3.3,9.804c1.703-1.519,3.264-2.906,5.309-4.727c1.182,2.964,2.285,5.736,3.583,8.992
		C517.072,98.941,515.976,98.891,515.042,98.845z"/>
	<path fill-rule="evenodd" clip-rule="evenodd" d="M422.773,72.586c-0.634-2.021-1.268-4.041-2.008-6.397
		c-1.817-0.176-3.682-0.359-5.601-0.544c-1.066,2.275,0.418,3.116,1.848,4.047c-0.544,1.469-1.083,2.933-1.741,4.713
		c-0.521-0.494-1.065-0.768-1.194-1.172c-1.031-3.25-2.167-6.487-2.898-9.81c-0.463-2.105-0.234-4.354-0.401-6.532
		c-0.221-2.889-0.634-5.767-0.73-8.657c-0.032-0.982,0.384-2.432,1.084-2.851c0.624-0.374,2.069,0.153,2.895,0.683
		c2.128,1.366,3.741,3.189,4.497,5.739c1.879,6.34,3.896,12.641,5.767,18.982c0.147,0.499-0.405,1.202-0.634,1.811
		C423.364,72.596,423.068,72.592,422.773,72.586z M419.619,64.538c0.208-6.167-2.706-13.16-6.314-15.707
		c-0.132,0.405-0.374,0.795-0.364,1.176c0.112,3.824,0.2,7.649,0.477,11.462c0.044,0.611,0.889,1.403,1.547,1.682
		C416.334,63.733,417.827,64.025,419.619,64.538z"/>
	<path fill-rule="evenodd" clip-rule="evenodd" d="M330.62,129.878c-1.747-1.347-2.64-2.035-3.816-2.941
		c-0.279,1.812-0.534,3.473-0.789,5.112c-1.616,0.55-2.483,0.191-2.87-1.408c-0.646-2.673-1.373-5.329-2.149-7.968
		c-1.268-4.322-2.602-8.622-3.915-12.958c1.139-0.971,1.761-0.264,2.121,0.755c1.099,3.114,2.147,6.247,3.182,9.383
		c0.379,1.146,0.667,2.321,1.574,3.473c0.097-1.753,0.194-3.508,0.284-5.15c2.718-1.317,2.347,1.808,3.929,2.303
		c0.401-4.364,0.796-8.67,1.206-13.142c0.74,0.119,1.25,0.2,1.243,0.198C330.62,114.82,330.62,121.875,330.62,129.878z"/>
	<path fill-rule="evenodd" clip-rule="evenodd" d="M386.737,67.483c-1.484,1.57-2.729,3.024-4.115,4.325
		c-2.723,2.552-4.396,2.236-5.976-1.166c-0.509-1.097-0.883-2.364-0.903-3.56c-0.04-2.477,0.127-4.967,0.381-7.434
		c0.052-0.502,0.871-0.922,1.679-1.719c0.932,4.761-0.962,9.282,1.361,13.449c2.801-1.102,4.356-2.891,5.629-5.126
		c1.058-1.858,1.194-4.458,4.258-5.946c0,1.619,0.032,2.491-0.007,3.36c-0.084,1.905-0.744,4.062,1.216,5.346
		c2.291,1.497,4.259,0.028,6.031-1.301c0.965-0.725,1.751-1.733,2.482-2.714c1.368-1.842,0.885-3.658-0.36-5.341
		c-1.395-1.881-3.115-1.354-4.837-0.546c-0.585,0.275-1.159,0.571-2.066,1.018c2.021-3.334,4.242-4.208,6.722-2.925
		c2.392,1.236,4.089,5.648,2.661,7.92c-1.221,1.943-2.847,3.786-4.68,5.153c-3.286,2.453-5.863,1.821-8.387-1.537
		C387.518,68.33,387.156,67.961,386.737,67.483z"/>
	<path fill-rule="evenodd" clip-rule="evenodd" d="M355.733,59.509c-3.226,1.506-6.405,2.991-9.903,4.625c0,1.021,0,2.333,0,3.631
		c3.585,0.458,6.588-2.908,10.541-1.327c-1.003,2.956-3.619,1.592-5.257,2.333c-1.713,0.772-3.58,1.209-5.588,1.86
		c0.781,2.384,2.592,2.612,4.308,2.543c1.633-0.066,3.283-0.457,4.862-0.922c1.628-0.481,3.177-1.225,5.458-2.131
		c-3.787,5.217-8.66,5.091-13.556,5.004c-0.162,1.008-0.298,1.858-0.448,2.794c-2.191-0.961-2.588-2.772-2.652-4.557
		c-0.13-3.583-0.034-7.174-0.039-10.763c0-1.345,0.864-2.385,1.975-2.094c2.788,0.734,4.799-0.782,6.973-1.885
		C353.573,58.027,354.622,57.374,355.733,59.509z"/>
	<path fill-rule="evenodd" clip-rule="evenodd" d="M446.142,60.995c2.529-3.598,2.529-3.598,0.455-7.186
		c-2.174,5.161-5.121,9.624-4.935,15.365c-2.199-0.877-2.321-2.659-1.814-3.934c1.981-4.967,4.256-9.817,6.453-14.696
		c0.067-0.149,0.5-0.136,0.996-0.254c1.585,1.17,1.897,3.052,2.364,4.91c0.717,2.847,1.518,3.271,4.433,2.676
		c3.626-0.74,7.254-1.479,11.712-2.389c-2.249,2.386-4.571,2.494-6.657,3.082c-2.23,0.629-4.491,1.157-6.636,1.703
		c-0.639,3.222,2.455,3.931,3.435,5.861c-0.492,1.368-1.353,1.523-2.201,0.619c-0.934-0.994-1.829-2.102-2.431-3.312
		C450.367,61.529,449.119,60.344,446.142,60.995z"/>
	<path fill-rule="evenodd" clip-rule="evenodd" d="M334.745,127.028c-0.86-5.905-1.645-11.281-2.45-16.805c3.541,0,6.608,0,10.226,0
		c-2.089,3.188-5.145,1.41-7.482,2.729c0.045,0.817,0.105,1.839,0.169,2.974c2.864-0.169,5.475-0.336,8.086-0.433
		c0.111-0.003,0.249,0.665,0.474,1.302c-2.726,0.555-5.314,1.081-8.364,1.699c0.465,1.873,0.813,3.271,1.268,5.102
		c1.518-0.757,2.739-1.294,3.887-1.959c1.026-0.593,1.971-1.329,3.189-1.677C342.508,124.317,338.195,124.628,334.745,127.028z"/>
	<path fill-rule="evenodd" clip-rule="evenodd" d="M488.313,97.21c0.548,2.154,1.228,4.809,1.899,7.464
		c0.357,1.41-0.313,2.051-2.123,2.332c-0.216-1.036-0.527-2.014-0.612-3.009c-0.355-4.215-1.001-8.308-3.17-12.082
		c-1.177-2.049-0.304-5.006,1.456-6.279c1.458-1.057,4.252-0.605,6.116,0.989c1.872,1.599,2.479,3.858,1.071,5.909
		C491.83,94.169,490.137,95.413,488.313,97.21z M488.291,94.1c1.954-1.068,3.447-2.053,3.185-3.923
		c-0.279-1.986-1.978-2.775-3.967-3.165C485.176,89.542,487.525,91.459,488.291,94.1z"/>
	<path fill-rule="evenodd" clip-rule="evenodd" d="M433.411,59.598c-2.098,0.688-3.812,0.461-4.554-1.263
		c-0.976-2.266-2.245-4.713,0.003-7.823c0.53,2.733,0.938,4.851,1.401,7.249c4.251-0.943,2.966-6.083,6.499-7.356
		c0.97,1.265,0.789,2.616,0.399,3.887c-1.604,5.236-3.611,10.375-3.614,15.978c0,0.149-0.393,0.296-0.601,0.445
		C431.332,68.649,431.332,68.649,433.411,59.598z"/>
	<path fill-rule="evenodd" clip-rule="evenodd" d="M512.378,86.927c2.637-0.124,5.274-0.247,8.361-0.393
		c0.149,0.25,0.623,1.046,1.257,2.115c0.987-0.67,1.812-1.351,2.744-1.822c0.762-0.384,1.653-0.518,2.486-0.762
		c0.141,0.752,0.482,1.536,0.376,2.251c-0.2,1.348-0.708,2.645-1.001,3.981c-0.627,2.885-1.199,5.781-1.932,9.346
		c-2.918-3.995,0.053-7.252-0.062-10.499c-3.94-1.734-8.463-1.53-12.371-3.288C512.283,87.547,512.331,87.237,512.378,86.927z"/>
	<path fill-rule="evenodd" clip-rule="evenodd" d="M373.317,70.985c-0.52,0.192-1.023,0.47-1.559,0.563
		c-2.438,0.417-4.879,0.812-7.33,1.158c-1.746,0.249-2.806-0.663-2.564-2.333c0.661-4.564,1.535-9.097,2.358-13.831
		c1.8,1.114,1.767,1.107,0.855,6.043c-0.421,2.277-0.681,4.583-1.059,7.184c2.967,0,5.721,0,8.475,0
		C372.769,70.174,373.042,70.58,373.317,70.985z"/>
	<path fill-rule="evenodd" clip-rule="evenodd" d="M429.642,106.701c0.195,1.454,0.348,2.604,0.496,3.699
		c3.218,0.605,3.999,0.26,5.01-2.071c0.758-1.747,0.527-3.289-1.087-4.397c-3.047-2.093-4.631,0.671-6.695,2.096
		c0.676-2.172,1.566-4.076,4.105-4.425c2.402-0.331,3.811,1.247,5.224,2.803c1.305,1.439,1.241,3.015,0.353,4.574
		c-0.542,0.953-1.259,1.822-1.978,2.659c-1.392,1.62-4.005,1.983-5.597,0.84C427.987,111.414,427.987,109.867,429.642,106.701z"/>
	<path fill-rule="evenodd" clip-rule="evenodd" d="M411.608,101.943c0.738-0.94,1.111-1.924,1.726-2.114
		c5.041-1.554,10.106-3.143,15.562-1.615C423.352,99.41,417.806,100.605,411.608,101.943z"/>
	<path fill-rule="evenodd" clip-rule="evenodd" d="M427.369,115.835c-1.571,0.294-2.42,0.69-2.662,0.456
		c-0.864-0.832-2.12-1.859-2.148-2.843c-0.104-3.596-1.594-7.261,0.352-11.265c0.63,0.656,1.439,1.108,1.477,1.618
		c0.095,1.202-0.27,2.433-0.28,3.653C424.083,110.396,423.407,113.539,427.369,115.835z"/>
	<path fill-rule="evenodd" clip-rule="evenodd" fill="#FFFFFF" d="M369.921,107.312c2.233,4.675-0.149,7.669-2.571,10.728
		C364.185,115.373,365.021,111.551,369.921,107.312z"/>
	<path fill-rule="evenodd" clip-rule="evenodd" fill="#FFFFFF" d="M419.619,64.538c-1.792-0.513-3.285-0.805-4.654-1.386
		c-0.658-0.279-1.503-1.071-1.547-1.682c-0.277-3.813-0.365-7.639-0.477-11.462c-0.01-0.381,0.231-0.771,0.364-1.176
		C416.913,51.377,419.827,58.37,419.619,64.538z"/>
	<path fill-rule="evenodd" clip-rule="evenodd" fill="#FFFFFF" d="M488.291,94.1c-0.766-2.641-3.115-4.558-0.783-7.087
		c1.99,0.389,3.688,1.178,3.967,3.165C491.738,92.047,490.245,93.032,488.291,94.1z"/>
</g>
<g>
	<path fill-rule="evenodd" clip-rule="evenodd" d="M487.326,347.308c-3.58,1.5-7.076,2.495-10.077,4.313
		c-10.039,6.083-15.922,15.249-19.055,26.446c-1.652,5.91-2.988,11.815-2.941,17.974c0.006,1.039-0.117,2.122,0.127,3.107
		c1.969,7.916,3.37,16.053,6.214,23.647c2.774,7.404,7.722,13.787,13.36,19.451c1.088,1.092,2.453,1.935,3.78,2.75
		c6.595,4.058,13.701,7.263,21.223,8.663c9.488,1.767,18.894,0.738,27.364-4.674c6.933-4.428,12.89-9.745,15.781-17.721
		c1.458-4.02,2.619-8.147,3.911-12.226c0.039-0.123,0.032-0.264,0.085-0.382c4.133-9.272,2.571-18.654,0.214-27.921
		c-1.9-7.463-5.088-14.334-9.871-20.577c-7.074-9.238-16.507-14.862-26.94-19.232c-0.958-0.403-1.986-0.697-2.858-1.239
		c-6.125-3.813-12.927-4.464-19.899-4.38c-1.813,0.022-3.63,0.003-5.934,0.003c1.245-1.661,2.647-1.68,3.949-1.702
		c7.837-0.137,15.337,0.539,22.76,4.033c7.465,3.513,14.843,7.025,21.407,11.979c8.038,6.071,13.971,13.811,17.131,23.512
		c0.922,2.838,2.412,5.592,2.778,8.494c0.833,6.561,1.294,13.184,1.545,19.795c0.083,2.104-1.065,4.233-1.485,6.384
		c-0.923,4.736-2.431,9.275-4.404,13.667c-2.298,5.108-5.082,9.756-9.422,13.588c-4.973,4.395-10.338,7.743-16.625,9.857
		c-4.438,1.493-8.931,1.727-13.491,1.609c-10.461-0.273-19.717-4.366-28.435-9.646c-6.37-3.859-10.558-9.94-14.366-16.199
		c-4.172-6.856-6.679-14.327-8.01-22.222c-0.601-3.577-1.692-7.105-1.944-10.697c-0.557-8.038,1.228-15.784,3.949-23.292
		c1.231-3.401,2.79-6.697,4.378-9.954c2.078-4.265,4.598-8.176,9.078-10.419c1.129-0.564,2.16-1.501,2.981-2.48
		c2.603-3.104,6.319-3.983,9.882-5.17C484.956,345.953,486.067,346.886,487.326,347.308z"/>
	<path fill-rule="evenodd" clip-rule="evenodd" d="M477.476,383.319c-2.313,4.096-3.004,8.229-3.048,12.651
		c3.052,1.775,3.771,4.59,3.491,8.077c-2.091-0.945-1.929-4.534-5.187-3.715c0.226,4.396,1.13,8.347,6.275,10.195
		c-3.288,0.824-4.707,0.534-5.957-1.816c-1.83-3.433-3.42-7.037-2.154-11.135c0.185-0.607,0.477-1.323,0.318-1.874
		c-2.1-7.28,0.764-13.337,4.543-19.225c0.671-1.045,1.209-2.31,1.368-3.53c0.614-4.728,2.886-8.587,5.995-12.027
		c3.111-3.445,10.397-5.13,15.263-3.022c3.258,1.413,6.478,1.832,9.847,1.58c9.227-0.693,15.27,5.977,17.526,14.155
		c0.68,2.469,0.588,5.146,0.929,7.719c0.366,2.791,0.891,5.562,1.219,8.357c0.184,1.555,0.76,2.541,2.255,3.265
		c0.768,0.373,1.435,1.562,1.592,2.48c0.496,2.867-0.067,5.672-1.159,8.352c-0.102,0.256-0.614,0.348-1.578,0.846
		c0.321-3.142,0.599-5.833,0.881-8.605c-1.298-0.499-2.329-0.894-2.592-0.996c-1.274-3.503-2.145-6.421-3.415-9.154
		c-0.493-1.066-1.75-2.051-2.886-2.497c-3.604-1.416-7.4-2.361-10.97-3.855c-5.874-2.459-11.779-0.795-17.678-0.548
		c-2.845,0.119-5.445,1.126-7.267,3.294C482.83,384.979,480.517,385.955,477.476,383.319z M524.175,382.076
		c0-1.058,0.009-2.221-0.003-3.386c-0.073-6.66-3.081-11.894-8.662-15.156c-6.137-3.591-12.698-2.383-18.625,0.711
		c-6.259,3.264-10.433,8.837-13.931,14.867c-0.324,0.559-0.407,1.256-0.78,2.472c2.18-1.415,3.65-2.771,5.384-3.427
		c6.243-2.356,12.87-2.364,19.225-1.308C512.673,377.828,518.324,380.256,524.175,382.076z M497.537,359.937
		c-1.883,0-3.77-0.065-5.65,0.015c-3.246,0.14-5.88,1.369-8.032,3.983c-2.936,3.566-3.833,7.856-4.823,12.123
		c-0.13,0.565,0.92,1.403,1.741,2.563C485.328,371.005,490.515,364.851,497.537,359.937z"/>
	<path fill-rule="evenodd" clip-rule="evenodd" d="M526.389,405.365c-0.14,1.354-0.088,2.762-0.448,4.053
		c-1.648,5.878-3.433,11.719-5.126,17.583c-0.9,3.11-1.714,6.245-2.688,9.809c-2.688,0.597-5.688,1.26-9.15,2.028
		c1.072,2.104,2.157,4.087,3.073,6.146c0.217,0.484-0.136,1.222-0.28,2.189c-3.119-2.263-3.529-5.565-5.129-8.404
		c-4.588-0.717-9.303-1.454-14.467-2.261c-1.079,3.506-2.078,6.759-3.077,10.013c-0.273-0.04-0.551-0.079-0.827-0.116
		c0.082-1.265-0.045-2.586,0.292-3.78c1.018-3.597,0.331-6.922-1.095-10.25c-1.33-3.1-3.071-6.186-3.566-9.439
		c-0.723-4.722-2.33-9.08-4.675-14.13c1.496,0.447,2.428,0.446,2.66,0.848c0.77,1.34,1.353,2.802,1.9,4.255
		c1.788,4.748,3.5,9.522,5.298,14.265c1.492,3.942,4.114,6.634,8.524,6.952c3.007,0.218,5.962,2.296,9.077,0.293
		c0.281-0.179,0.942,0.239,1.426,0.373c4.391,1.199,7.474-0.119,8.826-4.279c2.052-6.295,3.789-12.692,5.654-19.048
		c0.585-1.997,1.113-4.012,1.759-5.988c0.176-0.536,0.681-0.964,1.038-1.441C525.722,405.145,526.056,405.256,526.389,405.365z"/>
	<path fill-rule="evenodd" clip-rule="evenodd" d="M497.27,421.641c0.143-4.251,3.344-4.779,5.947-5.456
		c3.013-0.783,6.188-0.464,9.164,0.638c0.588,0.22,1.174,0.966,1.345,1.585c0.095,0.344-0.594,1.249-1.053,1.351
		c-4.518,1-9.052,1.922-13.603,2.753C498.577,422.603,497.954,421.988,497.27,421.641z"/>
	<path fill-rule="evenodd" clip-rule="evenodd" d="M521.502,391.569c-3.077,1.599-2.785,5.707-6.59,5.729
		c-0.06,1.193-0.111,2.193-0.171,3.386c-0.653,0-1.311,0.192-1.556-0.042c-0.414-0.402-0.569-1.071-0.831-1.632
		c-0.9-1.945-1.798-3.891-2.844-6.159c0.4-0.269,1.221-0.611,1.741-1.216c0.677-0.795,1.037-2.491,1.676-2.566
		c1.448-0.17,3.011,0.323,4.474,0.73C518.512,390.109,519.542,390.705,521.502,391.569z"/>
	<path fill-rule="evenodd" clip-rule="evenodd" d="M480.441,397.55c4.477-3.917,9.243-6.225,15.181-5.55
		c1.109,2.904-1.62,2.061-2.871,2.794c0.13,0.485,0.375,0.965,0.37,1.44c-0.049,2.607-1.156,3.604-3.65,2.985
		c-1.463-0.364-2.802-1.22-4.766-2.111C483.798,397.045,482.652,399.555,480.441,397.55z"/>
	<path fill-rule="evenodd" clip-rule="evenodd" d="M502.608,413.329c-1.375-2.671-1.388-3.996-0.01-4.344
		c0.601-0.153,1.722,0.321,2.075,0.861C505.72,411.444,505.329,412.023,502.608,413.329z"/>
	<path fill-rule="evenodd" clip-rule="evenodd" d="M509.221,411.347c-1.155-0.441-2.062-0.516-2.233-0.91
		c-0.37-0.852-0.427-1.865-0.439-2.814c-0.003-0.157,1.138-0.593,1.275-0.447c0.566,0.592,1.028,1.325,1.365,2.08
		C509.371,409.664,509.221,410.219,509.221,411.347z"/>
	<path fill-rule="evenodd" clip-rule="evenodd" fill="#FFFFFF" d="M524.175,382.076c-5.851-1.819-11.502-4.248-17.392-5.226
		c-6.355-1.057-12.982-1.048-19.225,1.308c-1.734,0.656-3.204,2.012-5.384,3.427c0.373-1.216,0.456-1.914,0.78-2.472
		c3.498-6.029,7.671-11.603,13.931-14.867c5.927-3.095,12.488-4.302,18.625-0.711c5.581,3.263,8.588,8.497,8.662,15.156
		C524.185,379.854,524.175,381.018,524.175,382.076z"/>
	<path fill-rule="evenodd" clip-rule="evenodd" fill="#FFFFFF" d="M497.537,359.937c-7.022,4.915-12.208,11.068-16.765,18.684
		c-0.821-1.16-1.871-1.998-1.741-2.563c0.99-4.266,1.887-8.556,4.823-12.123c2.152-2.614,4.786-3.844,8.032-3.983
		C493.767,359.871,495.653,359.937,497.537,359.937z"/>
</g>
<g>
	<path fill-rule="evenodd" clip-rule="evenodd" d="M91.777,405.369c4.472-1.882,9.221-3.159,14.105-3.516
		c5.969-0.433,11.967-0.457,17.953-0.657c7.669-0.259,14.596,2.341,21.33,5.612c2.284,1.111,4.445,2.469,6.713,3.613
		c4.438,2.235,7.918,5.692,11.701,8.798c4.602,3.779,8.51,8.122,12.013,12.884c2.44,3.316,4.542,6.769,5.963,10.717
		c2.696,7.487,4.253,15.08,3.838,23.07c-0.193,3.727,0.287,7.51-0.144,11.194c-0.405,3.474-1.604,6.854-2.459,10.275
		c-1.345,5.364-3.702,10.303-6.157,15.234c-2.811,5.647-7.046,10.06-11.367,14.492c-4.253,4.364-9.346,7.402-14.705,10.102
		c-2.704,1.363-5.327,2.941-8.143,4.009c-4.563,1.727-9.438,1.648-14.242,1.814c-1.474,0.051-2.954-0.046-4.428,0.017
		c-5.744,0.242-11.268-0.532-16.823-2.241c-6.611-2.031-12.969-4.58-18.934-7.95c-3.372-1.904-6.404-4.573-9.2-7.295
		c-3.502-3.41-6.839-7.049-9.833-10.911c-5.203-6.709-9.162-14.126-11.269-22.43c-0.916-3.603-2.118-7.158-2.706-10.812
		c-0.79-4.921-0.465-9.899,0.044-14.872c0.684-6.682,2.425-13.086,4.472-19.442c1.491-4.632,4.315-8.317,7.808-11.587
		c6.664-6.241,14.448-10.819,22.49-14.956c2.216-1.14,4.812-1.64,7.295-2.125c1.249-0.243,2.633,0.207,3.955,0.344
		c0,0.225-0.002,0.45-0.003,0.674c-0.472,0-0.944,0.028-1.413-0.005c-4.642-0.345-8.684,1.497-12.481,3.759
		c-4.882,2.909-9.664,6.011-14.313,9.28c-3.455,2.429-6.654,5.308-8.898,8.917c-1.583,2.546-2.767,5.405-3.742,8.257
		c-3.166,9.269-4.828,18.801-4.129,28.628c0.181,2.53,0.551,5.109,1.302,7.521c1.771,5.693,3.351,11.52,5.886,16.877
		c2.924,6.178,6.655,12.007,11.614,16.882c2.593,2.551,5.153,5.137,7.813,7.614c5.056,4.709,11.248,7.52,17.603,9.855
		c5.136,1.888,10.488,3.196,15.753,4.731c0.553,0.16,1.166,0.157,1.751,0.157c6.864-0.005,13.748,0.184,20.518-1.225
		c2.195-0.455,4.483-0.949,6.44-1.978c5.714-3.002,11.66-5.67,16.545-10.04c6.563-5.87,12.194-12.389,16.017-20.497
		c3.179-6.743,4.786-13.876,6.549-21c0.395-1.591,0.337-3.324,0.284-4.987c-0.196-6.079,0.246-12.295-0.901-18.199
		c-1.606-8.268-4.458-16.196-10.068-22.95c-4.047-4.87-8.556-9.148-13.277-13.306c-7.14-6.283-15.433-10.359-24.342-13.346
		c-2.595-0.871-5.245-1.579-7.877-2.337c-0.368-0.104-0.778-0.103-1.166-0.088c-2.84,0.109-5.678,0.322-8.517,0.342
		c-8.472,0.06-16.837,0.955-25.076,2.958C92.551,405.336,92.159,405.331,91.777,405.369z"/>
	<path fill-rule="evenodd" clip-rule="evenodd" d="M104.069,449.651c-1.343-1.61-1.039-3.33-0.564-4.99
		c1.132-3.979,3.787-7.051,6.302-10.188c0.42-0.524,1.072-0.86,1.616-1.283c-0.065-0.212-0.129-0.422-0.194-0.632
		c-1.644-0.167-3.286-0.437-4.931-0.448c-0.567-0.005-1.326,0.506-1.672,1.006c-0.937,1.359-1.754,2.809-2.513,4.277
		c-0.563,1.089-0.959,2.264-1.431,3.402c-0.182-0.059-0.365-0.117-0.546-0.175c0.568-2.004,1.138-4.01,1.845-6.503
		c-1.958,1.905-2.214,4.031-2.685,6.146c-1.244-1.202-1.398-1.914-0.175-4.368c0.76-1.526,1.855-3.035,3.17-4.092
		c1.238-0.997,2.959-1.394,4.402-2.024c-0.402-2.808,1.049-4.939,3.708-5.29c3.246-0.428,6.526-0.585,9.862-0.574
		c-0.851,0.264-1.701,0.526-2.699,0.834c3.667,2.059,3.625,1.844,7.354,1.12c5.524-1.07,10.968-0.822,15.812,2.563
		c0.784,0.547,1.431,1.325,2.019,2.09c0.179,0.234-0.05,0.783-0.164,1.883c-2.236-3.393-5.229-4.855-8.301-5.43
		c-3.191-0.598-6.581-0.133-10.063,0.398c2.266,1.164,4.504,2.392,6.811,3.475c2.32,1.089,4.706,2.035,7.608,3.274
		c0.59-0.084,1.842-0.344,3.105-0.419c2.018-0.121,4.152-0.574,5.673,1.409c0.155,0.202,0.503,0.316,0.778,0.351
		c3.184,0.407,4.373,2.661,5.018,5.403c1.217,5.17,1.682,10.45,1.982,15.728c0.101,1.782-0.584,3.612-0.911,5.42
		c-0.138,0.765-0.533,1.595-0.365,2.286c0.675,2.746,0.129,5.471-0.127,8.157c-0.25,2.589-0.143,5.042,0.665,7.493
		c0.184,0.558,0.226,1.156,0.386,1.722c0.282,0.991,0.157,1.948-0.992,1.974c-0.908,0.02-1.196-0.652-1.3-1.793
		c-0.417-4.606-0.03-9.185-0.059-13.767c-0.02-3.17-0.356-6.211,0.947-9.191c0.149-0.34,0.103-0.776,0.095-1.167
		c-0.106-5.896-0.725-11.72-2.252-17.436c-0.499-1.863-1.48-2.899-3.776-2.945c-0.36,4.876,0.444,9.872-1.303,14.517
		c-0.22-0.031-0.441-0.062-0.66-0.094c0.202-1.216,0.553-2.43,0.582-3.652c0.083-3.584,0.007-7.174,0.063-10.759
		c0.021-1.381-0.826-2.029-1.907-2.233c-0.923-0.174-1.929,0.087-2.897,0.156c-5.187,0.376-10.281,0.802-15.313-1.513
		c-2.962-1.362-6.311-1.912-9.761-1.607c-2.988,0.264-4.82,2.046-6.53,4.048c-1.396,1.632-2.556,3.481-3.716,5.3
		C104.486,443.975,103.959,446.728,104.069,449.651z M120.182,427.823c-5.222-2.516-9.479-1.479-12.089,2.701
		C112.358,431.067,116.295,430.805,120.182,427.823z M120.004,428.884c-0.039,0.272-0.078,0.544-0.116,0.817
		c4.219,2.186,8.777,3.42,13.466,4.346c-3.358-2.026-6.843-3.747-10.417-5.257C122.118,428.444,120.99,428.833,120.004,428.884z
		 M110.619,426.363c-2.046,0.394-2.046,0.394-2.408,1.928C109.116,427.567,109.868,426.964,110.619,426.363z"/>
	<path fill-rule="evenodd" clip-rule="evenodd" d="M107.13,475.941c4.274-3.82,4.638-3.943,7.756-2.369
		c-0.663,0.279-1.103,0.609-1.556,0.628c-3.521,0.148-5.1,1.976-4.498,5.468c0.16,0.933-0.706,2.112,0.588,2.803
		c-0.337,0.449-0.581,1.07-1.029,1.312c-1.638,0.884-3.377,1.585-5.02,2.463c-2.128,1.139-4.2,2.383-6.717,3.822
		c-0.29-0.304-1.321-0.876-1.456-1.611c-0.594-3.276-2.419-5.702-5.142-8.08c4.175-3.84,9.259-5.483,14.872-6.833
		C105.46,474.124,106.296,475.034,107.13,475.941z M106.514,480.306c-0.136-1.189-0.4-2.183-1.682-1.355
		c-0.195,0.127-0.305,0.385-0.503,0.646C105.112,479.853,105.812,480.077,106.514,480.306z M95.45,482.937
		c0.216,1.693,0.216,1.693,1.288,1.162C96.284,483.69,95.868,483.314,95.45,482.937z"/>
	<path fill-rule="evenodd" clip-rule="evenodd" d="M119.337,478.745c-2.43-3.519-3.767-7.711-6.212-11.345
		c3.912-3.884,8.98-5.273,13.629-7.416c0.689-0.319,3.091,1.142,3.532,2.281c1.04,2.694,1.918,5.452,2.943,8.421
		c-2.266,0.05-3.725,1.152-5.277,2.417c-1.704,1.387-3.946,2.098-5.879,3.23C121.23,476.826,120.572,477.636,119.337,478.745z
		 M119.81,474.987c0.191-0.169,0.382-0.34,0.573-0.511c-1.255-2.132-2.509-4.265-3.72-6.325c2.049-2.115,4.251-3.456,7.402-3.866
		c-0.707-0.471-1.111-0.903-1.279-0.824c-2.106,0.974-4.247,1.905-6.231,3.095c-1.124,0.674-1.252,1.82-0.424,3.051
		c0.922,1.373,1.629,2.893,2.502,4.303C118.902,474.347,119.411,474.634,119.81,474.987z"/>
	<path fill-rule="evenodd" clip-rule="evenodd" d="M142.106,456.275c1.163,5.503-0.357,10.266-1.754,15.1
		c-1.792-0.444-1.82-1.513-1.577-2.628c1.578-7.309-2.208-11.915-7.829-15.595c-0.893-0.584-1.833-1.1-2.752-1.649
		c-1.222,0.748-2.354,1.441-3.966,2.426c0.46-2.55,2.369-3.039,3.522-4.176c1.328-1.312,2.716-2.565,3.991-3.925
		c1.159-1.234,2.198-2.578,3.425-3.762c-0.542,3.558-3.608,5.316-5.677,8.218c4.666,2.825,8.71,6.397,10.906,11.746
		c0.948-2.018,0.948-2.018-0.838-8.281c0.139-0.127,0.332-0.394,0.413-0.362c2.437,0.915,4.899,1.773,7.256,2.866
		c0.524,0.243,0.749,1.296,0.965,2.021c1.138,3.823,0.173,7.581-0.458,11.337c-0.205,1.217-0.575,2.406-0.939,3.889
		c-1.508-0.392-2.757-0.717-3.979-1.037c0.058-1.448,0.902-1.396,1.644-1.615c0.596-0.176,1.494-0.538,1.599-0.975
		c0.796-3.337,1.402-6.69,0.748-10.167C146.349,457.271,144.616,456.751,142.106,456.275z"/>
	<path fill-rule="evenodd" clip-rule="evenodd" d="M149.95,476.02c-0.42,0.591-0.763,1.263-1.272,1.764
		c-4.058,3.987-7.611,8.349-10.78,13.102c-2.04,3.061-4.84,5.615-7.323,8.376c-0.651,0.725-1.484,1.306-2.044,2.086
		c-0.357,0.499-0.629,1.321-0.48,1.874c0.582,2.167,1.256,4.317,2.086,6.398c0.321,0.806,1.147,1.406,1.859,2.234
		c-0.833,0.712-1.679,0.586-2.158-0.238c-0.875-1.507-1.584-3.113-2.279-4.715c-0.382-0.882-0.593-1.839-0.985-3.095
		c-1.078,0.731-1.994,1.267-2.81,1.924c-1.639,1.325-3.218,0.969-4.899,0.073c-2.947-1.568-5.005-4.049-7.005-6.601
		c-1.69-2.155-3.336-4.342-5.047-6.479c-0.641-0.803-1.068-1.477,0.537-2.207c1.213,1.62,2.438,3.338,3.751,4.986
		c1.885,2.368,3.811,4.702,5.777,7.001c0.43,0.504,1.119,0.778,1.653,1.202c3.024,2.404,7.081,0.036,7.25-3.185
		c1.181-0.734,2.296-1.26,3.206-2.026c2.706-2.279,4.757-5.092,6.863-7.948c3.709-5.03,8.025-9.613,12.122-14.354
		c0.321-0.372,0.919-0.501,1.388-0.744C149.555,475.639,149.752,475.83,149.95,476.02z"/>
	<path fill-rule="evenodd" clip-rule="evenodd" d="M91.466,462.682c0.195,0.909,0.59,1.827,0.546,2.724
		c-0.117,2.454,1.693,4.659,1.136,7.483c-2.405-1.151-1.857-3.341-2.696-5.013c-1.954,2.813-1.683,6.13-1.949,9.694
		c-0.782-0.568-1.174-0.715-1.337-0.994c-5.729-9.772-6.283-19.791-1.33-30.032c1.969-4.07,4.075-8.068,7.432-11.223
		c1.773-1.667,3.695-3.1,6.236-3.598c-9.674,6.417-14.32,15.766-15.66,26.893c-0.643,5.336,0.842,10.488,3.275,13.799
		c1.499-3.176,1.732-6.769,3.408-9.79C90.84,462.646,91.154,462.663,91.466,462.682z"/>
	<path fill-rule="evenodd" clip-rule="evenodd" d="M113.01,449.068c-1.195-5.383,1.561-8.875,4.869-11.885
		c1.74-1.585,3.926-3.2,7.025-1.552c-0.263,0.095-0.521,0.261-0.788,0.276c-5.857,0.346-9.542,5.805-10.1,10.264
		c-0.106,0.858,0.422,1.799,0.671,2.756c-4.923,3.84-8.173,8.979-10.199,14.953c-0.158,0.461-0.128,1.012-0.367,1.415
		c-0.214,0.368-0.81,0.897-1,0.814c-0.443-0.193-1.047-0.707-1.055-1.103c-0.064-3.254,0.261-6.472,1.665-9.461
		c0.206-0.439,0.915-0.642,1.922-1.303c-0.851,2.421-1.467,4.166-2.082,5.912c0.203,0.109,0.406,0.214,0.608,0.321
		C106.268,455.981,109.275,452.227,113.01,449.068z"/>
	<path fill-rule="evenodd" clip-rule="evenodd" d="M109.662,463.87c-1.76-2.016-0.498-3.592-0.182-5.552
		c1.582,0.976,2.614,0.256,3.598-0.767c2.498-2.591,5.106-5.082,7.509-7.757c0.992-1.105,1.57-2.578,2.801-3.792
		c0.04,0.486,0.27,1.06,0.087,1.439c-0.591,1.232-1.188,2.511-2.042,3.559c-2.397,2.943-4.63,6.028-7.93,8.148
		c-1.091,0.7-1.719,2.115-2.568,3.197C110.59,462.783,110.222,463.201,109.662,463.87z"/>
	<path fill-rule="evenodd" clip-rule="evenodd" d="M97.153,471.308c-1.507-0.143-1.798-1.241-1.648-2.45
		c0.239-1.931,0.563-3.863,1.005-5.758c0.486-2.088,1.098-4.151,1.746-6.199c0.305-0.968,0.821-1.867,1.321-2.972
		c1.426,1.819,1.572,3.227,0.352,4.175c-1.057,0.822-1.338,1.813-1.559,2.996c-0.34,1.821-0.931,3.602-1.177,5.432
		C96.996,467.991,97.153,469.497,97.153,471.308z"/>
	<path fill-rule="evenodd" clip-rule="evenodd" d="M112.717,477.964c0.473,0.33,1.12,0.559,1.378,1.013
		c0.378,0.66,0.561,1.467,0.682,2.235c0.305,1.937,0.519,3.886,2.97,4.896c-1.018,0.914-1.634,1.469-2.237,2.012
		c-2.466-0.942-1.062-3.173-1.816-4.634c-0.783-1.515-1.046-3.3-1.535-4.968C112.345,478.334,112.53,478.149,112.717,477.964z"/>
	<path fill-rule="evenodd" clip-rule="evenodd" d="M119.848,493.71c3.254-2.037,6.942-3.018,10.438-4.397
		c0.801,1.18,0.324,1.839-0.438,2.138c-2.616,1.023-5.262,1.979-7.927,2.867c-0.604,0.201-1.332,0.03-2.004,0.03
		C119.894,494.133,119.87,493.922,119.848,493.71z"/>
	<path fill-rule="evenodd" clip-rule="evenodd" d="M142.837,487.616c2.322,3.797,4.644,7.596,7.094,11.603
		c-1.572-0.443-1.591-0.432-4.827-5.161c-1.293-1.888-2.701-3.75-3.341-5.946C142.121,487.946,142.48,487.78,142.837,487.616z"/>
	<path fill-rule="evenodd" clip-rule="evenodd" d="M126.242,447.767c-1.996-3.251-0.521-6.072,0.964-8.854
		c0.752-1.411,1.553-2.931,4.167-2.471C127.468,439.482,126.018,443.232,126.242,447.767z"/>
	<path fill-rule="evenodd" clip-rule="evenodd" fill="#FFFFFF" d="M120.182,427.823c-3.887,2.982-7.824,3.244-12.089,2.701
		C110.703,426.344,114.96,425.307,120.182,427.823z"/>
	<path fill-rule="evenodd" clip-rule="evenodd" fill="#FFFFFF" d="M120.004,428.884c0.986-0.05,2.113-0.439,2.933-0.094
		c3.574,1.51,7.059,3.231,10.417,5.257c-4.689-0.926-9.247-2.161-13.466-4.346C119.926,429.428,119.966,429.156,120.004,428.884z"/>
	<path fill-rule="evenodd" clip-rule="evenodd" fill="#FFFFFF" d="M110.619,426.363c-0.75,0.601-1.503,1.204-2.408,1.928
		C108.572,426.756,108.572,426.756,110.619,426.363z"/>
	<path fill-rule="evenodd" clip-rule="evenodd" fill="#FFFFFF" d="M106.514,480.306c-0.702-0.229-1.402-0.453-2.186-0.708
		c0.198-0.261,0.309-0.52,0.503-0.646C106.114,478.123,106.377,479.117,106.514,480.306z"/>
	<path fill-rule="evenodd" clip-rule="evenodd" fill="#FFFFFF" d="M95.45,482.937c0.418,0.377,0.834,0.753,1.288,1.162
		C95.666,484.63,95.666,484.63,95.45,482.937z"/>
	<path fill-rule="evenodd" clip-rule="evenodd" fill="#FFFFFF" d="M119.81,474.987c-0.399-0.354-0.907-0.641-1.176-1.076
		c-0.873-1.411-1.58-2.93-2.502-4.303c-0.828-1.231-0.699-2.377,0.424-3.051c1.984-1.189,4.125-2.121,6.231-3.095
		c0.167-0.079,0.572,0.353,1.279,0.824c-3.151,0.41-5.353,1.75-7.402,3.866c1.211,2.06,2.465,4.193,3.72,6.325
		C120.192,474.647,120.001,474.818,119.81,474.987z"/>
</g>
<g>
	<path fill-rule="evenodd" clip-rule="evenodd" d="M70.299,184.539c-0.141,0.064-0.28,0.18-0.422,0.184
		c-4.272,0.116-8.174,1.766-12.166,2.999c-2.073,0.639-4.097,1.474-6.078,2.366c-7.082,3.191-13.691,7.179-19.253,12.634
		c-4,3.92-7.662,8.187-9.485,13.677c-0.293,0.886-0.628,1.774-1.074,2.592c-2.264,4.15-3.499,8.657-4.52,13.217
		c-0.624,2.785-1.419,5.571-1.229,8.483c0.006,0.077,0.005,0.157,0,0.233c-0.402,7.19,0.539,14.293,1.385,21.4
		c0.412,3.466,0.793,6.947,1.465,10.368c1.214,6.181,3.803,11.816,7.329,17.027c1.046,1.547,2.037,3.133,3.099,4.669
		c2.296,3.328,5.459,5.757,8.634,8.152c3.607,2.722,7.28,5.357,10.903,8.058c2.968,2.212,6.374,3.607,9.719,5.047
		c5.356,2.307,10.808,4.398,16.276,6.425c1.955,0.725,4.057,1.135,6.129,1.443c2.528,0.374,5.098,0.458,7.644,0.722
		c4.262,0.444,8.325-0.957,12.501-1.286c4.272-0.335,8.152-1.966,12.042-3.572c2.664-1.099,5.297-2.28,7.989-3.305
		c4.878-1.856,9.227-4.503,12.737-8.398c2.608-2.893,5.195-5.809,7.667-8.818c3.576-4.353,5.783-9.425,7.09-14.854
		c1.201-4.993,2.518-10.005,3.101-15.086c0.502-4.378,0.102-8.869-0.014-13.307c-0.058-2.252-0.406-4.495-0.555-6.749
		c-0.295-4.435-0.717-8.844-2.016-13.128c-0.45-1.488-0.802-3.009-1.162-4.523c-1.207-5.082-3.92-9.467-6.326-14.011
		c-2.772-5.24-6.976-9.33-10.597-13.899c-5.837-7.364-13.495-12.186-21.723-16.241c-2.207-1.088-4.717-1.592-7.123-2.235
		c-6.566-1.755-13.134-0.677-19.674,0.202c-5.478,0.735-10.928,1.678-16.395,2.501c-0.819,0.123-1.661,0.092-2.545-0.239
		c5.573-0.967,11.148-1.921,16.718-2.904c5.232-0.922,10.489-1.546,15.817-1.321c5.197,0.22,10.113,1.442,14.852,3.68
		c5.263,2.484,9.97,5.779,14.495,9.347c2.002,1.579,3.766,3.499,5.469,5.414c2.376,2.675,4.557,5.525,6.893,8.238
		c3.917,4.546,6.568,9.842,9.011,15.24c3.24,7.159,4.802,14.734,5.298,22.562c0.305,4.815,0.849,9.616,1.114,14.431
		c0.279,5.087-0.721,10.065-1.744,15.012c-0.629,3.042-1.367,6.07-2.235,9.052c-1.786,6.146-4.753,11.735-9.007,16.484
		c-3.621,4.042-6.936,8.522-11.787,11.236c-3.32,1.858-6.825,3.407-10.333,4.897c-3.642,1.548-7.349,2.97-11.099,4.233
		c-2.047,0.689-4.225,1.071-6.376,1.35c-3.852,0.501-7.66,1.438-11.598,1.198c-5.682-0.345-11.261-0.863-16.669-3.057
		c-3.507-1.422-7.195-2.456-10.657-4.049c-5.014-2.307-10.284-4.115-14.721-7.552c-5.354-4.146-10.87-8.102-16.007-12.501
		c-2.187-1.872-3.669-4.602-5.337-7.035c-3.875-5.657-6.539-11.86-8.032-18.556c-1.207-5.413-1.567-10.936-2.062-16.439
		c-0.279-3.1-0.803-6.204-0.768-9.301c0.07-6.049,0.252-12.069,1.911-18.018c1.433-5.146,3.698-9.92,5.649-14.829
		c1.442-3.632,3.966-6.676,6.618-9.554c5.62-6.098,12.294-10.654,19.795-14.2c4.542-2.148,9.22-3.797,13.99-5.24
		c1.911-0.579,3.941-0.775,5.926-1.086c0.491-0.075,1.019,0.085,1.529,0.136C70.302,184.279,70.3,184.409,70.299,184.539z"/>
	<path fill-rule="evenodd" clip-rule="evenodd" d="M111.675,262.376c-2.149,9.495-4.266,18.849-6.422,28.375
		c1-0.067,1.997-0.136,2.994-0.203c0.053,0.145,0.104,0.29,0.156,0.434c-0.288,0.291-0.527,0.672-0.872,0.855
		c-2.132,1.132-4.292,2.208-6.434,3.322c-3.316,1.728-6.625,3.4-10.475,3.675c-2.095,0.15-3.652,1.039-5.078,2.446
		c-1.098-0.525-2.267-1.11-3.458-1.647c-5.033-2.268-10.024-4.639-15.134-6.721c-1.896-0.772-3.439-1.789-4.617-3.367
		c-2.917-3.907-4.432-8.402-5.044-13.168c-0.826-6.4-1.459-12.825-2.146-19.244c-0.059-0.55,0.088-1.124,0.159-1.89
		c1.368,0.615,1.301,1.663,1.377,2.482c0.43,4.573,0.793,9.152,1.128,13.734c0.332,4.534,1.126,8.985,2.978,13.137
		c0.84,1.883,2.247,3.531,3.505,5.204c0.389,0.518,1.107,0.834,1.732,1.122c5.24,2.412,10.503,4.775,15.735,7.208
		c1.099,0.51,2.049,0.789,3.317,0.4c1.697-0.522,3.499-0.792,5.275-0.941c4.749-0.4,8.759-2.615,12.498-4.747
		c1.333-4.466,2.722-8.652,3.818-12.914c1.084-4.216,1.905-8.5,2.782-12.768c0.883-4.294,1.695-8.603,2.594-13.194
		c1.45,1.151,1.21,2.25,0.837,3.348c-0.338,0.996-0.732,1.97-1.159,3.107c0.958,0.169,1.594,0.283,2.183,0.387
		c2.472-3.685,2.958-12.678,0.811-16.444c-1.664,1.742-3.295,3.335-2.284,6.071c-1.446-0.147-1.826-1.131-1.485-2.023
		c0.658-1.726,1.491-3.422,2.513-4.958c0.709-1.067,2.368-0.562,2.929,0.906c0.438,1.146,0.736,2.402,0.799,3.625
		c0.182,3.58,0.225,7.167-0.872,10.65c-0.163,0.518-0.299,1.05-0.526,1.54C114.774,262.359,114.213,262.662,111.675,262.376z"/>
	<path fill-rule="evenodd" clip-rule="evenodd" d="M95.37,200.188c-2.483,0.669-4.307,2.08-6.084,3.594
		c-0.582,0.496-1.203,1.007-1.895,1.301c-1.146,0.488-1.831,0.082-1.952-1.143c-0.106-1.073-0.022-2.164-0.022-3.48
		c-0.495,0.279-0.913,0.422-1.211,0.698c-3.04,2.794-6.134,5.536-9.062,8.444c-2.763,2.744-3.451,2.68-5.213-1.311
		c-1.31,1.611-2.427,3.178-3.745,4.553c-1.275,1.331-1.669,3.608-4.161,4.016c-0.402-0.901-0.769-1.721-1.326-2.971
		c-3.303,7.752-6.883,15.048-8.04,23.438c-0.284,0.128-0.818,0.127-0.841-0.674c-0.023-0.848-0.063-1.751,0.18-2.545
		c2.354-7.679,5.063-15.226,8.816-22.354c0.214-0.408,0.493-0.786,0.774-1.152c0.075-0.098,0.277-0.096,0.548-0.18
		c0.958,1.386-0.15,3.022,0.48,4.667c0.426-0.324,0.815-0.518,1.062-0.827c1.419-1.759,2.788-3.561,4.208-5.32
		c0.488-0.604,1.027-1.192,1.634-1.674c1.061-0.842,1.852-0.546,2.213,0.763c0.18,0.649,0.323,1.309,0.574,2.345
		c0.928-0.756,1.598-1.24,2.197-1.801c2.676-2.498,5.31-5.041,8.009-7.514c0.798-0.732,1.706-1.377,2.653-1.901
		c1.01-0.558,1.639-0.14,1.694,1.03c0.051,1.07,0.011,2.145,0.011,3.625c0.981-0.644,1.714-1.145,2.468-1.616
		c1.58-0.989,3.102-2.106,4.776-2.901c1.573-0.748,2.229-0.276,2.627,1.394c0.374,1.574,0.585,1.798,2.249,1.519
		c2.763-0.465,5.501-1.07,8.255-1.594c0.917-0.175,1.936-0.081,2.753-0.45c2.38-1.075,3.777,0.422,5.251,1.787
		c0.823,0.762,0.655,1.667,0.27,2.584c-0.841,2-1.746,3.979-2.493,6.014c-1.478,4.015-3.04,8.013-3.453,12.329
		c-0.044,0.459-0.124,0.932-0.064,1.38c0.579,4.296,1.132,8.596,1.825,12.875c0.151,0.928,0.832,1.769,1.271,2.656
		c-1.415,0.54-1.963,0.419-2.165-0.57c-0.972-4.786-1.899-9.57-2.071-14.485c-0.095-2.737,0.6-5.267,1.417-7.771
		c1.183-3.624,2.583-7.177,3.892-10.76c0.081-0.22,0.19-0.429,0.27-0.649c0.871-2.427-0.746-4.62-3.361-4.243
		c-3.378,0.486-6.748,1.137-10.058,1.97C97.462,204.054,96.2,203.492,95.37,200.188z"/>
	<path fill-rule="evenodd" clip-rule="evenodd" d="M77.957,245.324c-0.923,1.61-2.282,1.998-7.284,2.155
		c0.353,0.826,0.819,1.59,0.994,2.416c0.189,0.897,0.321,1.969-1.449,1.82c1.381,1.831,3.645,0.697,4.938,2.479
		c-0.838,0.343-1.559,0.714-2.323,0.935c-1.429,0.414-2.453,1.208-2.968,2.64c-0.138,0.385-0.446,0.71-0.715,1.123
		c-1.095-0.718-0.301-1.708-0.74-2.63c-0.759-0.451-1.889-0.823-2.539-1.599c-0.554-0.661-0.556-1.786-0.853-2.898
		c1.249-0.04,1.946-0.877,2.608-1.855c0.592-0.874,1.371-1.62,2.401-2.809c-2.744,0.295-5.207-0.794-7.661,1.04
		c-0.747-0.404-1.669-0.903-2.929-1.586c1.819-0.952,3.56-1.26,5.077-1.161c2.856,0.185,5.557-0.535,8.326-0.806
		C74.921,244.383,76.1,244.449,77.957,245.324z M67.478,252.724c1.149,0.136,1.149-0.505,1.087-1.169
		c-0.007-0.084-0.178-0.153-0.388-0.32C67.952,251.713,67.747,252.151,67.478,252.724z"/>
	<path fill-rule="evenodd" clip-rule="evenodd" d="M108.285,230.763c-0.4,0.842-0.909,0.931-1.58,0.564
		c-2.879-1.578-5.998-2.015-9.236-2.07c-4.98-0.088-9.959-0.258-14.935-0.471c-1.704-0.073-3.394-0.402-5.094-0.572
		c-1.002-0.101-2.019-0.219-3.019-0.156c-1.456,0.093-2.106,0.843-2.451,2.539c-1.445,0.088-1.799-0.232-1.413-1.279
		c0.695-1.883,2.33-2.984,4.426-2.624c7.557,1.296,15.196,1.093,22.808,1.398c3.346,0.133,6.61,0.787,9.766,1.915
		C107.864,230.116,108.064,230.524,108.285,230.763z"/>
	<path fill-rule="evenodd" clip-rule="evenodd" d="M93.899,248.116c1.188,1.218,2.069,2.12,3.041,3.116
		c1.05-0.082,2.329-0.182,3.684-0.287c0.116,1.285-0.599,2.09-1.254,2.249c-1.938,0.468-2.776,2.146-4.215,3.358
		c-0.283-0.064-0.646-0.133-1.001-0.228c-1.34-0.359-2.664-0.832-3.856,0.446c-0.197,0.211-0.816,0.03-1.221,0.03
		c0-0.332-0.046-0.591,0.007-0.612c2.827-1.16,2.953-4.011,3.968-6.302C93.233,249.476,93.438,249.077,93.899,248.116z"/>
	<path fill-rule="evenodd" clip-rule="evenodd" d="M53.665,253.618c-0.847-0.814-0.876-1.942-0.982-3.062
		c-0.159-1.705-0.711-3.174-2.556-3.846c-2.158,1.369-1.962,3.67-2.082,5.648c-0.132,2.181,0.84,4.16,1.935,6.111
		c1.069,1.905,2.588,3.038,4.733,3.533c-1.128,1.956-2.632,0.191-3.699,1.488c-1.113-3.919-4.458-6.614-4.075-10.732
		c0.185-1.982,0.548-3.994,1.183-5.874c0.601-1.779,2.035-1.952,3.531-0.698c1.046,0.876,1.802,1.954,2.025,3.321
		c0.217,1.327,0.36,2.666,0.537,4C54.031,253.542,53.848,253.58,53.665,253.618z"/>
	<path fill-rule="evenodd" clip-rule="evenodd" d="M92.381,279.068c-0.949,0.153-1.902,0.277-2.844,0.461
		c-3.648,0.711-7.277,1.533-10.945,2.112c-1.322,0.209-2.747-0.113-4.093-1.202c0.477-0.307,0.8-0.685,1.158-0.719
		c5.103-0.509,10.21-0.979,15.318-1.436c0.431-0.038,0.877,0.077,1.316,0.124C92.321,278.627,92.351,278.846,92.381,279.068z"/>
	<path fill-rule="evenodd" clip-rule="evenodd" d="M68.881,230.602c0.045,1.028,0.07,1.594,0.102,2.294
		c-1.638,0.029-3.057,1.09-4.579-0.126c-0.276-0.221-1.183,0.093-1.64,0.399c-1.685,1.129-3.208,2.412-3.758,4.535
		c-0.087,0.335-0.822,0.792-1.149,0.716c-0.713-0.164-0.548-0.695-0.234-1.268c1.252-2.277,2.717-4.347,5.093-5.582
		c0.458-0.238,1.16-0.636,1.451-0.462C65.685,232.012,67.083,231.667,68.881,230.602z"/>
	<path fill-rule="evenodd" clip-rule="evenodd" d="M102.116,212.561c0.242,2.115-0.832,3.753-1.221,5.535
		c-0.39,1.779-1.493,3.485-0.278,5.497c-1.146,0.14-1.64-0.344-1.591-1.247c0.064-1.151,0.223-2.31,0.472-3.435
		c0.316-1.419,0.765-2.809,0.765-4.438c-1.394,1.845-2.787,3.689-4.311,5.705C96.689,216.668,99.72,212.874,102.116,212.561z"/>
	<path fill-rule="evenodd" clip-rule="evenodd" d="M103.12,242.086c0.221,1.079-0.248,1.398-0.975,1.393
		c-3.707-0.026-6.456,1.845-8.881,4.404c-0.421,0.443-0.905,0.872-1.443,1.142c-0.295,0.148-0.763-0.051-1.646-0.148
		C94.098,245.121,97.663,241.834,103.12,242.086z"/>
	<path fill-rule="evenodd" clip-rule="evenodd" d="M79.942,255.714c0.25,0.292,0.61,0.517,0.607,0.739
		c-0.035,3.402-0.098,6.805-0.214,10.206c-0.013,0.384-0.387,0.756-0.828,1.564c-0.331-0.858-0.664-1.305-0.643-1.733
		c0.163-3.416,0.389-6.83,0.619-10.241C79.492,256.089,79.737,255.943,79.942,255.714z"/>
	<path fill-rule="evenodd" clip-rule="evenodd" d="M78.939,270.75c0.774,0.591,1.44,0.99,2.281,0.208
		c0.577-0.538,1.116-0.169,1.562,0.785c-1.224,0.558-2.435,1.11-3.818,1.741c-0.091,0.289-0.262,0.82-0.458,1.436
		C77.249,273.646,77.315,273.039,78.939,270.75z"/>
	<path fill-rule="evenodd" clip-rule="evenodd" d="M85.62,271.817c-0.411-1.912-0.031-2.911,0.968-3.088
		c1.222-0.217,1.986,0.447,2.485,1.773C87.809,270.581,86.483,269.981,85.62,271.817z"/>
	<path fill-rule="evenodd" clip-rule="evenodd" fill="#FFFFFF" d="M67.478,252.724c0.269-0.572,0.474-1.011,0.7-1.489
		c0.209,0.167,0.38,0.236,0.388,0.32C68.627,252.219,68.627,252.86,67.478,252.724z"/>
</g>
<g>
	<path fill-rule="evenodd" clip-rule="evenodd" d="M468.612,189.885c0.473-0.51,1.523-1.514,2.423-2.635
		c3.352-4.178,7.94-4.773,12.688-3.96c8.308,1.419,16.677,2.755,24.777,5.005c6.134,1.703,12.49,3.598,17.281,8.307
		c3.152,3.103,6.152,6.364,9.146,9.621c0.729,0.796,1.229,1.825,1.741,2.799c5.127,9.767,7.959,20.187,8.454,31.184
		c0.25,5.613,0.087,11.247,0.006,16.869c-0.019,1.189-0.455,2.384-0.79,3.551c-0.821,2.88-1.697,5.746-2.551,8.617
		c-0.096,0.32-0.106,0.693-0.28,0.957c-3.12,4.708-5.856,9.701-10.344,13.368c-5.72,4.674-12.188,8.182-18.613,11.689
		c-5.094,2.782-10.758,4.008-16.614,4.455c-6.308,0.482-12.463-0.193-18.475-1.915c-3.506-1.003-6.84-2.618-10.246-3.974
		c-9.446-3.759-17.096-9.954-23.305-17.855c-5.484-6.976-7.823-15.36-9.855-23.849c-1.36-5.689-1.928-11.409-1.428-17.208
		c0.841-9.727,3.34-18.849,8.458-27.399c5.138-8.584,12.843-13.336,21.645-16.878C464.285,190.007,466.159,190.172,468.612,189.885z
		 M467.32,192.481c-1.716-1.384-1.953-1.49-3.125-1.062c-1.039,0.379-2.053,0.836-3.049,1.324
		c-4.706,2.312-9.408,4.682-13.031,8.589c-5.69,6.134-9.463,13.334-11.685,21.401c-1.787,6.492-2.394,13.105-2.013,19.773
		c0.359,6.336,2.214,12.399,3.966,18.479c1.888,6.554,5.239,12.238,9.729,17.253c1.844,2.059,4.143,3.704,6.182,5.594
		c2.457,2.278,5.024,4.394,8.12,5.75c6.09,2.665,11.867,6.213,18.561,7.224c4.444,0.67,8.802,1.548,13.48,1.125
		c6.966-0.628,13.578-1.797,19.627-5.448c2.565-1.548,5.253-2.892,7.806-4.458c4.271-2.619,8.449-5.415,11.686-9.302
		c3.424-4.114,6.555-8.438,7.567-13.899c0.16-0.859,0.682-1.65,0.875-2.508c0.598-2.696,1.526-5.397,1.586-8.113
		c0.114-5.322-0.068-10.669-0.49-15.979c-0.781-9.838-2.987-19.328-7.921-28.011c-0.874-1.537-1.787-3.098-2.952-4.406
		c-2.585-2.905-5.331-5.671-8.045-8.459c-0.694-0.713-1.425-1.534-2.307-1.9c-5.018-2.081-9.953-4.542-15.169-5.917
		c-7.489-1.975-14.993-4.066-22.767-4.844c-4.493-0.449-8.674-0.235-12.044,3.289C470.468,189.481,468.936,190.9,467.32,192.481z"/>
	<path fill-rule="evenodd" clip-rule="evenodd" fill="#FFFFFF" d="M467.32,192.481c1.615-1.581,3.147-3,4.589-4.507
		c3.37-3.523,7.551-3.737,12.044-3.289c7.773,0.778,15.278,2.87,22.767,4.844c5.216,1.375,10.151,3.837,15.169,5.917
		c0.882,0.366,1.613,1.187,2.307,1.9c2.714,2.788,5.459,5.554,8.045,8.459c1.165,1.309,2.079,2.87,2.952,4.406
		c4.934,8.683,7.14,18.172,7.921,28.011c0.422,5.31,0.604,10.657,0.49,15.979c-0.06,2.716-0.988,5.417-1.586,8.113
		c-0.193,0.857-0.716,1.648-0.875,2.508c-1.012,5.461-4.143,9.785-7.567,13.899c-3.237,3.887-7.415,6.683-11.686,9.302
		c-2.553,1.567-5.241,2.91-7.806,4.458c-6.049,3.651-12.662,4.82-19.627,5.448c-4.678,0.423-9.036-0.455-13.48-1.125
		c-6.694-1.011-12.471-4.559-18.561-7.224c-3.096-1.356-5.663-3.472-8.12-5.75c-2.04-1.89-4.338-3.535-6.182-5.594
		c-4.49-5.016-7.842-10.699-9.729-17.253c-1.751-6.079-3.606-12.142-3.966-18.479c-0.38-6.668,0.226-13.281,2.013-19.773
		c2.222-8.067,5.995-15.268,11.685-21.401c3.623-3.907,8.326-6.277,13.031-8.589c0.996-0.487,2.01-0.944,3.049-1.324
		C465.367,190.991,465.604,191.097,467.32,192.481z M481.791,237.756c1.616,0.147,3.231,0.294,4.932,0.448
		c-0.062-0.669-0.027-1.044-0.108-1.07c-2.783-0.924-5.525-2.103-8.383-2.607c-1.812-0.318-2.606,1.46-1.744,3.167
		c2.5-1.742,2.576-1.741,5.424,0.144c-1.36-0.447-2.579-0.057-2.886,1.285c-0.272,1.185-0.03,2.535,0.228,3.761
		c0.066,0.305,1.317,0.751,1.616,0.544c1.466-1.019,3.614-1.197,4.396-3.474C484.114,239.228,482.963,238.502,481.791,237.756z
		 M475.372,219.883c-0.18-3.082-2.045-5.899-0.775-9.67c0.785,2.227,1.373,3.84,1.923,5.464c0.555,1.629-0.038,3.777,2.276,4.987
		c-0.215-2.882-0.563-5.44-0.552-7.996c0.011-2.664-0.465-5.396,0.669-8.07c0.803,1.384,1.399,2.793,1.755,4.262
		c0.762,3.128,1.417,6.282,2.067,9.435c0.199,0.95,0.354,1.807,1.643,1.422c0.511-1.894,0.813-13.584,0.305-15.217
		c-0.272-0.876-0.773-1.682-1.197-2.578c-2.288,1.203-0.721,3.47-2.018,4.997c-1.078-1.913-0.444-4.6-3.12-5.337
		c-2.059,2.354-0.981,5.457-1.817,8.105c-0.941-1.291-1.746-2.396-2.946-4.047c-0.565,1.746-0.912,2.811-1.428,4.406
		c-0.623-1.395-0.981-2.399-1.501-3.313c-0.525-0.919-1.698-0.882-2.056,0.109c-0.326,0.907-0.402,1.936-0.422,2.916
		c-0.054,2.595-0.019,5.192-0.019,7.788c-0.852-0.337-1.017-0.873-1.376-1.191c-0.429-0.379-1.215-0.932-1.512-0.775
		c-0.938,0.495-0.465,1.193-0.011,1.917c0.879,1.4,1.562,2.926,2.47,4.303c0.328,0.495,1.074,0.715,2.097,1.349
		c-0.163-4.836-0.59-9.048,0.103-13.264c1.513,2.519,2.582,5.137,2.958,7.99C473.064,219.268,473.541,220.144,475.372,219.883z
		 M476.818,251.92c-1.05,1.665-0.941,1.644,0.193,7.837c0.911,4.966,3.406,8.581,8.214,10.555c-0.266,1.588-0.57,2.995-0.726,4.416
		c-0.192,1.765-0.334,3.543-0.359,5.316c-0.01,0.945,0.547,1.421,1.738,0.857c-0.59-3.382,0.206-6.609,1.187-9.229
		c4.343-0.348,8.249-0.661,12.161-0.974c-0.408,3.425,0.38,5.579,2.758,6.972c-0.131-1.08-0.237-1.945-0.351-2.899
		c1.778,0.796,2.037,3.238,4.667,3.548c-1.716-3.086-3.218-5.783-4.888-8.782c1.46-0.361,2.388-0.593,3.452-0.855
		c1.379-3.513,3-7.041,4.14-10.716c1.161-3.753,1.852-7.65,2.771-11.582c-2.195,0.065-2.383,0.223-2.513,2.195
		c-0.384,5.868-2.176,11.299-5.236,16.282c-0.65,1.061-1.766,2.104-2.902,2.546c-2.468,0.958-5.046,1.864-7.651,2.181
		c-6.289,0.765-13.87-1.93-14.831-10.402C478.38,256.843,477.504,254.568,476.818,251.92z M507.62,213.994
		c1.847,1.611-1.001,4.549,2.875,5.266c-1.071-2.625,0.855-5.486-1.982-7.85c-2.038,1.531-4.023,3.022-6.183,4.643
		c-0.881-4.235,0.99-7.998,0.843-11.977c-3.027,2.593-1.994,7.431-6.041,10.193c0.577-4.215,1.064-7.775,1.545-11.303
		c-1.877-0.612-2.075,0.564-2.333,1.681c-0.656,2.845-1.333,5.684-3.186,8.146c-0.175-2.661,0.035-5.263,0.16-7.866
		c0.063-1.318,0.435-2.861-1.669-3.468c-1.059,3.933-2.07,7.684-3.071,11.438c-0.117,0.427-0.226,0.868-0.256,1.307
		c-0.084,1.22-0.225,2.452-0.133,3.663c0.036,0.462,0.65,0.881,1.219,1.594c0.027-3.868,0.514-5.678,1.651-7.105
		c0.438,1.119,0.938,2.399,1.441,3.679c0.977-0.414,1.953-0.827,3.077-1.303c0.805,2.309,2.698,1.224,3.83,0.792
		c0.832,1.137,1.265,2.167,2.037,2.681c1.235,0.817,2.008-0.473,2.813-1.139C505.422,216.103,506.497,215.027,507.62,213.994z
		 M475.045,244.115c0.329-1.293,0.15-2.505-0.824-3.322c-1.284-1.082-1.444-2.387-1.393-3.888c0.06-1.67,0.014-3.344,0.014-5.017
		c0.003-2.134-0.395-4.354,1.79-6.124c-2.165,0.063-2.298,0.031-2.486,0.782c-0.35,1.388-0.674,2.812-0.747,4.236
		c-0.123,2.287-0.036,4.585-0.036,7.398c-1.011-0.741-1.469-1.226-2.029-1.454c-1.101-0.45-1.713,0.031-1.667,1.214
		c0.101,2.541,0.153,5.086,0.39,7.616c0.142,1.534,0.364,3.138,0.96,4.536c0.789,1.854,2.257,1.881,3.562,0.306
		c-3.286-1.92-4.194-5.707-2.262-9.547C472.456,241.011,472.298,244.441,475.045,244.115z M509.045,233.615
		c-0.437-4.818-0.862-9.505-1.338-14.774c-0.726,0.734-1.403,1.101-1.422,1.499c-0.068,1.327,0.071,2.668,0.19,3.999
		c0.419,4.703,1.932,9.302,1.333,14.114c-0.059,0.466,0.482,1.007,0.896,1.804c1.357-1.722,0.231-4.314,2.728-5.111
		c0.323,0.702,0.873,1.376,0.917,2.081c0.155,2.525,0.172,5.062,0.177,7.594c0,1.046-0.177,2.103,1.908,1.885
		c-0.531-4.858,1.474-10.064-2.69-14.495C510.718,232.743,509.892,233.174,509.045,233.615z M495.67,237.031
		c1.388-3.178,5.101,0.4,6.497-2.331c-0.183-0.266-0.281-0.573-0.43-0.599c-1.259-0.228-2.522-0.431-3.792-0.586
		c-1.735-0.209-3.906,1.413-4.178,3.077c-0.224,1.382,1.727,4.771,2.97,4.911c1.2,0.135,2.454,0.14,3.64-0.056
		c1.705-0.28,2.36-1.387,1.8-2.856c-0.514-1.345-1.436-1.98-2.845-1.103C497.991,238.323,496.889,237.827,495.67,237.031z
		 M488.645,260.553c1.1-0.764,1.978-1.548,3.455-1.268c1.24,0.234,2.772-0.576,4.039-1.201c0.533-0.263,0.847-1.211,0.987-1.905
		c0.049-0.236-1.025-0.979-1.088-0.924c-1.406,1.247-2.958,0.129-4.408,0.332C489.551,255.877,488.373,257.626,488.645,260.553z
		 M496.367,247.817c-0.778-0.564-1.352-0.982-1.909-1.388c-1.102,1.279-2.051,2.38-3.199,3.713c-1.02-1.973-2.05-2.797-3.709-1.417
		c0.589,1.499,1.262,2.571,2.945,2.886C493.525,252.181,494.681,249.979,496.367,247.817z"/>
	<path fill-rule="evenodd" clip-rule="evenodd" d="M475.372,219.883c-1.831,0.261-2.307-0.615-2.486-2.008
		c-0.375-2.853-1.445-5.471-2.958-7.99c-0.693,4.216-0.266,8.428-0.103,13.264c-1.022-0.634-1.769-0.854-2.097-1.349
		c-0.909-1.377-1.591-2.903-2.47-4.303c-0.454-0.724-0.927-1.422,0.011-1.917c0.296-0.157,1.083,0.396,1.512,0.775
		c0.359,0.318,0.525,0.854,1.376,1.191c0-2.595-0.035-5.193,0.019-7.788c0.02-0.979,0.096-2.009,0.422-2.916
		c0.358-0.991,1.531-1.028,2.056-0.109c0.52,0.914,0.879,1.918,1.501,3.313c0.517-1.595,0.863-2.661,1.428-4.406
		c1.2,1.651,2.005,2.756,2.946,4.047c0.835-2.649-0.242-5.751,1.817-8.105c2.676,0.737,2.042,3.424,3.12,5.337
		c1.297-1.526-0.27-3.793,2.018-4.997c0.424,0.896,0.925,1.702,1.197,2.578c0.508,1.632,0.206,13.323-0.305,15.217
		c-1.289,0.385-1.444-0.472-1.643-1.422c-0.65-3.153-1.305-6.307-2.067-9.435c-0.356-1.468-0.952-2.877-1.755-4.262
		c-1.134,2.673-0.658,5.406-0.669,8.07c-0.011,2.556,0.337,5.114,0.552,7.996c-2.314-1.21-1.721-3.358-2.276-4.987
		c-0.55-1.625-1.138-3.238-1.923-5.464C473.326,213.983,475.192,216.801,475.372,219.883z"/>
	<path fill-rule="evenodd" clip-rule="evenodd" d="M476.818,251.92c0.686,2.648,1.562,4.922,1.825,7.265
		c0.96,8.472,8.542,11.167,14.831,10.402c2.605-0.317,5.184-1.223,7.651-2.181c1.137-0.442,2.252-1.485,2.902-2.546
		c3.06-4.983,4.852-10.414,5.236-16.282c0.13-1.972,0.318-2.13,2.513-2.195c-0.919,3.932-1.61,7.829-2.771,11.582
		c-1.14,3.675-2.761,7.203-4.14,10.716c-1.063,0.262-1.991,0.494-3.452,0.855c1.67,2.999,3.171,5.696,4.888,8.782
		c-2.63-0.31-2.889-2.752-4.667-3.548c0.113,0.955,0.22,1.82,0.351,2.899c-2.378-1.393-3.167-3.547-2.758-6.972
		c-3.912,0.313-7.818,0.626-12.161,0.974c-0.98,2.62-1.776,5.847-1.187,9.229c-1.191,0.564-1.749,0.088-1.738-0.857
		c0.025-1.773,0.167-3.551,0.359-5.316c0.156-1.421,0.46-2.828,0.726-4.416c-4.808-1.974-7.303-5.588-8.214-10.555
		C475.877,253.564,475.769,253.585,476.818,251.92z"/>
	<path fill-rule="evenodd" clip-rule="evenodd" d="M507.62,213.994c-1.124,1.033-2.198,2.109-3.365,3.07
		c-0.805,0.666-1.578,1.956-2.813,1.139c-0.772-0.513-1.205-1.544-2.037-2.681c-1.132,0.433-3.025,1.518-3.83-0.792
		c-1.124,0.476-2.1,0.89-3.077,1.303c-0.503-1.28-1.003-2.56-1.441-3.679c-1.137,1.428-1.624,3.238-1.651,7.105
		c-0.569-0.712-1.183-1.131-1.219-1.594c-0.092-1.21,0.049-2.442,0.133-3.663c0.031-0.439,0.14-0.88,0.256-1.307
		c1.001-3.754,2.012-7.505,3.071-11.438c2.104,0.607,1.732,2.15,1.669,3.468c-0.125,2.604-0.335,5.205-0.16,7.866
		c1.853-2.462,2.53-5.301,3.186-8.146c0.258-1.117,0.457-2.293,2.333-1.681c-0.481,3.528-0.968,7.088-1.545,11.303
		c4.047-2.762,3.014-7.6,6.041-10.193c0.147,3.979-1.724,7.741-0.843,11.977c2.16-1.621,4.146-3.112,6.183-4.643
		c2.837,2.363,0.912,5.225,1.982,7.85C506.619,218.543,509.467,215.605,507.62,213.994z"/>
	<path fill-rule="evenodd" clip-rule="evenodd" d="M475.045,244.115c-2.747,0.326-2.589-3.104-4.729-3.264
		c-1.932,3.84-1.023,7.627,2.262,9.547c-1.305,1.575-2.774,1.548-3.562-0.306c-0.596-1.398-0.819-3.002-0.96-4.536
		c-0.237-2.53-0.289-5.076-0.39-7.616c-0.046-1.183,0.566-1.665,1.667-1.214c0.561,0.229,1.018,0.713,2.029,1.454
		c0-2.813-0.086-5.111,0.036-7.398c0.073-1.424,0.397-2.848,0.747-4.236c0.188-0.751,0.322-0.719,2.486-0.782
		c-2.184,1.771-1.786,3.99-1.79,6.124c0,1.673,0.046,3.347-0.014,5.017c-0.051,1.501,0.108,2.807,1.393,3.888
		C475.195,241.61,475.374,242.822,475.045,244.115z"/>
	<path fill-rule="evenodd" clip-rule="evenodd" d="M509.045,233.615c0.847-0.44,1.673-0.872,2.696-1.405
		c4.164,4.431,2.159,9.637,2.69,14.495c-2.084,0.218-1.908-0.839-1.908-1.885c-0.005-2.532-0.021-5.069-0.177-7.594
		c-0.043-0.705-0.593-1.379-0.917-2.081c-2.497,0.797-1.371,3.39-2.728,5.111c-0.413-0.797-0.955-1.338-0.896-1.804
		c0.599-4.812-0.914-9.411-1.333-14.114c-0.119-1.33-0.258-2.671-0.19-3.999c0.019-0.398,0.696-0.765,1.422-1.499
		C508.183,224.11,508.608,228.796,509.045,233.615z"/>
	<path fill-rule="evenodd" clip-rule="evenodd" d="M495.67,237.031c1.219,0.795,2.321,1.292,3.661,0.457
		c1.41-0.877,2.332-0.242,2.845,1.103c0.561,1.469-0.095,2.576-1.8,2.856c-1.187,0.196-2.44,0.191-3.64,0.056
		c-1.243-0.14-3.193-3.529-2.97-4.911c0.272-1.664,2.443-3.286,4.178-3.077c1.27,0.156,2.532,0.359,3.792,0.586
		c0.149,0.026,0.248,0.333,0.43,0.599C500.771,237.431,497.059,233.853,495.67,237.031z"/>
	<path fill-rule="evenodd" clip-rule="evenodd" d="M481.815,237.778c1.147,0.725,2.298,1.45,3.449,2.176
		c-0.781,2.277-2.93,2.455-4.396,3.474c-0.299,0.207-1.55-0.239-1.616-0.544c-0.258-1.226-0.5-2.576-0.228-3.761
		c0.308-1.342,1.526-1.732,2.886-1.285L481.815,237.778z"/>
	<path fill-rule="evenodd" clip-rule="evenodd" d="M488.645,260.553c-0.271-2.927,0.906-4.676,2.985-4.967
		c1.45-0.203,3.002,0.915,4.408-0.332c0.063-0.055,1.138,0.688,1.088,0.924c-0.141,0.694-0.455,1.642-0.987,1.905
		c-1.267,0.625-2.799,1.436-4.039,1.201C490.622,259.005,489.744,259.789,488.645,260.553z"/>
	<path fill-rule="evenodd" clip-rule="evenodd" d="M496.367,247.817c-1.686,2.161-2.842,4.363-5.873,3.794
		c-1.683-0.315-2.356-1.387-2.945-2.886c1.659-1.38,2.689-0.556,3.709,1.417c1.148-1.333,2.098-2.434,3.199-3.713
		C495.016,246.835,495.589,247.253,496.367,247.817z"/>
	<path fill-rule="evenodd" clip-rule="evenodd" d="M481.911,237.837c-2.848-1.885-2.924-1.886-5.424-0.144
		c-0.863-1.706-0.068-3.485,1.744-3.167c2.858,0.505,5.601,1.684,8.383,2.607c0.081,0.026,0.046,0.401,0.108,1.07
		c-1.7-0.154-3.316-0.301-4.917-0.437C481.815,237.778,481.911,237.837,481.911,237.837z"/>
</g>
<g>
	<g>
		<path d="M131.83,59.822c21.379,18.468,40.929,40.812,53.761,66.114c12.495,24.638,18.98,51.845,32.096,76.212
			c0.543,1.009,2.03,0.939,2.591,0c6.015-10.076,7.782-21.583,11.715-32.481c-0.964-0.266-1.928-0.532-2.893-0.798
			c-1.143,5.362-2.552,19.161-10.755,17.328c-8.016-1.791-15.247-6.304-23.378-8.096c-1.305-0.288-2.318,1.012-1.694,2.204
			c5.339,10.193,13.818,17.903,23.667,23.667c0.691,0.404,1.659,0.178,2.052-0.538c5.191-9.458,7.659-20.1,12.85-29.554
			c0.951-1.733-1.468-3.043-2.591-1.515c-3.458,4.712-6.348,9.83-10.165,14.275c-1.783,2.076-4.054,4.188-6.891,4.487
			c-3.932,0.414-6.905-4.481-8.623-7.198c-0.786,0.606-1.571,1.212-2.356,1.818c5.015,4.561,11.06,5.231,17.008,7.945
			c0.6,0.273,1.332,0.296,1.817-0.235c1.891-2.066,2.917-4.208,4.089-6.728c0.81-1.743-1.776-3.268-2.591-1.515
			c-1.072,2.306-1.859,4.196-3.62,6.122c0.606-0.078,1.212-0.157,1.817-0.235c-5.587-2.549-11.696-3.197-16.401-7.475
			c-1.223-1.113-3.3,0.324-2.356,1.818c3.699,5.85,9.051,11.223,16.062,7.032c6.628-3.963,10.385-12.585,14.798-18.596
			c-0.864-0.505-1.727-1.01-2.591-1.515c-5.192,9.458-7.659,20.1-12.85,29.554c0.684-0.179,1.369-0.358,2.052-0.538
			c-9.437-5.522-17.474-12.823-22.59-22.591c-0.565,0.735-1.129,1.469-1.694,2.204c5.692,1.254,11.082,3.228,16.437,5.5
			c3.041,1.29,6.123,2.749,9.464,2.969c8.774,0.578,10.697-14.04,11.923-19.795c0.406-1.906-2.239-2.609-2.893-0.798
			c-3.845,10.653-5.531,21.913-11.414,31.766c0.864,0,1.727,0,2.591,0c-13.384-24.865-20.125-52.607-32.886-77.769
			c-12.607-24.858-32.472-47.052-53.441-65.165C132.495,56.443,130.363,58.556,131.83,59.822L131.83,59.822z"/>
	</g>
</g>
<g>
	<g>
		<path d="M215.343,187.257c-0.316-51.475-29.666-95.379-41.172-144.313c-0.443-1.883-3.335-1.084-2.893,0.798
			c11.438,48.643,40.75,92.359,41.065,143.516C212.354,189.191,215.354,189.192,215.343,187.257L215.343,187.257z"/>
	</g>
</g>
<g>
	<g>
		<path d="M150.87,42.814c3.864,7.562,8.551,14.738,11.413,22.771c0.835-0.487,1.671-0.973,2.507-1.459
			c-3.934-4.947-9.066-7.1-14.796-9.38c-1.282-0.51-2.299,1.157-1.694,2.203c6.846,11.842,17.628,20.369,27.219,29.857
			c1.376,1.361,3.498-0.759,2.121-2.121c-9.402-9.302-20.038-17.639-26.75-29.25c-0.565,0.734-1.129,1.469-1.694,2.203
			c5.298,2.109,9.843,4.044,13.473,8.609c0.934,1.175,2.995-0.088,2.507-1.459c-2.952-8.287-7.729-15.688-11.715-23.487
			C152.58,39.577,149.991,41.096,150.87,42.814L150.87,42.814z"/>
	</g>
</g>
<g>
	<g>
		<path d="M182.993,246.893c-14.862,21.637-29.458,44.484-31.043,71.43c-0.114,1.934,2.887,1.922,3,0
			c1.552-26.361,16.11-48.771,30.634-69.916C186.683,246.808,184.081,245.31,182.993,246.893L182.993,246.893z"/>
	</g>
</g>
<g>
	<g>
		<path d="M174.233,244.02c-13.611,14.963-24.668,31.535-31.224,50.774c-0.626,1.836,2.272,2.618,2.893,0.798
			c6.391-18.755,17.186-34.866,30.453-49.451C177.653,244.713,175.538,242.585,174.233,244.02L174.233,244.02z"/>
	</g>
</g>
<g>
	<g>
		<path d="M394.135,435.414c32.851-13.49,53.415-45.468,60.155-79.429c0.375-1.889-2.516-2.694-2.893-0.798
			c-6.514,32.82-26.199,64.25-58.061,77.334C391.573,433.246,392.345,436.149,394.135,435.414L394.135,435.414z"/>
	</g>
</g>
<g>
	<g>
		<path d="M401.845,446.979c20.774-4.212,36.85-18.681,52.06-32.51c1.435-1.304-0.693-3.419-2.121-2.121
			c-14.848,13.5-30.453,27.626-50.736,31.739C399.152,444.471,399.956,447.362,401.845,446.979L401.845,446.979z"/>
	</g>
</g>
<g>
	<g>
		<path d="M58.762,426.097c-14.617-5.087-30.069-5.19-45.373-5.193c0.252,0.932,0.505,1.863,0.757,2.795
			c4.456-2.165,8.988-3.755,13.777-4.988c1.629-0.419,1.306-3.011-0.399-2.946c-5.323,0.202-8.128,2.393-12.322,5.344
			c-0.408,0.288-0.797,0.752-0.743,1.295c0.403,4.044,2.341,5.913,5.883,7.72c1.719,0.877,3.237-1.711,1.514-2.591
			c-2.134-1.089-5.712-3.272-2.942-5.455c2.72-2.143,5.051-3.179,8.61-3.313c-0.133-0.982-0.266-1.964-0.399-2.946
			c-5.049,1.3-9.804,3.013-14.493,5.29c-1.384,0.672-0.667,2.795,0.757,2.795c15.045,0.003,30.201,0.083,44.575,5.086
			C59.796,429.627,60.577,426.728,58.762,426.097L58.762,426.097z"/>
	</g>
</g>
<g>
	<g>
		<path d="M82.788,176.221c-10.346-17.472-28.642-25.483-45.512-35.232c-0.12,0.914-0.239,1.828-0.358,2.742
			c4.07-1.441,8.081-3.506,12.451-3.801c1.586-0.107,2.164-2.677,0.399-2.946c-8.024-1.226-15.903-1.226-23.927,0
			c-0.62,0.095-1.14,0.843-1.101,1.446c0.346,5.44,3.213,10.011,6.864,13.91c1.325,1.415,3.442-0.711,2.121-2.121
			c-3.073-3.282-5.692-7.175-5.985-11.789c-0.367,0.482-0.734,0.964-1.101,1.446c7.465-1.141,14.866-1.141,22.332,0
			c0.133-0.982,0.266-1.964,0.399-2.946c-4.685,0.317-8.878,2.361-13.249,3.909c-1.184,0.419-1.546,2.055-0.358,2.742
			c16.377,9.464,34.38,17.173,44.436,34.155C81.182,179.397,83.776,177.889,82.788,176.221L82.788,176.221z"/>
	</g>
</g>
<g>
	<g>
		<path d="M511.728,175.468c12.813-10.08,27.592-16.945,42.099-24.18c1.392-0.694,0.658-2.763-0.757-2.795
			c-5.593-0.127-11.111-1.157-16.704-1.285c0.133,0.982,0.266,1.964,0.399,2.946c3.076-0.592,7.331-1.152,8.512,2.6
			c1.046,3.322-1.123,7.75-2.497,10.617c-0.831,1.735,1.755,3.258,2.591,1.514c1.897-3.961,4.484-9.643,2.41-14.042
			c-2.191-4.646-7.45-4.421-11.813-3.581c-1.712,0.33-1.241,2.909,0.399,2.946c5.593,0.127,11.111,1.157,16.704,1.285
			c-0.252-0.932-0.505-1.863-0.757-2.795c-14.765,7.363-29.669,14.393-42.706,24.649
			C508.086,174.542,510.226,176.65,511.728,175.468L511.728,175.468z"/>
	</g>
</g>
<g>
	<g>
		<path d="M379.203,228.537c15.741,5.067,29.424,16.776,32.362,33.647c0.331,1.903,3.222,1.094,2.893-0.798
			c-3.114-17.885-17.793-30.378-34.457-35.742C378.153,225.049,377.369,227.946,379.203,228.537L379.203,228.537z"/>
	</g>
</g>
<g>
	<g>
		<path d="M391.693,221.961c8.685,6.264,17.051,13.288,22.591,22.591c0.989,1.66,3.583,0.152,2.591-1.515
			c-5.81-9.755-14.561-17.099-23.667-23.667C391.635,218.237,390.14,220.841,391.693,221.961L391.693,221.961z"/>
	</g>
</g>
<g>
	<g>
		<path d="M400.688,219.391c9.196,5.256,18.324,10.59,26.984,16.704c1.584,1.118,3.081-1.484,1.514-2.591
			c-8.66-6.113-17.788-11.447-26.983-16.704C400.521,215.839,399.01,218.431,400.688,219.391L400.688,219.391z"/>
	</g>
</g>
</svg>
